<svg width="1916" height="570" viewBox="0 0 1916 570" fill="none" xmlns="http://www.w3.org/2000/svg">
<g clip-path="url(#clip0_145_2306)">
<path d="M1402.03 530.607H1387.16L1379.61 517.063L1387.16 503.285H1402.03L1409.58 517.063L1402.03 530.607Z" fill="white" fill-opacity="0.4"/>
<path d="M1372.5 476.663H1358.73L1351.85 464.286L1358.73 451.676H1372.5L1379.39 464.286L1372.5 476.663Z" fill="white" fill-opacity="0.4"/>
<path d="M1371.17 509.59H1360.07L1354.52 499.315L1360.07 489.273H1371.17L1376.72 499.315L1371.17 509.59Z" fill="white" fill-opacity="0.4"/>
<path d="M1370.73 438.6H1360.51L1355.18 429.025L1360.51 419.451H1370.73L1376.05 429.025L1370.73 438.6Z" fill="white" fill-opacity="0.4"/>
<path d="M1344.3 460.784H1328.98L1321.21 446.539L1328.98 432.528H1344.3L1352.07 446.539L1344.3 460.784Z" fill="white" fill-opacity="0.4"/>
<path d="M1340.97 489.74H1332.31L1328.09 481.8L1332.31 473.86H1340.97L1345.19 481.8L1340.97 489.74Z" fill="white" fill-opacity="0.4"/>
<path d="M1344.3 425.522H1328.98L1321.21 411.511L1328.98 397.266H1344.3L1352.07 411.511L1344.3 425.522Z" fill="white" fill-opacity="0.4"/>
<path d="M1315.43 443.035H1299.89L1292.12 429.024L1299.89 415.013H1315.43L1323.21 429.024L1315.43 443.035Z" fill="white" fill-opacity="0.4"/>
<path d="M1315.43 478.298H1299.89L1292.12 464.286L1299.89 450.042H1315.43L1323.21 464.286L1315.43 478.298Z" fill="white" fill-opacity="0.4"/>
<path d="M1315.21 513.327H1300.11L1292.34 499.315L1300.11 485.538H1315.21L1322.98 499.315L1315.21 513.327Z" fill="white" fill-opacity="0.4"/>
<path d="M1314.32 546.72H1301L1294.34 534.577L1301 522.434H1314.32L1320.76 534.577L1314.32 546.72Z" fill="white" fill-opacity="0.4"/>
<path d="M1344.08 389.794H1329.2L1321.65 376.249L1329.2 362.705H1344.08L1351.63 376.249L1344.08 389.794Z" fill="white" fill-opacity="0.4"/>
<path d="M1315.43 407.774H1299.89L1292.12 393.763L1299.89 379.751H1315.43L1323.21 393.763L1315.43 407.774Z" fill="white" fill-opacity="0.4"/>
<path d="M1286.35 425.522H1271.02L1263.25 411.511L1271.02 397.266H1286.35L1294.12 411.511L1286.35 425.522Z" fill="white" fill-opacity="0.4"/>
<path d="M1286.35 460.784H1271.02L1263.25 446.539L1271.02 432.528H1286.35L1294.12 446.539L1286.35 460.784Z" fill="white" fill-opacity="0.4"/>
<path d="M1286.35 495.812H1271.02L1263.25 481.8L1271.02 467.789H1286.35L1294.12 481.8L1286.35 495.812Z" fill="white" fill-opacity="0.4"/>
<path d="M1286.35 531.074H1271.02L1263.25 517.063L1271.02 502.818H1286.35L1294.12 517.063L1286.35 531.074Z" fill="white" fill-opacity="0.4"/>
<path d="M1283.68 561.198H1273.69L1268.8 552.09L1273.69 543.216H1283.68L1288.57 552.09L1283.68 561.198Z" fill="white" fill-opacity="0.4"/>
<path d="M1337.86 343.322H1335.42L1334.09 340.987L1335.42 338.651H1337.86L1339.19 340.987L1337.86 343.322Z" fill="white" fill-opacity="0.4"/>
<path d="M1314.32 370.644H1301L1294.34 358.5L1301 346.591H1314.32L1320.76 358.5L1314.32 370.644Z" fill="white" fill-opacity="0.4"/>
<path d="M1286.35 390.261H1271.02L1263.25 376.249L1271.02 362.238H1286.35L1294.12 376.249L1286.35 390.261Z" fill="white" fill-opacity="0.4"/>
<path d="M1257.48 407.774H1241.94L1234.16 393.763L1241.94 379.751H1257.48L1265.25 393.763L1257.48 407.774Z" fill="white" fill-opacity="0.4"/>
<path d="M1257.48 443.035H1241.94L1234.16 429.024L1241.94 415.013H1257.48L1265.25 429.024L1257.48 443.035Z" fill="white" fill-opacity="0.4"/>
<path d="M1257.48 478.298H1241.94L1234.16 464.286L1241.94 450.042H1257.48L1265.25 464.286L1257.48 478.298Z" fill="white" fill-opacity="0.4"/>
<path d="M1257.48 513.56H1241.94L1234.16 499.315L1241.94 485.304H1257.48L1265.25 499.315L1257.48 513.56Z" fill="white" fill-opacity="0.4"/>
<path d="M1257.48 548.588H1241.94L1234.16 534.577L1241.94 520.565H1257.48L1265.25 534.577L1257.48 548.588Z" fill="white" fill-opacity="0.4"/>
<path d="M1253.26 576.378H1246.15L1242.38 569.839L1246.15 563.067H1253.26L1257.04 569.839L1253.26 576.378Z" fill="white" fill-opacity="0.4"/>
<path d="M1285.46 353.13H1271.91L1265.25 340.987L1271.91 328.844H1285.46L1292.12 340.987L1285.46 353.13Z" fill="white" fill-opacity="0.4"/>
<path d="M1257.48 372.745H1241.94L1234.16 358.5L1241.94 344.488H1257.48L1265.25 358.5L1257.48 372.745Z" fill="white" fill-opacity="0.4"/>
<path d="M1228.39 390.261H1213.07L1205.3 376.249L1213.07 362.238H1228.39L1236.16 376.249L1228.39 390.261Z" fill="white" fill-opacity="0.4"/>
<path d="M1228.39 425.522H1213.07L1205.3 411.511L1213.07 397.266H1228.39L1236.16 411.511L1228.39 425.522Z" fill="white" fill-opacity="0.4"/>
<path d="M1228.39 460.784H1213.07L1205.3 446.539L1213.07 432.528H1228.39L1236.16 446.539L1228.39 460.784Z" fill="white" fill-opacity="0.4"/>
<path d="M1228.39 495.812H1213.07L1205.3 481.8L1213.07 467.789H1228.39L1236.16 481.8L1228.39 495.812Z" fill="white" fill-opacity="0.4"/>
<path d="M1228.39 531.074H1213.07L1205.3 517.063L1213.07 502.818H1228.39L1236.16 517.063L1228.39 531.074Z" fill="white" fill-opacity="0.4"/>
<path d="M1228.39 566.336H1213.07L1205.3 552.091L1213.07 538.08H1228.39L1236.16 552.091L1228.39 566.336Z" fill="white" fill-opacity="0.4"/>
<path d="M1338.53 273.966H1334.75L1332.98 270.697L1334.75 267.427H1338.53L1340.3 270.697L1338.53 273.966Z" fill="white" fill-opacity="0.4"/>
<path d="M1315.43 302.222H1299.89L1292.12 288.211L1299.89 274.199H1315.43L1323.21 288.211L1315.43 302.222Z" fill="white" fill-opacity="0.4"/>
<path d="M1281.68 311.095H1275.69L1272.8 305.724L1275.69 300.586H1281.68L1284.57 305.724L1281.68 311.095Z" fill="white" fill-opacity="0.4"/>
<path d="M1257.48 337.484H1241.94L1234.16 323.472L1241.94 309.228H1257.48L1265.25 323.472L1257.48 337.484Z" fill="white" fill-opacity="0.4"/>
<path d="M1228.39 354.997H1213.07L1205.3 340.985L1213.07 326.974H1228.39L1236.16 340.985L1228.39 354.997Z" fill="white" fill-opacity="0.4"/>
<path d="M1197.08 403.57H1186.42L1180.87 393.763L1186.42 383.955H1197.08L1202.63 393.763L1197.08 403.57Z" fill="white" fill-opacity="0.4"/>
<path d="M1199.08 442.335H1184.42L1177.1 429.024L1184.42 415.713H1199.08L1206.41 429.024L1199.08 442.335Z" fill="white" fill-opacity="0.4"/>
<path d="M1199.52 478.298H1183.98L1176.21 464.286L1183.98 450.042H1199.52L1207.3 464.286L1199.52 478.298Z" fill="white" fill-opacity="0.4"/>
<path d="M1199.52 513.56H1183.98L1176.21 499.315L1183.98 485.304H1199.52L1207.3 499.315L1199.52 513.56Z" fill="white" fill-opacity="0.4"/>
<path d="M1199.52 548.588H1183.98L1176.21 534.577L1183.98 520.565H1199.52L1207.3 534.577L1199.52 548.588Z" fill="white" fill-opacity="0.4"/>
<path d="M1199.52 583.85H1183.98L1176.21 569.839L1183.98 555.594H1199.52L1207.3 569.839L1199.52 583.85Z" fill="white" fill-opacity="0.4"/>
<path d="M1370.06 225.627H1361.18L1356.96 217.921L1361.18 209.981H1370.06L1374.28 217.921L1370.06 225.627Z" fill="white" fill-opacity="0.4"/>
<path d="M1344.3 249.446H1328.98L1321.21 235.434L1328.98 221.423H1344.3L1352.07 235.434L1344.3 249.446Z" fill="white" fill-opacity="0.4"/>
<path d="M1315.43 267.193H1299.89L1292.12 252.948L1299.89 238.937H1315.43L1323.21 252.948L1315.43 267.193Z" fill="white" fill-opacity="0.4"/>
<path d="M1286.35 284.709H1271.02L1263.25 270.697L1271.02 256.686H1286.35L1294.12 270.697L1286.35 284.709Z" fill="white" fill-opacity="0.4"/>
<path d="M1228.39 319.736H1213.07L1205.52 305.725L1213.07 291.947H1228.39L1235.94 305.725L1228.39 319.736Z" fill="white" fill-opacity="0.4"/>
<path d="M1167.77 420.618H1157.78L1152.67 411.511L1157.78 402.17H1167.77L1172.88 411.511L1167.77 420.618Z" fill="white" fill-opacity="0.4"/>
<path d="M1170.21 460.083H1155.34L1148.01 446.539L1155.34 433.228H1170.21L1177.54 446.539L1170.21 460.083Z" fill="white" fill-opacity="0.4"/>
<path d="M1170.44 495.812H1155.11L1147.34 481.8L1155.11 467.789H1170.44L1178.21 481.8L1170.44 495.812Z" fill="white" fill-opacity="0.4"/>
<path d="M1170.44 531.074H1155.11L1147.34 517.063L1155.11 502.818H1170.44L1178.21 517.063L1170.44 531.074Z" fill="white" fill-opacity="0.4"/>
<path d="M1170.44 566.336H1155.11L1147.34 552.091L1155.11 538.08H1170.44L1178.21 552.091L1170.44 566.336Z" fill="#ACA7E9"/>
<path d="M1341.41 208.813H1331.87L1327.2 200.173L1331.87 191.532H1341.41L1346.08 200.173L1341.41 208.813Z" fill="white" fill-opacity="0.4"/>
<path d="M1315.43 231.932H1299.89L1292.12 217.92L1299.89 203.675H1315.43L1323.21 217.92L1315.43 231.932Z" fill="white" fill-opacity="0.4"/>
<path d="M1286.35 249.446H1271.02L1263.25 235.434L1271.02 221.423H1286.35L1294.12 235.434L1286.35 249.446Z" fill="white" fill-opacity="0.4"/>
<path d="M1257.26 266.962H1241.94L1234.39 252.95L1241.94 239.172H1257.26L1265.03 252.95L1257.26 266.962Z" fill="white" fill-opacity="0.4"/>
<path d="M1222.4 273.732H1219.06L1217.29 270.697L1219.06 267.427H1222.4L1224.17 270.697L1222.4 273.732Z" fill="white" fill-opacity="0.4"/>
<path d="M1195.3 294.749H1188.2L1184.65 288.211L1188.2 281.672H1195.3L1198.86 288.211L1195.3 294.749Z" fill="white" fill-opacity="0.4"/>
<path d="M1136.02 397.965H1131.35L1129.13 393.762L1131.35 389.559H1136.02L1138.46 393.762L1136.02 397.965Z" fill="white" fill-opacity="0.4"/>
<path d="M1141.57 443.035H1126.02L1118.25 429.024L1126.02 415.013H1141.57L1149.12 429.024L1141.57 443.035Z" fill="white" fill-opacity="0.4"/>
<path d="M1141.57 478.298H1126.02L1118.25 464.286L1126.02 450.042H1141.57L1149.12 464.286L1141.57 478.298Z" fill="white" fill-opacity="0.4"/>
<path d="M1141.57 513.56H1126.02L1118.25 499.315L1126.02 485.304H1141.57L1149.12 499.315L1141.57 513.56Z" fill="white" fill-opacity="0.4"/>
<path d="M1141.57 548.588H1126.02L1118.25 534.577L1126.02 520.565H1141.57L1149.12 534.577L1141.57 548.588Z" fill="white" fill-opacity="0.4"/>
<path d="M1141.57 583.85H1126.02L1118.25 569.839L1126.02 555.594H1141.57L1149.12 569.839L1141.57 583.85Z" fill="white" fill-opacity="0.4"/>
<path d="M1315.43 196.67H1299.89L1292.12 182.659L1299.89 168.647H1315.43L1323.21 182.659L1315.43 196.67Z" fill="white" fill-opacity="0.4"/>
<path d="M1285.9 213.484H1271.47L1264.14 200.174L1271.47 186.863H1285.9L1293.23 200.174L1285.9 213.484Z" fill="white" fill-opacity="0.4"/>
<path d="M1168.66 281.438H1156.89L1150.89 270.696L1156.89 259.954H1168.66L1174.65 270.696L1168.66 281.438Z" fill="white" fill-opacity="0.4"/>
<path d="M1108.04 311.797H1101.6L1098.27 305.725L1101.6 299.887H1108.04L1111.37 305.725L1108.04 311.797Z" fill="white" fill-opacity="0.4"/>
<path d="M1107.15 380.452H1102.49L1100.04 376.248L1102.49 371.812H1107.15L1109.59 376.248L1107.15 380.452Z" fill="white" fill-opacity="0.4"/>
<path d="M1112.48 425.522H1097.16L1089.39 411.511L1097.16 397.266H1112.48L1120.25 411.511L1112.48 425.522Z" fill="white" fill-opacity="0.4"/>
<path d="M1112.48 460.784H1097.16L1089.39 446.539L1097.16 432.528H1112.48L1120.25 446.539L1112.48 460.784Z" fill="white" fill-opacity="0.4"/>
<path d="M1112.48 495.812H1097.16L1089.39 481.8L1097.16 467.789H1112.48L1120.25 481.8L1112.48 495.812Z" fill="white" fill-opacity="0.4"/>
<path d="M1112.48 531.074H1097.16L1089.39 517.063L1097.16 502.818H1112.48L1120.25 517.063L1112.48 531.074Z" fill="white" fill-opacity="0.4"/>
<path d="M1112.48 566.336H1097.16L1089.39 552.091L1097.16 538.08H1112.48L1120.25 552.091L1112.48 566.336Z" fill="white" fill-opacity="0.4"/>
<path d="M1431.12 90.6507H1416.02L1408.7 77.1064L1416.02 63.3286H1431.12L1438.45 77.1064L1431.12 90.6507Z" fill="white" fill-opacity="0.4"/>
<path d="M1312.1 155.57H1303.22L1298.56 147.397L1303.22 139.224H1312.1L1316.77 147.397L1312.1 155.57Z" fill="white" fill-opacity="0.4"/>
<path d="M1286.35 179.156H1271.02L1263.25 165.145L1271.02 150.9H1286.35L1294.12 165.145L1286.35 179.156Z" fill="white" fill-opacity="0.4"/>
<path d="M1255.48 193.167H1243.93L1238.16 182.659L1243.93 172.15H1255.48L1261.25 182.659L1255.48 193.167Z" fill="white" fill-opacity="0.4"/>
<path d="M1199.52 231.932H1183.98L1176.21 217.92L1183.98 203.675H1199.52L1207.3 217.92L1199.52 231.932Z" fill="white" fill-opacity="0.4"/>
<path d="M1170.21 248.746H1155.34L1148.01 235.435L1155.34 222.124H1170.21L1177.54 235.435L1170.21 248.746Z" fill="white" fill-opacity="0.4"/>
<path d="M1141.57 267.193H1126.02L1118.25 252.948L1126.02 238.937H1141.57L1149.12 252.948L1141.57 267.193Z" fill="white" fill-opacity="0.4"/>
<path d="M1112.48 284.707H1097.16L1089.39 270.696L1097.16 256.451H1112.48L1120.25 270.696L1112.48 284.707Z" fill="white" fill-opacity="0.4"/>
<path d="M1083.61 302.222H1068.07L1060.3 288.211L1068.07 274.199H1083.61L1091.16 288.211L1083.61 302.222Z" fill="white" fill-opacity="0.4"/>
<path d="M1083.17 337.017H1068.29L1060.96 323.473L1068.29 309.929H1083.17L1090.72 323.473L1083.17 337.017Z" fill="white" fill-opacity="0.4"/>
<path d="M1082.72 371.111H1068.96L1062.07 358.501L1068.96 346.125H1082.72L1089.39 358.501L1082.72 371.111Z" fill="white" fill-opacity="0.4"/>
<path d="M1083.61 407.774H1068.07L1060.3 393.763L1068.07 379.751H1083.61L1091.16 393.763L1083.61 407.774Z" fill="white" fill-opacity="0.4"/>
<path d="M1083.61 443.035H1068.07L1060.3 429.024L1068.07 415.013H1083.61L1091.16 429.024L1083.61 443.035Z" fill="white" fill-opacity="0.4"/>
<path d="M1083.61 478.298H1068.07L1060.3 464.286L1068.07 450.042H1083.61L1091.16 464.286L1083.61 478.298Z" fill="white" fill-opacity="0.4"/>
<path d="M1083.61 513.56H1068.07L1060.3 499.315L1068.07 485.304H1083.61L1091.16 499.315L1083.61 513.56Z" fill="#ACA7E9"/>
<path d="M1083.61 548.588H1068.07L1060.3 534.577L1068.07 520.565H1083.61L1091.16 534.577L1083.61 548.588Z" fill="white" fill-opacity="0.4"/>
<path d="M1083.61 583.85H1068.07L1060.3 569.839L1068.07 555.594H1083.61L1091.16 569.839L1083.61 583.85Z" fill="white" fill-opacity="0.4"/>
<path d="M1431.35 55.8552H1415.8L1408.03 41.8439L1415.8 27.8325H1431.35L1439.12 41.8439L1431.35 55.8552Z" fill="white" fill-opacity="0.4"/>
<path d="M1402.26 73.6044H1386.93L1379.16 59.3595L1386.93 45.3481H1402.26L1410.03 59.3595L1402.26 73.6044Z" fill="white" fill-opacity="0.4"/>
<path d="M1368.5 82.4769H1362.73L1359.84 77.1059L1362.73 71.7349H1368.5L1371.39 77.1059L1368.5 82.4769Z" fill="white" fill-opacity="0.4"/>
<path d="M1280.13 132.451H1277.24L1275.69 129.882L1277.24 127.08H1280.13L1281.68 129.882L1280.13 132.451Z" fill="white" fill-opacity="0.4"/>
<path d="M1257.48 161.641H1241.94L1234.16 147.397L1241.94 133.385H1257.48L1265.25 147.397L1257.48 161.641Z" fill="white" fill-opacity="0.4"/>
<path d="M1228.39 179.156H1213.07L1205.3 165.145L1213.07 150.9H1228.39L1236.16 165.145L1228.39 179.156Z" fill="white" fill-opacity="0.4"/>
<path d="M1197.75 193.634H1185.76L1179.54 182.658L1185.76 171.683H1197.75L1203.96 182.658L1197.75 193.634Z" fill="#392DCA"/>
<path d="M1167.1 208.345H1158.22L1153.78 200.172L1158.22 192.232H1167.1L1171.77 200.172L1167.1 208.345Z" fill="white" fill-opacity="0.4"/>
<path d="M1141.57 231.932H1126.02L1118.25 217.92L1126.02 203.675H1141.57L1149.12 217.92L1141.57 231.932Z" fill="white" fill-opacity="0.4"/>
<path d="M1112.48 249.446H1097.16L1089.39 235.434L1097.16 221.423H1112.48L1120.25 235.434L1112.48 249.446Z" fill="white" fill-opacity="0.4"/>
<path d="M1083.61 267.193H1068.07L1060.3 252.948L1068.07 238.937H1083.61L1091.16 252.948L1083.61 267.193Z" fill="white" fill-opacity="0.4"/>
<path d="M1054.52 284.707H1039.2L1031.43 270.696L1039.2 256.451H1054.52L1062.3 270.696L1054.52 284.707Z" fill="white" fill-opacity="0.4"/>
<path d="M1054.52 319.969H1039.2L1031.43 305.724L1039.2 291.713H1054.52L1062.3 305.724L1054.52 319.969Z" fill="white" fill-opacity="0.4"/>
<path d="M1054.52 354.997H1039.2L1031.43 340.985L1039.2 326.974H1054.52L1062.3 340.985L1054.52 354.997Z" fill="white" fill-opacity="0.4"/>
<path d="M1054.52 390.261H1039.2L1031.43 376.249L1039.2 362.238H1054.52L1062.3 376.249L1054.52 390.261Z" fill="white" fill-opacity="0.4"/>
<path d="M1054.52 425.522H1039.2L1031.43 411.511L1039.2 397.266H1054.52L1062.3 411.511L1054.52 425.522Z" fill="white" fill-opacity="0.4"/>
<path d="M1054.52 460.784H1039.2L1031.43 446.539L1039.2 432.528H1054.52L1062.3 446.539L1054.52 460.784Z" fill="white" fill-opacity="0.4"/>
<path d="M1054.52 495.812H1039.2L1031.43 481.8L1039.2 467.789H1054.52L1062.3 481.8L1054.52 495.812Z" fill="white" fill-opacity="0.4"/>
<path d="M1054.52 531.074H1039.2L1031.43 517.063L1039.2 502.818H1054.52L1062.3 517.063L1054.52 531.074Z" fill="white" fill-opacity="0.4"/>
<path d="M1054.52 566.336H1039.2L1031.43 552.091L1039.2 538.08H1054.52L1062.3 552.091L1054.52 566.336Z" fill="white" fill-opacity="0.4"/>
<path d="M1431.35 20.8265H1415.8L1408.03 6.58167L1415.8 -7.42969H1431.35L1439.12 6.58167L1431.35 20.8265Z" fill="white" fill-opacity="0.4"/>
<path d="M1402.26 38.3412H1386.93L1379.16 24.3298L1386.93 10.085H1402.26L1410.03 24.3298L1402.26 38.3412Z" fill="white" fill-opacity="0.4"/>
<path d="M1369.17 48.3823H1362.07L1358.51 41.8437L1362.07 35.5386H1369.17L1372.72 41.8437L1369.17 48.3823Z" fill="white" fill-opacity="0.4"/>
<path d="M1343.86 72.6683H1329.42L1322.1 59.3575L1329.42 46.2803H1343.86L1351.18 59.3575L1343.86 72.6683Z" fill="white" fill-opacity="0.4"/>
<path d="M1228.17 143.427H1213.29L1205.96 129.882L1213.29 116.338H1228.17L1235.5 129.882L1228.17 143.427Z" fill="white" fill-opacity="0.4"/>
<path d="M1199.52 161.641H1183.98L1176.21 147.397L1183.98 133.385H1199.52L1207.3 147.397L1199.52 161.641Z" fill="white" fill-opacity="0.4"/>
<path d="M1170.44 179.156H1155.11L1147.34 165.145L1155.11 150.9H1170.44L1178.21 165.145L1170.44 179.156Z" fill="white" fill-opacity="0.4"/>
<path d="M1141.57 196.67H1126.02L1118.47 182.659L1126.02 168.647H1141.57L1149.12 182.659L1141.57 196.67Z" fill="white" fill-opacity="0.4"/>
<path d="M1111.81 212.783H1097.82L1090.94 200.173L1097.82 187.563H1111.81L1118.7 200.173L1111.81 212.783Z" fill="white" fill-opacity="0.4"/>
<path d="M1083.61 231.932H1068.07L1060.3 217.92L1068.07 203.675H1083.61L1091.16 217.92L1083.61 231.932Z" fill="white" fill-opacity="0.4"/>
<path d="M1054.52 249.446H1039.2L1031.43 235.434L1039.2 221.423H1054.52L1062.3 235.434L1054.52 249.446Z" fill="white" fill-opacity="0.4"/>
<path d="M1025.66 267.193H1010.11L1002.34 252.948L1010.11 238.937H1025.66L1033.21 252.948L1025.66 267.193Z" fill="white" fill-opacity="0.4"/>
<path d="M1025.66 302.222H1010.11L1002.34 288.211L1010.11 274.199H1025.66L1033.21 288.211L1025.66 302.222Z" fill="white" fill-opacity="0.4"/>
<path d="M1025.66 337.484H1010.11L1002.34 323.472L1010.11 309.228H1025.66L1033.21 323.472L1025.66 337.484Z" fill="white" fill-opacity="0.4"/>
<path d="M1025.66 372.745H1010.11L1002.34 358.5L1010.11 344.488H1025.66L1033.21 358.5L1025.66 372.745Z" fill="white" fill-opacity="0.4"/>
<path d="M1025.66 407.774H1010.11L1002.34 393.763L1010.11 379.751H1025.66L1033.21 393.763L1025.66 407.774Z" fill="white" fill-opacity="0.4"/>
<path d="M1025.66 443.035H1010.11L1002.34 429.024L1010.11 415.013H1025.66L1033.21 429.024L1025.66 443.035Z" fill="white" fill-opacity="0.4"/>
<path d="M1025.66 478.298H1010.11L1002.34 464.286L1010.11 450.042H1025.66L1033.21 464.286L1025.66 478.298Z" fill="white" fill-opacity="0.4"/>
<path d="M1025.66 513.56H1010.11L1002.34 499.315L1010.11 485.304H1025.66L1033.21 499.315L1025.66 513.56Z" fill="white" fill-opacity="0.4"/>
<path d="M1025.66 548.588H1010.11L1002.34 534.577L1010.11 520.565H1025.66L1033.21 534.577L1025.66 548.588Z" fill="white" fill-opacity="0.4"/>
<path d="M1025.66 583.85H1010.11L1002.34 569.839L1010.11 555.594H1025.66L1033.21 569.839L1025.66 583.85Z" fill="white" fill-opacity="0.4"/>
<path d="M1402.26 3.07984H1386.93L1379.16 -10.9315L1386.93 -24.9429H1402.26L1410.03 -10.9315L1402.26 3.07984Z" fill="white" fill-opacity="0.4"/>
<path d="M1368.06 11.2539H1363.18L1360.73 6.58342L1363.18 2.14648H1368.06L1370.5 6.58342L1368.06 11.2539Z" fill="white" fill-opacity="0.4"/>
<path d="M1342.08 34.372H1331.2L1325.65 24.3305L1331.2 14.2891H1342.08L1347.63 24.3305L1342.08 34.372Z" fill="white" fill-opacity="0.4"/>
<path d="M1255.7 87.849H1243.71L1237.72 77.1069L1243.71 66.1313H1255.7L1261.48 77.1069L1255.7 87.849Z" fill="white" fill-opacity="0.4"/>
<path d="M1227.5 106.762H1213.96L1207.3 94.6192L1213.96 82.4761H1227.5L1234.16 94.6192L1227.5 106.762Z" fill="white" fill-opacity="0.4"/>
<path d="M1196.41 121.01H1186.87L1182.2 112.369L1186.87 103.496H1196.41L1201.3 112.369L1196.41 121.01Z" fill="white" fill-opacity="0.4"/>
<path d="M1170.21 143.427H1155.34L1147.79 129.882L1155.34 116.338H1170.21L1177.76 129.882L1170.21 143.427Z" fill="white" fill-opacity="0.4"/>
<path d="M1112.26 178.689H1097.38L1089.83 165.144L1097.38 151.6H1112.26L1119.58 165.144L1112.26 178.689Z" fill="white" fill-opacity="0.4"/>
<path d="M1049.19 204.375H1044.53L1042.31 200.172L1044.53 196.202H1049.19L1051.42 200.172L1049.19 204.375Z" fill="white" fill-opacity="0.4"/>
<path d="M1025.66 231.932H1010.11L1002.34 217.92L1010.11 203.675H1025.66L1033.21 217.92L1025.66 231.932Z" fill="white" fill-opacity="0.4"/>
<path d="M996.569 249.446H981.025L973.475 235.434L981.025 221.423H996.569L1004.34 235.434L996.569 249.446Z" fill="white" fill-opacity="0.4"/>
<path d="M996.569 284.707H981.025L973.475 270.696L981.025 256.451H996.569L1004.34 270.696L996.569 284.707Z" fill="white" fill-opacity="0.4"/>
<path d="M996.569 319.969H981.025L973.475 305.724L981.025 291.713H996.569L1004.34 305.724L996.569 319.969Z" fill="white" fill-opacity="0.4"/>
<path d="M996.569 354.997H981.025L973.475 340.985L981.025 326.974H996.569L1004.34 340.985L996.569 354.997Z" fill="white" fill-opacity="0.4"/>
<path d="M996.569 390.261H981.025L973.475 376.249L981.025 362.238H996.569L1004.34 376.249L996.569 390.261Z" fill="white" fill-opacity="0.4"/>
<path d="M996.569 425.522H981.025L973.475 411.511L981.025 397.266H996.569L1004.34 411.511L996.569 425.522Z" fill="white" fill-opacity="0.4"/>
<path d="M996.569 460.784H981.025L973.475 446.539L981.025 432.528H996.569L1004.34 446.539L996.569 460.784Z" fill="#FF881B"/>
<path d="M996.569 495.812H981.025L973.475 481.8L981.025 467.789H996.569L1004.34 481.8L996.569 495.812Z" fill="white" fill-opacity="0.4"/>
<path d="M996.569 531.074H981.025L973.475 517.063L981.025 502.818H996.569L1004.34 517.063L996.569 531.074Z" fill="white" fill-opacity="0.4"/>
<path d="M996.569 566.336H981.025L973.475 552.091L981.025 538.08H996.569L1004.34 552.091L996.569 566.336Z" fill="#ACA7E9"/>
<path d="M1343.41 1.44431H1329.87L1322.98 -10.9324L1329.87 -23.3091H1343.41L1350.3 -10.9324L1343.41 1.44431Z" fill="white" fill-opacity="0.4"/>
<path d="M1312.33 14.9888H1303L1298.56 6.58198L1303 -1.59131H1312.33L1316.77 6.58198L1312.33 14.9888Z" fill="white" fill-opacity="0.4"/>
<path d="M1286.12 37.6412H1271.25L1263.92 24.3304L1271.25 10.7861H1286.12L1293.45 24.3304L1286.12 37.6412Z" fill="white" fill-opacity="0.4"/>
<path d="M1257.48 55.8552H1241.94L1234.16 41.8439L1241.94 27.8325H1257.48L1265.25 41.8439L1257.48 55.8552Z" fill="white" fill-opacity="0.4"/>
<path d="M1228.39 73.6044H1213.07L1205.3 59.3595L1213.07 45.3481H1228.39L1236.16 59.3595L1228.39 73.6044Z" fill="white" fill-opacity="0.4"/>
<path d="M1195.08 82.9437H1188.42L1185.31 77.1056L1188.42 71.2676H1195.08L1198.19 77.1056L1195.08 82.9437Z" fill="white" fill-opacity="0.4"/>
<path d="M1166.44 101.392H1158.89L1155.34 94.6203L1158.89 87.8481H1166.44L1170.21 94.6203L1166.44 101.392Z" fill="white" fill-opacity="0.4"/>
<path d="M1079.39 154.168H1072.07L1068.51 147.396L1072.07 140.857H1079.39L1083.17 147.396L1079.39 154.168Z" fill="white" fill-opacity="0.4"/>
<path d="M1051.42 173.551H1042.09L1037.43 165.144L1042.09 156.504H1051.42L1056.08 165.144L1051.42 173.551Z" fill="white" fill-opacity="0.4"/>
<path d="M1022.55 191.298H1013L1008.34 182.658L1013 174.018H1022.55L1027.43 182.658L1022.55 191.298Z" fill="white" fill-opacity="0.4"/>
<path d="M991.017 204.142H986.576L984.578 200.172L986.576 196.202H991.017L993.238 200.172L991.017 204.142Z" fill="white" fill-opacity="0.4"/>
<path d="M967.702 231.932H952.158L944.386 217.92L952.158 203.675H967.702L975.251 217.92L967.702 231.932Z" fill="white" fill-opacity="0.4"/>
<path d="M967.702 267.193H952.158L944.386 252.948L952.158 238.937H967.702L975.251 252.948L967.702 267.193Z" fill="white" fill-opacity="0.4"/>
<path d="M967.702 302.222H952.158L944.386 288.211L952.158 274.199H967.702L975.251 288.211L967.702 302.222Z" fill="#E23A45"/>
<path d="M967.702 337.484H952.158L944.386 323.472L952.158 309.228H967.702L975.251 323.472L967.702 337.484Z" fill="white" fill-opacity="0.4"/>
<path d="M967.702 372.745H952.158L944.386 358.5L952.158 344.488H967.702L975.251 358.5L967.702 372.745Z" fill="white" fill-opacity="0.4"/>
<path d="M967.702 407.774H952.158L944.386 393.763L952.158 379.751H967.702L975.251 393.763L967.702 407.774Z" fill="white" fill-opacity="0.4"/>
<path d="M967.702 443.035H952.158L944.386 429.024L952.158 415.013H967.702L975.251 429.024L967.702 443.035Z" fill="white" fill-opacity="0.4"/>
<path d="M967.702 478.298H952.158L944.386 464.286L952.158 450.042H967.702L975.251 464.286L967.702 478.298Z" fill="white" fill-opacity="0.4"/>
<path d="M967.702 513.56H952.158L944.386 499.315L952.158 485.304H967.702L975.251 499.315L967.702 513.56Z" fill="white" fill-opacity="0.4"/>
<path d="M967.702 548.588H952.158L944.386 534.577L952.158 520.565H967.702L975.251 534.577L967.702 548.588Z" fill="white" fill-opacity="0.4"/>
<path d="M967.702 583.85H952.158L944.386 569.839L952.158 555.594H967.702L975.251 569.839L967.702 583.85Z" fill="white" fill-opacity="0.4"/>
<path d="M1286.35 3.07984H1271.02L1263.25 -10.9315L1271.02 -24.9429H1286.35L1294.12 -10.9315L1286.35 3.07984Z" fill="white" fill-opacity="0.4"/>
<path d="M1257.48 20.8265H1241.94L1234.16 6.58167L1241.94 -7.42969H1257.48L1265.25 6.58167L1257.48 20.8265Z" fill="white" fill-opacity="0.4"/>
<path d="M1228.39 38.3412H1213.07L1205.3 24.3298L1213.07 10.085H1228.39L1236.16 24.3298L1228.39 38.3412Z" fill="white" fill-opacity="0.4"/>
<path d="M1198.41 53.987H1185.09L1178.43 41.8438L1185.09 29.7007H1198.41L1205.08 41.8438L1198.41 53.987Z" fill="white" fill-opacity="0.4"/>
<path d="M1168.88 70.8016H1156.67L1150.45 59.359L1156.67 48.1499H1168.88L1175.1 59.359L1168.88 70.8016Z" fill="white" fill-opacity="0.4"/>
<path d="M1135.79 80.6087H1131.8L1129.8 77.1059L1131.8 73.603H1135.79L1137.57 77.1059L1135.79 80.6087Z" fill="white" fill-opacity="0.4"/>
<path d="M1083.61 126.38H1068.07L1060.3 112.368L1068.07 98.1235H1083.61L1091.16 112.368L1083.61 126.38Z" fill="white" fill-opacity="0.4"/>
<path d="M1049.42 134.32H1044.31L1041.87 129.883L1044.31 125.212H1049.42L1051.86 129.883L1049.42 134.32Z" fill="white" fill-opacity="0.4"/>
<path d="M1025.66 161.641H1010.11L1002.34 147.397L1010.11 133.385H1025.66L1033.21 147.397L1025.66 161.641Z" fill="white" fill-opacity="0.4"/>
<path d="M996.569 179.156H981.025L973.475 165.145L981.025 150.9H996.569L1004.34 165.145L996.569 179.156Z" fill="white" fill-opacity="0.4"/>
<path d="M966.591 194.567H953.268L946.607 182.658L953.268 170.515H966.591L973.031 182.658L966.591 194.567Z" fill="white" fill-opacity="0.4"/>
<path d="M937.947 213.015H923.958L916.852 200.171L923.958 187.327H937.947L945.053 200.171L937.947 213.015Z" fill="white" fill-opacity="0.4"/>
<path d="M938.613 249.446H923.069L915.52 235.434L923.069 221.423H938.613L946.385 235.434L938.613 249.446Z" fill="white" fill-opacity="0.4"/>
<path d="M938.613 284.707H923.069L915.52 270.696L923.069 256.451H938.613L946.385 270.696L938.613 284.707Z" fill="white" fill-opacity="0.4"/>
<path d="M938.613 319.969H923.069L915.52 305.724L923.069 291.713H938.613L946.385 305.724L938.613 319.969Z" fill="white" fill-opacity="0.4"/>
<path d="M938.613 354.997H923.069L915.52 340.985L923.069 326.974H938.613L946.385 340.985L938.613 354.997Z" fill="white" fill-opacity="0.4"/>
<path d="M938.613 390.261H923.069L915.52 376.249L923.069 362.238H938.613L946.385 376.249L938.613 390.261Z" fill="white" fill-opacity="0.4"/>
<path d="M938.613 425.522H923.069L915.52 411.511L923.069 397.266H938.613L946.385 411.511L938.613 425.522Z" fill="white" fill-opacity="0.4"/>
<path d="M938.613 460.784H923.069L915.52 446.539L923.069 432.528H938.613L946.385 446.539L938.613 460.784Z" fill="white" fill-opacity="0.4"/>
<path d="M938.613 495.812H923.069L915.52 481.8L923.069 467.789H938.613L946.385 481.8L938.613 495.812Z" fill="white" fill-opacity="0.4"/>
<path d="M938.613 531.074H923.069L915.52 517.063L923.069 502.818H938.613L946.385 517.063L938.613 531.074Z" fill="white" fill-opacity="0.4"/>
<path d="M938.613 566.336H923.069L915.52 552.091L923.069 538.08H938.613L946.385 552.091L938.613 566.336Z" fill="#ACA7E9"/>
<path d="M1228.39 3.07984H1213.07L1205.3 -10.9315L1213.07 -24.9429H1228.39L1236.16 -10.9315L1228.39 3.07984Z" fill="white" fill-opacity="0.4"/>
<path d="M1196.41 14.9888H1187.09L1182.65 6.58198L1187.09 -1.59131H1196.41L1200.86 6.58198L1196.41 14.9888Z" fill="white" fill-opacity="0.4"/>
<path d="M1168.88 35.5383H1156.67L1150.45 24.3292L1156.67 13.1201H1168.88L1175.1 24.3292L1168.88 35.5383Z" fill="white" fill-opacity="0.4"/>
<path d="M1106.93 63.3283H1102.71L1100.71 59.3584L1102.71 55.6221H1106.93L1108.93 59.3584L1106.93 63.3283Z" fill="white" fill-opacity="0.4"/>
<path d="M1082.28 88.7816H1069.4L1062.74 77.1054L1069.4 65.1958H1082.28L1088.72 77.1054L1082.28 88.7816Z" fill="white" fill-opacity="0.4"/>
<path d="M1050.08 100.458H1043.64L1040.31 94.6203L1043.64 88.7822H1050.08L1053.41 94.6203L1050.08 100.458Z" fill="white" fill-opacity="0.4"/>
<path d="M1024.33 124.278H1011.22L1004.78 112.369L1011.22 100.226H1024.33L1030.99 112.369L1024.33 124.278Z" fill="white" fill-opacity="0.4"/>
<path d="M996.569 143.893H981.247L973.475 129.881L981.247 115.87H996.569L1004.12 129.881L996.569 143.893Z" fill="white" fill-opacity="0.4"/>
<path d="M967.702 161.641H952.158L944.386 147.397L952.158 133.385H967.702L975.251 147.397L967.702 161.641Z" fill="white" fill-opacity="0.4"/>
<path d="M937.725 177.52H923.958L917.296 165.143L923.958 152.533H937.725L944.608 165.143L937.725 177.52Z" fill="white" fill-opacity="0.4"/>
<path d="M903.751 185.928H900.198L898.422 182.659L900.198 179.39H903.751L905.527 182.659L903.751 185.928Z" fill="white" fill-opacity="0.4"/>
<path d="M909.746 231.932H894.203L886.431 217.92L894.203 203.675H909.746L917.296 217.92L909.746 231.932Z" fill="white" fill-opacity="0.4"/>
<path d="M909.746 267.193H894.203L886.431 252.948L894.203 238.937H909.746L917.296 252.948L909.746 267.193Z" fill="white" fill-opacity="0.4"/>
<path d="M909.746 302.222H894.203L886.431 288.211L894.203 274.199H909.746L917.296 288.211L909.746 302.222Z" fill="white" fill-opacity="0.4"/>
<path d="M906.374 335H894.791L889 324.587L894.791 314H906.374L912 324.587L906.374 335Z" fill="#69FF97"/>
<path d="M909.746 372.745H894.203L886.431 358.5L894.203 344.488H909.746L917.296 358.5L909.746 372.745Z" fill="white" fill-opacity="0.4"/>
<path d="M909.746 407.774H894.203L886.431 393.763L894.203 379.751H909.746L917.296 393.763L909.746 407.774Z" fill="white" fill-opacity="0.4"/>
<path d="M909.746 443.035H894.203L886.431 429.024L894.203 415.013H909.746L917.296 429.024L909.746 443.035Z" fill="white" fill-opacity="0.4"/>
<path d="M909.746 478.298H894.203L886.431 464.286L894.203 450.042H909.746L917.296 464.286L909.746 478.298Z" fill="white" fill-opacity="0.4"/>
<path d="M909.746 513.56H894.203L886.431 499.315L894.203 485.304H909.746L917.296 499.315L909.746 513.56Z" fill="white" fill-opacity="0.4"/>
<path d="M909.746 548.588H894.203L886.431 534.577L894.203 520.565H909.746L917.296 534.577L909.746 548.588Z" fill="white" fill-opacity="0.4"/>
<path d="M909.746 583.85H894.203L886.431 569.839L894.203 555.594H909.746L917.296 569.839L909.746 583.85Z" fill="#ACA7E9"/>
<path d="M1170.44 3.07984H1155.11L1147.34 -10.9315L1155.11 -24.9429H1170.44L1178.21 -10.9315L1170.44 3.07984Z" fill="white" fill-opacity="0.4"/>
<path d="M1049.19 64.0288H1044.31L1041.87 59.3583L1044.31 54.9214H1049.19L1051.64 59.3583L1049.19 64.0288Z" fill="white" fill-opacity="0.4"/>
<path d="M1025.21 90.416H1010.56L1003.23 77.1052L1010.56 63.7944H1025.21L1032.32 77.1052L1025.21 90.416Z" fill="white" fill-opacity="0.4"/>
<path d="M994.348 104.429H983.468L978.138 94.6209L983.468 84.813H994.348L999.677 94.6209L994.348 104.429Z" fill="white" fill-opacity="0.4"/>
<path d="M967.48 126.38H952.158L944.386 112.368L952.158 98.1235H967.48L975.251 112.368L967.48 126.38Z" fill="white" fill-opacity="0.4"/>
<path d="M938.613 143.893H923.069L915.52 129.881L923.069 115.87H938.613L946.385 129.881L938.613 143.893Z" fill="white" fill-opacity="0.4"/>
<path d="M903.751 150.9H899.976L897.978 147.397L899.976 143.895H903.751L905.749 147.397L903.751 150.9Z" fill="white" fill-opacity="0.4"/>
<path d="M880.658 214.417H865.114L857.564 200.172L865.114 186.161H880.658L888.429 200.172L880.658 214.417Z" fill="white" fill-opacity="0.4"/>
<path d="M880.658 249.446H865.114L857.564 235.434L865.114 221.423H880.658L888.429 235.434L880.658 249.446Z" fill="white" fill-opacity="0.4"/>
<path d="M880.658 284.707H865.114L857.564 270.696L865.114 256.451H880.658L888.429 270.696L880.658 284.707Z" fill="white" fill-opacity="0.4"/>
<path d="M880.658 319.969H865.114L857.564 305.724L865.114 291.713H880.658L888.429 305.724L880.658 319.969Z" fill="white" fill-opacity="0.4"/>
<path d="M880.658 354.997H865.114L857.564 340.985L865.114 326.974H880.658L888.429 340.985L880.658 354.997Z" fill="white" fill-opacity="0.4"/>
<path d="M880.658 390.261H865.114L857.564 376.249L865.114 362.238H880.658L888.429 376.249L880.658 390.261Z" fill="white" fill-opacity="0.4"/>
<path d="M880.658 425.522H865.114L857.564 411.511L865.114 397.266H880.658L888.429 411.511L880.658 425.522Z" fill="white" fill-opacity="0.4"/>
<path d="M880.658 460.784H865.114L857.564 446.539L865.114 432.528H880.658L888.429 446.539L880.658 460.784Z" fill="white" fill-opacity="0.4"/>
<path d="M880.658 495.812H865.114L857.564 481.8L865.114 467.789H880.658L888.429 481.8L880.658 495.812Z" fill="white" fill-opacity="0.4"/>
<path d="M880.658 531.074H865.114L857.564 517.063L865.114 502.818H880.658L888.429 517.063L880.658 531.074Z" fill="white" fill-opacity="0.4"/>
<path d="M880.658 566.336H865.114L857.564 552.091L865.114 538.08H880.658L888.429 552.091L880.658 566.336Z" fill="white" fill-opacity="0.4"/>
<path d="M1020.77 47.2157H1015L1011.89 41.8447L1015 36.4736H1020.77L1023.66 41.8447L1020.77 47.2157Z" fill="white" fill-opacity="0.4"/>
<path d="M990.795 62.8615H987.02L985.022 59.3587L987.02 56.0894H990.795L992.571 59.3587L990.795 62.8615Z" fill="white" fill-opacity="0.4"/>
<path d="M963.261 83.1788H956.599L953.046 77.1072L956.599 71.0356H963.261L966.592 77.1072L963.261 83.1788Z" fill="white" fill-opacity="0.4"/>
<path d="M938.391 108.165H923.513L916.186 94.6205L923.513 81.0762H938.391L945.719 94.6205L938.391 108.165Z" fill="white" fill-opacity="0.4"/>
<path d="M909.746 126.38H894.203L886.431 112.368L894.203 98.1235H909.746L917.296 112.368L909.746 126.38Z" fill="white" fill-opacity="0.4"/>
<path d="M880.658 143.893H865.114L857.564 129.881L865.114 115.87H880.658L888.429 129.881L880.658 143.893Z" fill="white" fill-opacity="0.4"/>
<path d="M848.46 190.831H839.578L834.915 182.658L839.578 174.485H848.46L852.901 182.658L848.46 190.831Z" fill="white" fill-opacity="0.4"/>
<path d="M851.791 231.932H836.247L828.475 217.92L836.247 203.675H851.791L859.341 217.92L851.791 231.932Z" fill="white" fill-opacity="0.4"/>
<path d="M851.791 267.193H836.247L828.475 252.948L836.247 238.937H851.791L859.341 252.948L851.791 267.193Z" fill="white" fill-opacity="0.4"/>
<path d="M851.791 302.222H836.247L828.475 288.211L836.247 274.199H851.791L859.341 288.211L851.791 302.222Z" fill="white" fill-opacity="0.4"/>
<path d="M851.791 337.484H836.247L828.475 323.472L836.247 309.228H851.791L859.341 323.472L851.791 337.484Z" fill="white" fill-opacity="0.4"/>
<path d="M851.791 372.745H836.247L828.475 358.5L836.247 344.488H851.791L859.341 358.5L851.791 372.745Z" fill="white" fill-opacity="0.4"/>
<path d="M851.791 407.774H836.247L828.475 393.763L836.247 379.751H851.791L859.341 393.763L851.791 407.774Z" fill="white" fill-opacity="0.4"/>
<path d="M851.791 443.035H836.247L828.475 429.024L836.247 415.013H851.791L859.341 429.024L851.791 443.035Z" fill="white" fill-opacity="0.4"/>
<path d="M851.791 478.298H836.247L828.475 464.286L836.247 450.042H851.791L859.341 464.286L851.791 478.298Z" fill="white" fill-opacity="0.4"/>
<path d="M851.791 513.56H836.247L828.475 499.315L836.247 485.304H851.791L859.341 499.315L851.791 513.56Z" fill="white" fill-opacity="0.4"/>
<path d="M851.791 548.588H836.247L828.475 534.577L836.247 520.565H851.791L859.341 534.577L851.791 548.588Z" fill="white" fill-opacity="0.4"/>
<path d="M851.791 583.85H836.247L828.475 569.839L836.247 555.594H851.791L859.341 569.839L851.791 583.85Z" fill="white" fill-opacity="0.4"/>
<path d="M904.639 82.0102H899.088L896.423 77.1062L899.088 71.9688H904.639L907.526 77.1062L904.639 82.0102Z" fill="white" fill-opacity="0.4"/>
<path d="M876.883 101.627H869.111L865.114 94.6209L869.111 87.6152H876.883L880.658 94.6209L876.883 101.627Z" fill="white" fill-opacity="0.4"/>
<path d="M822.702 214.417H807.158L799.609 200.172L807.158 186.161H822.702L830.474 200.172L822.702 214.417Z" fill="white" fill-opacity="0.4"/>
<path d="M822.702 249.446H807.158L799.609 235.434L807.158 221.423H822.702L830.474 235.434L822.702 249.446Z" fill="white" fill-opacity="0.4"/>
<path d="M822.702 284.707H807.158L799.609 270.696L807.158 256.451H822.702L830.474 270.696L822.702 284.707Z" fill="white" fill-opacity="0.4"/>
<path d="M822.702 319.969H807.158L799.609 305.724L807.158 291.713H822.702L830.474 305.724L822.702 319.969Z" fill="white" fill-opacity="0.4"/>
<path d="M822.702 354.997H807.158L799.609 340.985L807.158 326.974H822.702L830.474 340.985L822.702 354.997Z" fill="white" fill-opacity="0.4"/>
<path d="M822.702 390.261H807.158L799.609 376.249L807.158 362.238H822.702L830.474 376.249L822.702 390.261Z" fill="white" fill-opacity="0.4"/>
<path d="M822.702 425.522H807.158L799.609 411.511L807.158 397.266H822.702L830.474 411.511L822.702 425.522Z" fill="white" fill-opacity="0.4"/>
<path d="M822.702 460.784H807.158L799.609 446.539L807.158 432.528H822.702L830.474 446.539L822.702 460.784Z" fill="white" fill-opacity="0.4"/>
<path d="M822.702 495.812H807.158L799.609 481.8L807.158 467.789H822.702L830.474 481.8L822.702 495.812Z" fill="white" fill-opacity="0.4"/>
<path d="M822.702 531.074H807.158L799.609 517.063L807.158 502.818H822.702L830.474 517.063L822.702 531.074Z" fill="white" fill-opacity="0.4"/>
<path d="M822.702 566.336H807.158L799.609 552.091L807.158 538.08H822.702L830.474 552.091L822.702 566.336Z" fill="white" fill-opacity="0.4"/>
<path d="M790.949 191.766H780.957L776.071 182.658L780.957 173.551H790.949L796.056 182.658L790.949 191.766Z" fill="white" fill-opacity="0.4"/>
<path d="M793.613 231.932H778.292L770.52 217.92L778.292 203.675H793.613L801.385 217.92L793.613 231.932Z" fill="white" fill-opacity="0.4"/>
<path d="M793.613 267.193H778.292L770.52 252.948L778.292 238.937H793.613L801.385 252.948L793.613 267.193Z" fill="white" fill-opacity="0.4"/>
<path d="M793.613 302.222H778.292L770.52 288.211L778.292 274.199H793.613L801.385 288.211L793.613 302.222Z" fill="white" fill-opacity="0.4"/>
<path d="M793.613 337.484H778.292L770.52 323.472L778.292 309.228H793.613L801.385 323.472L793.613 337.484Z" fill="white" fill-opacity="0.4"/>
<path d="M793.613 372.745H778.292L770.52 358.5L778.292 344.488H793.613L801.385 358.5L793.613 372.745Z" fill="white" fill-opacity="0.4"/>
<path d="M793.613 407.774H778.292L770.52 393.763L778.292 379.751H793.613L801.385 393.763L793.613 407.774Z" fill="white" fill-opacity="0.4"/>
<path d="M793.613 443.035H778.292L770.52 429.024L778.292 415.013H793.613L801.385 429.024L793.613 443.035Z" fill="white" fill-opacity="0.4"/>
<path d="M793.613 478.298H778.292L770.52 464.286L778.292 450.042H793.613L801.385 464.286L793.613 478.298Z" fill="white" fill-opacity="0.4"/>
<path d="M793.613 513.56H778.292L770.52 499.315L778.292 485.304H793.613L801.385 499.315L793.613 513.56Z" fill="white" fill-opacity="0.4"/>
<path d="M793.613 548.588H778.292L770.52 534.577L778.292 520.565H793.613L801.385 534.577L793.613 548.588Z" fill="white" fill-opacity="0.4"/>
<path d="M793.613 583.85H778.292L770.52 569.839L778.292 555.594H793.613L801.385 569.839L793.613 583.85Z" fill="white" fill-opacity="0.4"/>
<path d="M764.747 214.417H749.203L741.653 200.172L749.203 186.161H764.747L772.519 200.172L764.747 214.417Z" fill="white" fill-opacity="0.4"/>
<path d="M764.747 249.446H749.203L741.653 235.434L749.203 221.423H764.747L772.519 235.434L764.747 249.446Z" fill="white" fill-opacity="0.4"/>
<path d="M764.747 284.707H749.203L741.653 270.696L749.203 256.451H764.747L772.519 270.696L764.747 284.707Z" fill="white" fill-opacity="0.4"/>
<path d="M764.747 319.969H749.203L741.653 305.724L749.203 291.713H764.747L772.519 305.724L764.747 319.969Z" fill="white" fill-opacity="0.4"/>
<path d="M764.747 354.997H749.203L741.653 340.985L749.203 326.974H764.747L772.519 340.985L764.747 354.997Z" fill="white" fill-opacity="0.4"/>
<path d="M764.747 390.261H749.203L741.653 376.249L749.203 362.238H764.747L772.519 376.249L764.747 390.261Z" fill="white" fill-opacity="0.4"/>
<path d="M764.302 424.822H749.647L742.319 411.511L749.647 397.967H764.302L771.63 411.511L764.302 424.822Z" fill="white" fill-opacity="0.4"/>
<path d="M762.748 456.813H751.423L745.65 446.538L751.423 436.263H762.748L768.299 446.538L762.748 456.813Z" fill="white" fill-opacity="0.4"/>
<path d="M759.861 486.938H754.31L751.423 481.801L754.31 476.663H759.861L762.526 481.801L759.861 486.938Z" fill="white" fill-opacity="0.4"/>
<path d="M758.751 520.098H755.42L753.644 517.062L755.42 514.026H758.751L760.306 517.062L758.751 520.098Z" fill="white" fill-opacity="0.4"/>
<path d="M759.417 556.762H754.532L751.868 552.091L754.532 547.654H759.417L762.082 552.091L759.417 556.762Z" fill="white" fill-opacity="0.4"/>
<path d="M733.659 192.7H722.557L717.006 182.658L722.557 172.617H733.659L739.211 182.658L733.659 192.7Z" fill="white" fill-opacity="0.4"/>
<path d="M735.658 231.932H720.336L712.565 217.92L720.336 203.675H735.658L743.43 217.92L735.658 231.932Z" fill="white" fill-opacity="0.4"/>
<path d="M735.658 267.193H720.336L712.565 252.948L720.336 238.937H735.658L743.43 252.948L735.658 267.193Z" fill="white" fill-opacity="0.4"/>
<path d="M735.658 302.222H720.336L712.565 288.211L720.336 274.199H735.658L743.43 288.211L735.658 302.222Z" fill="white" fill-opacity="0.4"/>
<path d="M735.658 337.484H720.336L712.565 323.472L720.336 309.228H735.658L743.43 323.472L735.658 337.484Z" fill="white" fill-opacity="0.4"/>
<path d="M735.658 372.745H720.336L712.565 358.5L720.336 344.488H735.658L743.43 358.5L735.658 372.745Z" fill="white" fill-opacity="0.4"/>
<path d="M734.103 404.739H721.891L715.895 393.763L721.891 382.788H734.103L740.099 393.763L734.103 404.739Z" fill="white" fill-opacity="0.4"/>
<path d="M700.574 167.712H697.687L696.133 165.144L697.687 162.341H700.574L701.906 165.144L700.574 167.712Z" fill="white" fill-opacity="0.4"/>
<path d="M706.791 214.417H691.247L683.698 200.172L691.247 186.161H706.791L714.563 200.172L706.791 214.417Z" fill="white" fill-opacity="0.4"/>
<path d="M706.791 249.446H691.247L683.698 235.434L691.247 221.423H706.791L714.563 235.434L706.791 249.446Z" fill="white" fill-opacity="0.4"/>
<path d="M706.791 284.707H691.247L683.698 270.696L691.247 256.451H706.791L714.563 270.696L706.791 284.707Z" fill="white" fill-opacity="0.4"/>
<path d="M706.791 319.969H691.247L683.698 305.724L691.247 291.713H706.791L714.563 305.724L706.791 319.969Z" fill="#392DCA"/>
<path d="M706.791 354.997H691.247L683.698 340.985L691.247 326.974H706.791L714.563 340.985L706.791 354.997Z" fill="white" fill-opacity="0.4"/>
<path d="M704.57 386.291H693.468L687.917 376.249L693.468 366.208H704.57L710.122 376.249L704.57 386.291Z" fill="white" fill-opacity="0.4"/>
<path d="M677.702 196.67H662.381L654.609 182.659L662.381 168.647H677.702L685.474 182.659L677.702 196.67Z" fill="white" fill-opacity="0.4"/>
<path d="M677.702 231.932H662.381L654.609 217.92L662.381 203.675H677.702L685.474 217.92L677.702 231.932Z" fill="white" fill-opacity="0.4"/>
<path d="M677.702 267.193H662.381L654.609 252.948L662.381 238.937H677.702L685.474 252.948L677.702 267.193Z" fill="white" fill-opacity="0.4"/>
<path d="M677.702 302.222H662.381L654.609 288.211L662.381 274.199H677.702L685.474 288.211L677.702 302.222Z" fill="white" fill-opacity="0.4"/>
<path d="M677.702 337.484H662.381L654.609 323.472L662.381 309.228H677.702L685.474 323.472L677.702 337.484Z" fill="white" fill-opacity="0.4"/>
<path d="M672.151 362.238H668.154L666.156 358.502L668.154 354.999H672.151L674.15 358.502L672.151 362.238Z" fill="white" fill-opacity="0.4"/>
<path d="M645.061 172.383H637.067L633.07 165.144L637.067 157.671H645.061L649.28 165.144L645.061 172.383Z" fill="white" fill-opacity="0.4"/>
<path d="M648.836 214.417H633.292L625.52 200.172L633.292 186.161H648.836L656.608 200.172L648.836 214.417Z" fill="white" fill-opacity="0.4"/>
<path d="M648.836 249.446H633.292L625.52 235.434L633.292 221.423H648.836L656.608 235.434L648.836 249.446Z" fill="#96CA7A"/>
<path d="M648.836 284.707H633.292L625.52 270.696L633.292 256.451H648.836L656.608 270.696L648.836 284.707Z" fill="white" fill-opacity="0.4"/>
<path d="M648.836 319.969H633.292L625.52 305.724L633.292 291.713H648.836L656.608 305.724L648.836 319.969Z" fill="white" fill-opacity="0.4"/>
<path d="M648.836 354.997H633.292L625.52 340.985L633.292 326.974H648.836L656.608 340.985L648.836 354.997Z" fill="white" fill-opacity="0.4"/>
<path d="M613.974 150.665H610.421L608.423 147.395L610.421 144.126H613.974L615.75 147.395L613.974 150.665Z" fill="white" fill-opacity="0.4"/>
<path d="M619.747 196.67H604.425L596.654 182.659L604.425 168.647H619.747L627.519 182.659L619.747 196.67Z" fill="white" fill-opacity="0.4"/>
<path d="M619.747 231.932H604.425L596.654 217.92L604.425 203.675H619.747L627.519 217.92L619.747 231.932Z" fill="white" fill-opacity="0.4"/>
<path d="M619.747 267.193H604.425L596.654 252.948L604.425 238.937H619.747L627.519 252.948L619.747 267.193Z" fill="white" fill-opacity="0.4"/>
<path d="M619.747 302.222H604.425L596.654 288.211L604.425 274.199H619.747L627.519 288.211L619.747 302.222Z" fill="white" fill-opacity="0.4"/>
<path d="M619.747 337.484H604.425L596.654 323.472L604.425 309.228H619.747L627.519 323.472L619.747 337.484Z" fill="white" fill-opacity="0.4"/>
<path d="M619.747 372.745H604.425L596.654 358.5L604.425 344.488H619.747L627.519 358.5L619.747 372.745Z" fill="white" fill-opacity="0.4"/>
<path d="M619.747 407.774H604.425L596.654 393.763L604.425 379.751H619.747L627.519 393.763L619.747 407.774Z" fill="white" fill-opacity="0.4"/>
<path d="M589.77 177.054H576.447L570.008 165.144L576.447 153.001H589.77L596.21 165.144L589.77 177.054Z" fill="white" fill-opacity="0.4"/>
<path d="M590.88 214.417H575.337L567.565 200.172L575.337 186.161H590.88L598.652 200.172L590.88 214.417Z" fill="white" fill-opacity="0.4"/>
<path d="M590.88 249.446H575.337L567.565 235.434L575.337 221.423H590.88L598.652 235.434L590.88 249.446Z" fill="white" fill-opacity="0.4"/>
<path d="M590.88 284.707H575.337L567.565 270.696L575.337 256.451H590.88L598.652 270.696L590.88 284.707Z" fill="white" fill-opacity="0.4"/>
<path d="M590.88 319.969H575.337L567.565 305.724L575.337 291.713H590.88L598.652 305.724L590.88 319.969Z" fill="white" fill-opacity="0.4"/>
<path d="M590.88 354.997H575.337L567.565 340.985L575.337 326.974H590.88L598.652 340.985L590.88 354.997Z" fill="white" fill-opacity="0.4"/>
<path d="M590.658 390.027H575.559L567.787 376.249L575.559 362.238H590.658L598.43 376.249L590.658 390.027Z" fill="white" fill-opacity="0.4"/>
<path d="M590.214 424.354H576.003L568.897 411.51L576.003 398.433H590.214L597.32 411.51L590.214 424.354Z" fill="white" fill-opacity="0.4"/>
<path d="M561.791 196.67H546.47L538.698 182.659L546.47 168.647H561.791L569.563 182.659L561.791 196.67Z" fill="white" fill-opacity="0.4"/>
<path d="M560.903 230.298H547.358L540.475 217.921L547.358 205.544H560.903L567.787 217.921L560.903 230.298Z" fill="white" fill-opacity="0.4"/>
<path d="M561.791 267.193H546.47L538.698 252.948L546.47 238.937H561.791L569.563 252.948L561.791 267.193Z" fill="white" fill-opacity="0.4"/>
<path d="M561.791 302.222H546.47L538.698 288.211L546.47 274.199H561.791L569.563 288.211L561.791 302.222Z" fill="white" fill-opacity="0.4"/>
<path d="M561.791 337.484H546.47L538.698 323.472L546.47 309.228H561.791L569.563 323.472L561.791 337.484Z" fill="white" fill-opacity="0.4"/>
<path d="M561.791 372.745H546.47L538.698 358.5L546.47 344.488H561.791L569.563 358.5L561.791 372.745Z" fill="white" fill-opacity="0.4"/>
<path d="M561.791 407.774H546.47L538.698 393.763L546.47 379.751H561.791L569.563 393.763L561.791 407.774Z" fill="white" fill-opacity="0.4"/>
<path d="M526.485 167.479H523.82L522.488 165.144L523.82 162.575H526.485L527.817 165.144L526.485 167.479Z" fill="white" fill-opacity="0.4"/>
<path d="M528.705 206.712H521.6L518.047 200.173L521.6 193.634H528.705L532.48 200.173L528.705 206.712Z" fill="white" fill-opacity="0.4"/>
<path d="M532.703 249.212H517.603L510.054 235.434L517.603 221.656H532.703L540.475 235.434L532.703 249.212Z" fill="white" fill-opacity="0.4"/>
<path d="M531.149 281.672H519.158L512.94 270.696L519.158 259.487H531.149L537.366 270.696L531.149 281.672Z" fill="white" fill-opacity="0.4"/>
<path d="M532.925 319.969H517.381L509.609 305.724L517.381 291.713H532.925L540.697 305.724L532.925 319.969Z" fill="white" fill-opacity="0.4"/>
<path d="M532.925 354.997H517.381L509.609 340.985L517.381 326.974H532.925L540.697 340.985L532.925 354.997Z" fill="white" fill-opacity="0.4"/>
<path d="M532.925 390.261H517.381L509.609 376.249L517.381 362.238H532.925L540.697 376.249L532.925 390.261Z" fill="white" fill-opacity="0.4"/>
<path d="M532.925 425.522H517.381L509.831 411.511L517.381 397.266H532.925L540.474 411.511L532.925 425.522Z" fill="white" fill-opacity="0.4"/>
<path d="M498.729 222.357H493.622L491.179 217.92L493.622 213.25H498.729L501.171 217.92L498.729 222.357Z" fill="white" fill-opacity="0.4"/>
<path d="M503.836 267.193H488.515L480.743 252.948L488.515 238.937H503.836L511.608 252.948L503.836 267.193Z" fill="white" fill-opacity="0.4"/>
<path d="M497.396 290.546H494.954L493.621 288.211L494.954 285.876H497.396L498.729 288.211L497.396 290.546Z" fill="white" fill-opacity="0.4"/>
<path d="M503.836 337.484H488.515L480.743 323.472L488.515 309.228H503.836L511.608 323.472L503.836 337.484Z" fill="white" fill-opacity="0.4"/>
<path d="M503.836 372.745H488.515L480.743 358.5L488.515 344.488H503.836L511.608 358.5L503.836 372.745Z" fill="white" fill-opacity="0.4"/>
<path d="M499.617 400.068H492.733L489.18 393.763L492.733 387.458H499.617L503.17 393.763L499.617 400.068Z" fill="white" fill-opacity="0.4"/>
<path d="M500.505 436.731H491.845L487.626 429.025L491.845 421.319H500.505L504.724 429.025L500.505 436.731Z" fill="white" fill-opacity="0.4"/>
<path d="M502.282 475.496H490.069L483.851 464.287L490.069 453.078H502.282L508.499 464.287L502.282 475.496Z" fill="white" fill-opacity="0.4"/>
<path d="M472.083 244.309H462.313L457.427 235.435L462.313 226.561H472.083L476.968 235.435L472.083 244.309Z" fill="white" fill-opacity="0.4"/>
<path d="M473.193 316.934H461.202L454.985 305.725L461.202 294.749H473.193L479.41 305.725L473.193 316.934Z" fill="white" fill-opacity="0.4"/>
<path d="M474.969 354.997H459.426L451.654 340.985L459.426 326.974H474.969L482.741 340.985L474.969 354.997Z" fill="white" fill-opacity="0.4"/>
<path d="M473.193 387.224H461.202L454.985 376.249L461.202 365.273H473.193L479.41 376.249L473.193 387.224Z" fill="white" fill-opacity="0.4"/>
<path d="M468.974 449.809H465.421L463.645 446.539L465.421 443.503H468.974L470.75 446.539L468.974 449.809Z" fill="white" fill-opacity="0.4"/>
<path d="M471.861 490.207H462.535L457.872 481.8L462.535 473.393H471.861L476.524 481.8L471.861 490.207Z" fill="white" fill-opacity="0.4"/>
<path d="M439.885 326.275H436.554L435 323.473L436.554 320.437H439.885L441.439 323.473L439.885 326.275Z" fill="#EBECF7"/>
<path d="M439.885 467.088H436.554L435 464.286L436.554 461.25H439.885L441.439 464.286L439.885 467.088Z" fill="#EBECF7"/>
<path d="M439.663 502.117H436.777L435.222 499.315L436.777 496.746H439.663L441.218 499.315L439.663 502.117Z" fill="#EBECF7"/>
<path d="M1032.01 217.592L1062.4 236.546C1067.93 239.991 1070.69 241.713 1073.62 242.562C1077.4 243.659 1081.4 243.722 1085.21 242.744C1088.16 241.988 1090.98 240.353 1096.61 237.084V237.084" stroke="url(#paint0_linear_145_2306)" stroke-width="2" stroke-linecap="round"/>
<path opacity="0.6" d="M960.167 258.803L1060.41 317.278" stroke="url(#paint1_linear_145_2306)" stroke-width="2" stroke-linecap="round"/>
<path d="M932.322 117.906L981.372 88.3201C991.225 82.3769 996.152 79.4054 1001.59 79.0949C1002.22 79.059 1002.86 79.0502 1003.49 79.0686C1008.94 79.2272 1013.94 82.0604 1023.96 87.7267V87.7267C1033.7 93.2394 1038.57 95.9958 1043.89 96.2113C1044.5 96.2363 1045.12 96.2353 1045.74 96.2085C1051.05 95.977 1055.91 93.206 1065.64 87.664L1092.71 72.2397" stroke="url(#paint2_linear_145_2306)" stroke-width="2" stroke-linecap="round"/>
<path d="M922.298 331.757L939.287 341.333C947.836 346.152 958.198 346.496 967.048 342.255V342.255C975.044 338.424 984.323 338.316 992.406 341.961L993.023 342.24C1002.44 346.488 1013.35 345.85 1022.21 340.534L1048.22 324.927C1065.3 314.676 1073.85 309.55 1083.31 309.434C1092.77 309.319 1101.44 314.234 1118.77 324.065L1141.19 336.784C1159.34 347.078 1168.41 352.225 1178.27 351.895C1188.13 351.565 1196.84 345.824 1214.26 334.34L1253.66 308.367" stroke="url(#paint3_linear_145_2306)" stroke-width="2" stroke-linecap="round"/>
<path d="M879.973 335.098L875.713 337.761C867.356 342.984 863.178 345.595 858.705 346.427C855.215 347.076 851.624 346.943 848.191 346.037C843.792 344.876 839.819 341.962 831.872 336.134V336.134C824.265 330.556 820.461 327.767 816.239 326.591C812.943 325.674 809.489 325.471 806.108 325.998C801.778 326.673 797.675 328.999 789.469 333.651L616 432" stroke="url(#paint4_linear_145_2306)" stroke-width="2" stroke-linecap="round"/>
<path opacity="0.6" d="M711.788 213.137L779.083 172.352C791.066 165.089 797.058 161.458 803.697 161.424C810.336 161.39 816.365 164.96 828.421 172.101L836.562 176.922C848.494 183.988 854.459 187.522 861.037 187.52C867.614 187.518 873.578 183.981 885.505 176.908L956.826 134.613" stroke="#0CADBD" stroke-width="2" stroke-linecap="round"/>
<path d="M880.53 312.266L657.768 183.621" stroke="url(#paint5_linear_145_2306)" stroke-width="2" stroke-linecap="round"/>
<path d="M920.07 312.823L935.943 303.367C940.602 300.591 942.932 299.203 943.041 297.066C943.15 294.929 940.974 293.31 936.622 290.074L934.089 288.191C929.76 284.972 927.596 283.362 927.699 281.232C927.801 279.102 930.111 277.709 934.729 274.921L956.826 261.587" stroke="#7246EC" stroke-width="2" stroke-linecap="round"/>
<path d="M920.07 312.823L935.943 303.366C940.602 300.591 942.932 299.203 943.041 297.066C943.15 294.928 940.974 293.31 936.622 290.074L934.121 288.215C929.78 284.986 927.609 283.372 927.715 281.238C927.821 279.104 930.142 277.713 934.783 274.932L1053.35 203.887C1058.49 200.808 1061.06 199.269 1061.05 196.996C1061.05 194.723 1058.47 193.196 1053.31 190.142L842.103 65" stroke="url(#paint6_linear_145_2306)" stroke-width="2" stroke-linecap="round"/>
<path d="M925.31 323.961C925.31 327.616 922.882 331.247 918.273 334.069C913.697 336.87 907.249 338.668 900.021 338.668C892.793 338.668 886.345 336.87 881.77 334.069C877.161 331.247 874.733 327.616 874.733 323.961C874.733 320.306 877.161 316.675 881.77 313.853C886.345 311.051 892.793 309.253 900.021 309.253C907.249 309.253 913.697 311.051 918.273 313.853C922.882 316.675 925.31 320.306 925.31 323.961Z" stroke="#69FF97" stroke-width="4"/>
<g filter="url(#filter0_f_145_2306)">
<path d="M925.31 323.961C925.31 327.616 922.882 331.247 918.273 334.069C913.697 336.87 907.249 338.668 900.021 338.668C892.793 338.668 886.345 336.87 881.77 334.069C877.161 331.247 874.733 327.616 874.733 323.961C874.733 320.306 877.161 316.675 881.77 313.853C886.345 311.051 892.793 309.253 900.021 309.253C907.249 309.253 913.697 311.051 918.273 313.853C922.882 316.675 925.31 320.306 925.31 323.961Z" stroke="#69FF97" stroke-width="4"/>
</g>
<ellipse cx="991.153" cy="240.346" rx="8.91047" ry="6.12595" fill="#69FF97"/>
<g filter="url(#filter1_f_145_2306)">
<ellipse cx="991.153" cy="240.346" rx="8.91047" ry="6.12595" fill="#69FF97"/>
</g>
<ellipse cx="730.117" cy="369.094" rx="8.91047" ry="6.12595" fill="#69FF97"/>
<g filter="url(#filter2_f_145_2306)">
<ellipse cx="730.117" cy="369.094" rx="8.91047" ry="6.12595" fill="#69FF97"/>
</g>
<path d="M1073.59 316.188C1073.59 317.772 1072.63 319.451 1070.57 320.825C1068.52 322.19 1065.58 323.099 1062.23 323.099C1058.88 323.099 1055.93 322.19 1053.88 320.825C1051.82 319.451 1050.86 317.772 1050.86 316.188C1050.86 314.605 1051.82 312.926 1053.88 311.552C1055.93 310.187 1058.88 309.278 1062.23 309.278C1065.58 309.278 1068.52 310.187 1070.57 311.552C1072.63 312.926 1073.59 314.605 1073.59 316.188Z" stroke="#7246EC" stroke-width="4"/>
<g filter="url(#filter3_f_145_2306)">
<path d="M1073.59 316.188C1073.59 317.772 1072.63 319.451 1070.57 320.825C1068.52 322.19 1065.58 323.099 1062.23 323.099C1058.88 323.099 1055.93 322.19 1053.88 320.825C1051.82 319.451 1050.86 317.772 1050.86 316.188C1050.86 314.605 1051.82 312.926 1053.88 311.552C1055.93 310.187 1058.88 309.278 1062.23 309.278C1065.58 309.278 1068.52 310.187 1070.57 311.552C1072.63 312.926 1073.59 314.605 1073.59 316.188Z" stroke="#7246EC" stroke-width="4"/>
</g>
<ellipse cx="981.887" cy="146.865" rx="17.8209" ry="11.1381" fill="#07BCCE" fill-opacity="0.6"/>
<ellipse cx="981.886" cy="146.865" rx="13.3657" ry="7.79666" fill="#69FE97"/>
<g filter="url(#filter4_f_145_2306)">
<ellipse cx="981.886" cy="146.865" rx="13.3657" ry="7.79666" fill="#69FE97"/>
</g>
<ellipse cx="981.886" cy="146.865" rx="8.91047" ry="4.45524" fill="#5468E4"/>
<path d="M992.878 125.813L992.878 125.812C999.07 119.62 999.07 109.581 992.878 103.389C986.686 97.1968 976.647 97.1968 970.455 103.389C964.263 109.581 964.263 119.62 970.455 125.812L970.583 125.685L970.455 125.812C970.988 126.345 971.65 126.999 972.44 127.775L972.441 127.776L978.726 133.889L978.726 133.89C980.366 135.476 982.968 135.476 984.608 133.89C987.121 131.46 989.165 129.473 990.74 127.926L990.741 127.926L992.878 125.813ZM972.619 105.553C977.616 100.556 985.717 100.556 990.714 105.553C995.711 110.55 995.711 118.651 990.714 123.648C990.143 124.219 989.435 124.919 988.592 125.747C988.591 125.747 988.591 125.747 988.591 125.747L982.48 131.69C982.48 131.69 982.48 131.69 982.48 131.69C982.027 132.129 981.307 132.128 980.854 131.69C978.622 129.532 976.769 127.731 975.295 126.289C975.295 126.288 975.295 126.288 975.295 126.288L972.619 123.648C972.619 123.648 972.619 123.647 972.619 123.647C967.623 118.65 967.623 110.549 972.619 105.553ZM987.25 115.096C987.25 112.012 984.75 109.512 981.667 109.512C978.583 109.512 976.083 112.012 976.083 115.096C976.083 118.179 978.583 120.679 981.667 120.679C984.75 120.679 987.25 118.179 987.25 115.096ZM979.144 115.096C979.144 113.702 980.273 112.573 981.667 112.573C983.06 112.573 984.19 113.702 984.19 115.096C984.19 116.489 983.06 117.619 981.667 117.619C980.273 117.619 979.144 116.489 979.144 115.096Z" fill="url(#paint7_linear_145_2306)" stroke="url(#paint8_linear_145_2306)" stroke-width="0.36"/>
</g>
<g opacity="0.6" clip-path="url(#clip1_145_2306)">
<path d="M1558.59 1.34387L1668.7 98.3917L1628.86 133.503L1648.9 151.168L1709.15 98.8279L1595.33 -1.81836" stroke="#0877A2" stroke-width="4" stroke-miterlimit="10" stroke-linecap="round" stroke-linejoin="round"/>
<path d="M1303.12 467.827L1383.04 538.16L1462.47 467.827L1482.38 485.383L1422.75 538.16L1462.71 573.489L1482.51 555.715L1462.71 538.16" stroke="#0877A2" stroke-width="4" stroke-miterlimit="10" stroke-linecap="round" stroke-linejoin="round"/>
<path d="M1533.72 15.7378L1628.24 98.6101" stroke="#0877A2" stroke-width="4" stroke-miterlimit="10" stroke-linecap="round" stroke-linejoin="round"/>
<path d="M1580.74 543.612L1620.7 508.609L1660.66 543.83L1640.49 561.167L1620.45 543.503L1580.74 578.723" stroke="#0877A2" stroke-width="4" stroke-miterlimit="10" stroke-linecap="round" stroke-linejoin="round"/>
<path d="M1913.28 275.259L1794.02 380.376L1773.85 363.038L1853.53 292.815L1793.52 240.147L1773.48 257.594L1813.69 292.815L1614.51 468.373L1728.45 568.583" stroke="#0877A2" stroke-width="4" stroke-miterlimit="10" stroke-linecap="round" stroke-linejoin="round"/>
<path d="M1913.28 521.039L1833.61 450.815L1773.36 503.156L1793.77 521.039L1833.61 485.927L1873.44 521.039L1818.76 568.581" stroke="#0877A2" stroke-width="4" stroke-miterlimit="10" stroke-linecap="round" stroke-linejoin="round"/>
<path d="M1804.16 565.421L1694.18 468.373L1734.02 433.262L1713.97 415.597L1653.73 467.937L1767.54 568.583" stroke="#0877A2" stroke-width="4" stroke-miterlimit="10" stroke-linecap="round" stroke-linejoin="round"/>
<path d="M1913.28 450.818L1833.36 380.376L1853.53 363.038L1873.32 380.703L1913.28 345.374" stroke="#0877A2" stroke-width="4" stroke-miterlimit="10" stroke-linecap="round" stroke-linejoin="round"/>
<path d="M1913.28 485.928L1833.36 415.596L1753.94 485.928L1734.02 468.372L1793.65 415.596L1753.81 380.375L1733.89 398.04L1753.81 415.596" stroke="#0877A2" stroke-width="4" stroke-miterlimit="10" stroke-linecap="round" stroke-linejoin="round"/>
<path d="M1913.28 240.04L1873.32 275.042L1793.15 204.056L1653.73 328.364L1694.18 363.04L1773.85 292.816" stroke="#0877A2" stroke-width="4" stroke-miterlimit="10" stroke-linecap="round" stroke-linejoin="round"/>
<path d="M1913.28 205.036L1873.32 239.929L1833.36 204.708L1853.53 187.48L1873.57 205.145L1913.28 169.924" stroke="#0877A2" stroke-width="4" stroke-miterlimit="10" stroke-linecap="round" stroke-linejoin="round"/>
<path d="M1873.57 345.372L1913.28 310.261" stroke="#0877A2" stroke-width="4" stroke-miterlimit="10" stroke-linecap="round" stroke-linejoin="round"/>
<path d="M1913.28 134.702L1873.32 169.705L1853.4 152.258L1813.69 187.479L1793.77 169.923L1913.28 64.479" stroke="#0877A2" stroke-width="4" stroke-miterlimit="10" stroke-linecap="round" stroke-linejoin="round"/>
<path d="M1773.85 187.478L1713.85 134.593L1734.02 117.146L1773.85 152.367L1913.28 29.3667" stroke="#0877A2" stroke-width="4" stroke-miterlimit="10" stroke-linecap="round" stroke-linejoin="round"/>
<path d="M1813.57 81.9266L1773.85 117.147L1694.3 47.1421L1728.82 15.7378" stroke="#0877A2" stroke-width="4" stroke-miterlimit="10" stroke-linecap="round" stroke-linejoin="round"/>
<path d="M1733.77 47.142L1773.85 82.0357L1813.56 46.2697L1833.36 64.1527L1888.41 15.7378" stroke="#0877A2" stroke-width="4" stroke-miterlimit="10" stroke-linecap="round" stroke-linejoin="round"/>
</g>
<g opacity="0.6" clip-path="url(#clip2_145_2306)">
<path d="M-1.38239 319.025L124.961 202.714L146.171 221.898L61.8546 299.6L125.354 357.876L146.694 338.571L104.013 299.6L314.934 105.226L194.351 -5.65527" stroke="#0877A2" stroke-width="4" stroke-miterlimit="10" stroke-linecap="round" stroke-linejoin="round"/>
<path d="M-1.38239 46.9499L83.0646 124.651L146.694 66.7372L125.092 46.9499L82.9336 85.8005L40.7756 46.9499L98.7756 -5.65527" stroke="#0877A2" stroke-width="4" stroke-miterlimit="10" stroke-linecap="round" stroke-linejoin="round"/>
<path d="M114.091 -2.03565L230.483 105.226L188.325 144.076L209.535 163.743L273.296 105.829L152.845 -5.65527" stroke="#0877A2" stroke-width="4" stroke-miterlimit="10" stroke-linecap="round" stroke-linejoin="round"/>
<path d="M279.452 -5.65527L378.038 85.6799L357.483 105.346L378.038 124.772L441.406 66.3752L399.248 27.5246L435.646 -5.65527" stroke="#0877A2" stroke-width="4" stroke-miterlimit="10" stroke-linecap="round" stroke-linejoin="round"/>
<path d="M-1.25226 124.774L83.1947 202.717L61.8538 221.901L41.0367 202.234L-1.25226 241.326" stroke="#0877A2" stroke-width="4" stroke-miterlimit="10" stroke-linecap="round" stroke-linejoin="round"/>
<path d="M-1.38239 85.8027L83.1955 163.745L167.25 85.8027L188.329 105.228L125.223 163.745L167.512 202.717L188.46 183.05L167.381 163.745" stroke="#0877A2" stroke-width="4" stroke-miterlimit="10" stroke-linecap="round" stroke-linejoin="round"/>
<path d="M355.652 533.549L440.099 611.491L418.758 630.555L397.941 611.009L355.652 650.101" stroke="#0877A2" stroke-width="4" stroke-miterlimit="10" stroke-linecap="round" stroke-linejoin="round"/>
<path d="M355.522 494.577L440.099 572.399L524.154 494.577L545.233 514.002L482.127 572.399L524.416 611.49L545.364 591.824L524.416 572.399" stroke="#0877A2" stroke-width="4" stroke-miterlimit="10" stroke-linecap="round" stroke-linejoin="round"/>
<path d="M236.245 -5.65527L336.141 86.0418" stroke="#0877A2" stroke-width="4" stroke-miterlimit="10" stroke-linecap="round" stroke-linejoin="round"/>
<path d="M-1.25226 357.877L41.0367 319.147L125.745 397.814L273.299 260.147L230.486 221.9L146.17 299.601" stroke="#0877A2" stroke-width="4" stroke-miterlimit="10" stroke-linecap="round" stroke-linejoin="round"/>
<path d="M-1.38239 396.729L41.0375 358L83.1955 396.971L61.8546 416.155L40.6447 396.609L-1.38239 435.58" stroke="#0877A2" stroke-width="4" stroke-miterlimit="10" stroke-linecap="round" stroke-linejoin="round"/>
<path d="M272.513 582.293L314.933 543.563L357.222 582.534L335.75 601.718L314.671 582.172L272.513 621.144" stroke="#0877A2" stroke-width="4" stroke-miterlimit="10" stroke-linecap="round" stroke-linejoin="round"/>
<path d="M167.25 319.752L230.487 260.752" stroke="#0877A2" stroke-width="4" stroke-miterlimit="10" stroke-linecap="round" stroke-linejoin="round"/>
<path d="M40.6439 241.326L-1.25226 280.176" stroke="#0877A2" stroke-width="4" stroke-miterlimit="10" stroke-linecap="round" stroke-linejoin="round"/>
<path d="M320.824 -5.65527L399.249 66.3752" stroke="#0877A2" stroke-width="4" stroke-miterlimit="10" stroke-linecap="round" stroke-linejoin="round"/>
<path d="M-1.25226 474.549L40.9058 435.699L61.9848 455.124L104.012 416.153L125.091 435.578L-1.25226 552.251" stroke="#0877A2" stroke-width="4" stroke-miterlimit="10" stroke-linecap="round" stroke-linejoin="round"/>
<path d="M146.17 416.153L209.669 474.67L188.328 493.854L146.17 455.003L-1.25226 591.101" stroke="#0877A2" stroke-width="4" stroke-miterlimit="10" stroke-linecap="round" stroke-linejoin="round"/>
<path d="M104.144 532.823L146.171 493.852L230.356 571.433L193.828 606.06" stroke="#0877A2" stroke-width="4" stroke-miterlimit="10" stroke-linecap="round" stroke-linejoin="round"/>
<path d="M188.592 571.434L146.173 532.704L104.145 572.279L83.1974 552.612L24.9355 606.062" stroke="#0877A2" stroke-width="4" stroke-miterlimit="10" stroke-linecap="round" stroke-linejoin="round"/>
<path d="M209.803 513.639L252.615 552.973L315.198 493.852" stroke="#0877A2" stroke-width="4" stroke-miterlimit="10" stroke-linecap="round" stroke-linejoin="round"/>
</g>
<defs>
<filter id="filter0_f_145_2306" x="868.733" y="303.253" width="62.5767" height="41.4141" filterUnits="userSpaceOnUse" color-interpolation-filters="sRGB">
<feFlood flood-opacity="0" result="BackgroundImageFix"/>
<feBlend mode="normal" in="SourceGraphic" in2="BackgroundImageFix" result="shape"/>
<feGaussianBlur stdDeviation="2" result="effect1_foregroundBlur_145_2306"/>
</filter>
<filter id="filter1_f_145_2306" x="978.243" y="230.22" width="25.8209" height="20.252" filterUnits="userSpaceOnUse" color-interpolation-filters="sRGB">
<feFlood flood-opacity="0" result="BackgroundImageFix"/>
<feBlend mode="normal" in="SourceGraphic" in2="BackgroundImageFix" result="shape"/>
<feGaussianBlur stdDeviation="2" result="effect1_foregroundBlur_145_2306"/>
</filter>
<filter id="filter2_f_145_2306" x="717.206" y="358.968" width="25.821" height="20.252" filterUnits="userSpaceOnUse" color-interpolation-filters="sRGB">
<feFlood flood-opacity="0" result="BackgroundImageFix"/>
<feBlend mode="normal" in="SourceGraphic" in2="BackgroundImageFix" result="shape"/>
<feGaussianBlur stdDeviation="2" result="effect1_foregroundBlur_145_2306"/>
</filter>
<filter id="filter3_f_145_2306" x="1040.86" y="299.278" width="42.7314" height="33.8208" filterUnits="userSpaceOnUse" color-interpolation-filters="sRGB">
<feFlood flood-opacity="0" result="BackgroundImageFix"/>
<feBlend mode="normal" in="SourceGraphic" in2="BackgroundImageFix" result="shape"/>
<feGaussianBlur stdDeviation="4" result="effect1_foregroundBlur_145_2306"/>
</filter>
<filter id="filter4_f_145_2306" x="960.521" y="131.068" width="42.7314" height="31.5933" filterUnits="userSpaceOnUse" color-interpolation-filters="sRGB">
<feFlood flood-opacity="0" result="BackgroundImageFix"/>
<feBlend mode="normal" in="SourceGraphic" in2="BackgroundImageFix" result="shape"/>
<feGaussianBlur stdDeviation="4" result="effect1_foregroundBlur_145_2306"/>
</filter>
<linearGradient id="paint0_linear_145_2306" x1="1033.12" y1="217.035" x2="1099.95" y2="236.527" gradientUnits="userSpaceOnUse">
<stop stop-color="#07BCCE"/>
<stop offset="0.739583" stop-color="#07BCCE"/>
<stop offset="1" stop-color="#07BCCE" stop-opacity="0"/>
</linearGradient>
<linearGradient id="paint1_linear_145_2306" x1="961.895" y1="257.699" x2="1068.84" y2="282.13" gradientUnits="userSpaceOnUse">
<stop stop-color="#07BCCE"/>
<stop offset="1" stop-color="#07BCCE"/>
</linearGradient>
<linearGradient id="paint2_linear_145_2306" x1="1093.27" y1="72.2398" x2="935.663" y2="117.349" gradientUnits="userSpaceOnUse">
<stop stop-color="#07BCCE" stop-opacity="0"/>
<stop offset="0.213542" stop-color="#07BCCE"/>
<stop offset="1" stop-color="#07BCCE"/>
</linearGradient>
<linearGradient id="paint3_linear_145_2306" x1="922.855" y1="330.644" x2="1253.66" y2="303.912" gradientUnits="userSpaceOnUse">
<stop stop-color="#07BCCE"/>
<stop offset="0.71875" stop-color="#7246EC"/>
<stop offset="1" stop-color="#7246EC" stop-opacity="0"/>
</linearGradient>
<linearGradient id="paint4_linear_145_2306" x1="880.53" y1="335.098" x2="616.557" y2="432" gradientUnits="userSpaceOnUse">
<stop stop-color="#7246EC"/>
<stop offset="0.723958" stop-color="#7246EC"/>
<stop offset="1" stop-color="#7246EC" stop-opacity="0"/>
</linearGradient>
<linearGradient id="paint5_linear_145_2306" x1="657.768" y1="183.621" x2="880.53" y2="312.823" gradientUnits="userSpaceOnUse">
<stop stop-color="#07BCCE" stop-opacity="0"/>
<stop offset="0.208333" stop-color="#07BCCE"/>
<stop offset="1" stop-color="#07BCCE"/>
</linearGradient>
<linearGradient id="paint6_linear_145_2306" x1="846.559" y1="65.5569" x2="953.484" y2="312.823" gradientUnits="userSpaceOnUse">
<stop stop-color="#07BCCE" stop-opacity="0"/>
<stop offset="0.28021" stop-color="#07BCCE"/>
<stop offset="1" stop-color="#07BCCE"/>
</linearGradient>
<linearGradient id="paint7_linear_145_2306" x1="981.667" y1="98.9248" x2="981.667" y2="134.899" gradientUnits="userSpaceOnUse">
<stop stop-color="#69FE97"/>
<stop offset="1" stop-color="#07BCCE"/>
</linearGradient>
<linearGradient id="paint8_linear_145_2306" x1="981.667" y1="98.9248" x2="981.667" y2="134.899" gradientUnits="userSpaceOnUse">
<stop stop-color="#69FE97"/>
<stop offset="1" stop-color="#69FE97" stop-opacity="0"/>
</linearGradient>
<clipPath id="clip0_145_2306">
<rect width="981" height="678" fill="white" transform="translate(435 -95)"/>
</clipPath>
<clipPath id="clip1_145_2306">
<rect width="433" height="615" fill="white" transform="translate(1483 -4)"/>
</clipPath>
<clipPath id="clip2_145_2306">
<rect width="580" height="659" fill="white" transform="translate(-4 -6)"/>
</clipPath>
</defs>
</svg>
