<svg width="17" height="18" viewBox="0 0 17 18" fill="none" xmlns="http://www.w3.org/2000/svg">
<path d="M15.2 14L15.887 14.7633L14.423 16.39L13.223 15.0567L11 17.53L11.423 18L13.223 16L14.423 17.3333L16.313 15.2367L17 16V14H15.2Z" fill="#0877A2"/>
<path fill-rule="evenodd" clip-rule="evenodd" d="M12.7071 0.292893C12.3166 -0.0976311 11.6834 -0.0976311 11.2929 0.292893C10.9024 0.683418 10.9024 1.31658 11.2929 1.70711L12.5858 3H1.00003C0.447744 3 2.91966e-05 3.44772 2.91966e-05 4V7C2.91966e-05 7.55228 0.447744 8 1.00003 8C1.55231 8 2.00003 7.55228 2.00003 7V5H15C15.4045 5 15.7691 4.75636 15.9239 4.38268C16.0787 4.00901 15.9931 3.57889 15.7071 3.29289L12.7071 0.292893ZM9.00003 7C9.00003 6.62123 8.78603 6.27496 8.44724 6.10557C8.10846 5.93618 7.70305 5.97274 7.40003 6.2L5.40003 7.7C4.9582 8.03137 4.86866 8.65817 5.20003 9.1C5.5314 9.54183 6.1582 9.63137 6.60003 9.3L7.00003 9V11C7.00003 11.5523 7.44774 12 8.00003 12C8.55231 12 9.00003 11.5523 9.00003 11V7ZM16 12.5351V11C16 10.4477 15.5523 10 15 10C14.4477 10 14 10.4477 14 11V12C14.7286 12 15.4117 12.1948 16 12.5351ZM10.126 15C10.3284 14.2138 10.7638 13.5211 11.3542 13H1.00003C0.595567 13 0.230931 13.2436 0.0761497 13.6173C-0.0786313 13.991 0.00692444 14.4211 0.292922 14.7071L3.29292 17.7071C3.68345 18.0976 4.31661 18.0976 4.70714 17.7071C5.09766 17.3166 5.09766 16.6834 4.70714 16.2929L3.41424 15H10.126Z" fill="#0877A2"/>
</svg>
