<svg width="20" height="20" viewBox="0 0 20 20" fill="none" xmlns="http://www.w3.org/2000/svg">
<path d="M2.11169 0.736471C2.24375 0.512613 2.43387 0.326681 2.66291 0.197393C2.89195 0.0681047 3.15182 2.24232e-05 3.41637 0H7.23524C7.77253 0 8.27127 0.28 8.53871 0.736471L10.4493 3.97176C10.5811 4.19504 10.6504 4.4482 10.6504 4.70588C10.6504 4.96356 10.5811 5.21672 10.4493 5.44L8.54112 8.67529C8.40906 8.89915 8.21894 9.08508 7.9899 9.21437C7.76086 9.34366 7.50099 9.41174 7.23644 9.41177H3.41757C3.15303 9.41174 2.89315 9.34366 2.66412 9.21437C2.43508 9.08508 2.24496 8.89915 2.1129 8.67529L0.202257 5.44C0.0705371 5.21672 0.0012046 4.96356 0.0012046 4.70588C0.0012046 4.4482 0.0705371 4.19504 0.202257 3.97176L2.11169 0.736471ZM12.766 5.29412C12.2275 5.29412 11.7299 5.57529 11.4613 6.03059L9.55065 9.26588C9.41893 9.48916 9.3496 9.74232 9.3496 10C9.3496 10.2577 9.41893 10.5108 9.55065 10.7341L11.4613 13.9694C11.5934 14.1933 11.7835 14.3792 12.0125 14.5085C12.2415 14.6378 12.5014 14.7059 12.766 14.7059H16.5848C16.8492 14.7057 17.1088 14.6375 17.3376 14.5082C17.5664 14.3789 17.7564 14.1931 17.8883 13.9694L19.7989 10.7341C19.9307 10.5108 20 10.2577 20 10C20 9.74232 19.9307 9.48916 19.7989 9.26588L17.8883 6.03059C17.7562 5.80673 17.5661 5.6208 17.3371 5.49151C17.1081 5.36222 16.8482 5.29414 16.5836 5.29412H12.766ZM2.11169 11.3247C2.24375 11.1008 2.43387 10.9149 2.66291 10.7856C2.89195 10.6563 3.15182 10.5883 3.41637 10.5882H7.23524C7.77253 10.5882 8.27127 10.8694 8.53871 11.3247L10.4493 14.56C10.5811 14.7833 10.6504 15.0364 10.6504 15.2941C10.6504 15.5518 10.5811 15.805 10.4493 16.0282L8.53992 19.2635C8.40785 19.4874 8.21773 19.6733 7.9887 19.8026C7.75966 19.9319 7.49978 20 7.23524 20H3.41637C3.15182 20 2.89195 19.9319 2.66291 19.8026C2.43387 19.6733 2.24375 19.4874 2.11169 19.2635L0.201053 16.0282C0.0693325 15.805 0 15.5518 0 15.2941C0 15.0364 0.0693325 14.7833 0.201053 14.56L2.11169 11.3247Z" fill="#0877A2"/>
</svg>
