<svg width="897" height="840" viewBox="0 0 897 840" fill="none" xmlns="http://www.w3.org/2000/svg">
<path d="M403.904 62.2552C403.904 62.2552 370.001 236.454 175.053 243.337C-19.8956 250.219 -73.2424 530.674 124.661 582.766C322.565 634.858 225.07 769.677 355.332 796.982C503.385 828.016 505.222 609.557 608.174 606.045C835.393 598.295 952.976 494.505 870.803 410.322C726.559 262.548 652.246 286.369 657.292 168.276C662.337 50.1838 448.887 -80.0534 403.904 62.2552Z" fill="#0877A2" fill-opacity="0.12"/>
<g clip-path="url(#clip0_142_12427)">
<path d="M721.092 576.618H689.216V577.033H721.092V576.618Z" fill="#1B0101"/>
<path d="M214.645 579.409H204.13V579.824H214.645V579.409Z" fill="#1B0101"/>
<path d="M349.143 110.984C349.143 108.856 349.988 106.815 351.492 105.311C352.997 103.806 355.038 102.961 357.166 102.961C357.943 102.957 358.716 103.075 359.458 103.309C359.344 102.489 359.288 101.662 359.292 100.834C359.292 96.3276 361.082 92.0054 364.269 88.8186C367.456 85.6319 371.778 83.8415 376.285 83.8415C377.332 83.8481 378.378 83.9482 379.408 84.1405C381.081 81.3855 383.605 79.2498 386.6 78.056C389.594 76.8622 392.895 76.675 396.005 77.5229C399.115 78.3707 401.865 80.2074 403.839 82.7557C405.813 85.304 406.905 88.4255 406.948 91.6486H407.197C410.828 91.6486 414.309 93.0907 416.876 95.6576C419.443 98.2244 420.885 101.706 420.885 105.336C420.885 108.966 419.443 112.447 416.876 115.014C414.309 117.581 410.828 119.023 407.197 119.023H356.933C354.844 118.959 352.863 118.083 351.409 116.582C349.954 115.081 349.142 113.073 349.143 110.984Z" fill="#3AAEDB"/>
<path d="M462.328 152.278C462.328 151.212 462.752 150.189 463.506 149.435C464.259 148.681 465.282 148.258 466.348 148.258C466.737 148.259 467.124 148.321 467.494 148.441C467.441 148.027 467.413 147.611 467.411 147.195C467.411 144.944 468.305 142.785 469.897 141.193C471.489 139.601 473.648 138.707 475.899 138.707C476.429 138.706 476.957 138.756 477.477 138.856C478.31 137.474 479.57 136.402 481.068 135.802C482.565 135.202 484.217 135.108 485.774 135.532C487.33 135.957 488.705 136.878 489.69 138.156C490.675 139.433 491.216 140.997 491.231 142.61H491.364C493.179 142.61 494.92 143.331 496.203 144.615C497.486 145.898 498.208 147.639 498.208 149.454C498.208 151.269 497.486 153.01 496.203 154.293C494.92 155.577 493.179 156.298 491.364 156.298H466.149C465.117 156.246 464.145 155.8 463.434 155.052C462.723 154.304 462.327 153.31 462.328 152.278Z" fill="#3AAEDB"/>
<path d="M688.767 287.242C688.767 286.175 689.19 285.153 689.944 284.399C690.698 283.645 691.72 283.222 692.786 283.222C693.174 283.226 693.56 283.281 693.933 283.388C693.879 282.98 693.851 282.57 693.85 282.159C693.85 279.907 694.744 277.748 696.336 276.157C697.927 274.565 700.086 273.671 702.338 273.671C702.867 273.669 703.396 273.719 703.916 273.82C704.748 272.438 706.009 271.366 707.506 270.766C709.004 270.166 710.656 270.072 712.212 270.496C713.768 270.921 715.143 271.842 716.128 273.12C717.113 274.397 717.654 275.961 717.669 277.574H717.802C719.617 277.574 721.358 278.295 722.642 279.579C723.925 280.862 724.646 282.603 724.646 284.418C724.646 286.233 723.925 287.974 722.642 289.257C721.358 290.54 719.617 291.261 717.802 291.261H692.67C691.624 291.231 690.631 290.794 689.903 290.044C689.174 289.293 688.766 288.288 688.767 287.242Z" fill="#5C9040"/>
<path d="M585.399 121.598C585.397 120.908 585.531 120.223 585.793 119.585C586.056 118.946 586.443 118.365 586.93 117.876C587.418 117.387 587.997 116.999 588.635 116.734C589.273 116.469 589.957 116.333 590.648 116.333C591.161 116.332 591.67 116.41 592.159 116.565C592.085 116.015 592.046 115.46 592.043 114.904C592.041 113.44 592.328 111.99 592.887 110.636C593.446 109.283 594.267 108.053 595.303 107.018C596.338 105.983 597.568 105.162 598.921 104.602C600.274 104.043 601.725 103.756 603.189 103.758C603.875 103.757 604.559 103.824 605.232 103.958C606.331 102.146 607.991 100.742 609.961 99.96C611.93 99.1777 614.101 99.0595 616.144 99.6233C618.187 100.187 619.99 101.402 621.279 103.084C622.568 104.765 623.274 106.822 623.288 108.941H623.454C625.768 109.04 627.955 110.03 629.557 111.703C631.16 113.376 632.054 115.603 632.054 117.919C632.054 120.236 631.16 122.463 629.557 124.135C627.955 125.808 625.768 126.798 623.454 126.897H590.498C589.124 126.858 587.819 126.281 586.865 125.29C585.912 124.299 585.385 122.974 585.399 121.598Z" fill="#3AAEDB"/>
<path d="M738.566 297.208C738.79 296.389 738.918 295.548 738.948 294.7C739.264 289.5 744.231 290.314 748.467 289.617C751.789 289.068 743.018 280.713 749.679 277.989C750.969 277.632 752.1 276.848 752.885 275.763C753.227 274.947 753.27 274.035 753.006 273.19C752.741 272.345 752.187 271.621 751.44 271.145C749.942 270.236 748.208 269.791 746.457 269.866C745.36 268.554 746.241 266.544 747.304 265.215C748.367 263.886 749.629 262.325 749.231 260.664C748.633 258.156 745.128 258.073 742.586 258.554C741.883 256.92 741.424 255.19 741.224 253.422C740.759 251.761 739.397 249.884 737.62 250.099C735.842 250.315 734.945 252.192 733.301 252.574C731.656 252.957 729.763 251.345 728.318 250.083C726.872 248.82 724.231 248.04 723.201 249.701C722.587 250.681 722.952 252.076 722.321 253.023C721.208 254.684 718.584 253.654 716.956 252.458C715.328 251.262 712.737 250.166 711.59 251.827C711.311 252.352 711.099 252.91 710.959 253.488C710.179 255.714 707.787 256.81 705.976 258.255C704.165 259.701 702.654 262.508 704.199 264.252C704.979 265.116 706.358 265.464 706.757 266.561C707.238 267.923 705.843 269.152 704.73 270.082C702.886 271.644 702.554 276.328 704.996 277.607C706.009 278.155 707.504 278.321 707.753 279.451C708.003 280.58 706.956 281.228 706.292 282.009C705.861 282.559 705.556 283.196 705.396 283.876C705.236 284.556 705.226 285.263 705.367 285.947C705.508 286.631 705.795 287.277 706.21 287.839C706.625 288.401 707.157 288.866 707.77 289.201C708.351 289.484 709.066 289.716 709.282 290.331C709.369 290.788 709.323 291.261 709.149 291.693C708.906 292.539 708.827 293.425 708.916 294.301C708.911 294.451 708.937 294.6 708.991 294.74C709.045 294.88 709.127 295.007 709.232 295.115C709.455 295.271 709.724 295.347 709.996 295.331C713.517 295.48 715.212 294.251 717.354 297.307C717.54 297.612 717.789 297.873 718.085 298.072C718.382 298.23 718.712 298.315 719.049 298.321C721.457 298.52 723.035 297.008 725.245 296.66C728.318 296.278 728.965 297.856 731.656 299.118C735.726 301.36 737.769 300.131 738.566 297.208Z" fill="#5C9040"/>
<path d="M698.203 292.872C698.41 292.05 698.538 291.21 698.585 290.364C698.884 285.165 703.851 285.979 708.087 285.281C711.409 284.716 702.638 276.378 709.299 273.654C710.599 273.299 711.737 272.507 712.522 271.411C712.853 270.591 712.888 269.682 712.621 268.839C712.354 267.997 711.802 267.273 711.06 266.793C709.557 265.896 707.825 265.457 706.077 265.531C704.981 264.219 705.878 262.209 706.924 260.88C707.971 259.551 709.266 257.99 708.868 256.328C708.27 253.82 704.748 253.737 702.223 254.219C701.509 252.587 701.044 250.857 700.845 249.086C700.396 247.425 699.017 245.548 697.257 245.764C695.496 245.98 694.566 247.84 692.921 248.239C691.028 248.687 689.383 246.993 687.938 245.747C686.493 244.502 683.852 243.688 682.822 245.349C682.207 246.345 682.573 247.741 681.941 248.671C680.828 250.332 678.204 249.319 676.576 248.123C674.948 246.927 672.357 245.83 671.211 247.491C670.931 248.016 670.719 248.574 670.58 249.153C669.815 251.378 667.407 252.475 665.596 253.903C663.786 255.332 662.274 258.172 663.836 259.916C664.616 260.78 665.995 261.112 666.377 262.209C666.859 263.587 665.463 264.8 664.351 265.747C662.523 267.308 662.191 271.992 664.616 273.271C665.646 273.82 667.141 273.986 667.39 275.099C667.639 276.212 666.593 276.893 665.912 277.673C665.484 278.225 665.181 278.862 665.023 279.541C664.865 280.221 664.856 280.926 664.996 281.61C665.137 282.293 665.423 282.938 665.837 283.5C666.25 284.062 666.78 284.528 667.39 284.866C667.972 285.148 668.686 285.381 668.902 285.995C668.997 286.452 668.951 286.928 668.769 287.357C668.534 288.2 668.455 289.078 668.536 289.949C668.534 290.255 668.647 290.551 668.852 290.779C669.079 290.927 669.345 291.003 669.616 290.995C673.138 291.145 674.832 289.899 676.975 292.955C677.127 293.265 677.364 293.526 677.658 293.708C677.951 293.891 678.29 293.986 678.636 293.985C681.061 294.185 682.639 292.673 684.848 292.324C687.905 291.942 688.552 293.52 691.243 294.782C695.263 296.992 697.323 295.763 698.203 292.872Z" fill="#5C9040"/>
<path d="M694.217 267.109C694.432 266.288 694.56 265.448 694.599 264.6C694.898 259.385 699.881 260.215 704.1 259.518C707.423 258.953 698.652 250.614 705.313 247.89C706.615 247.539 707.754 246.746 708.536 245.647C708.866 244.828 708.901 243.919 708.635 243.076C708.368 242.233 707.816 241.51 707.074 241.03C705.572 240.131 703.839 239.692 702.091 239.767C701.011 238.438 701.891 236.445 702.938 235.116C703.984 233.787 705.28 232.226 704.881 230.565C704.283 228.057 700.778 227.957 698.237 228.455C697.538 226.812 697.073 225.079 696.858 223.306C696.41 221.645 695.031 219.784 693.27 219.984C691.509 220.183 690.579 222.06 688.951 222.442C687.041 222.891 685.397 221.213 683.968 219.951C682.54 218.688 679.865 217.907 678.835 219.568C678.237 220.565 678.603 221.944 677.955 222.891C676.859 224.552 674.234 223.538 672.606 222.342C670.978 221.146 668.371 220.05 667.224 221.711C666.945 222.266 666.734 222.851 666.593 223.455C665.829 225.681 663.421 226.778 661.61 228.206C659.799 229.635 658.288 232.475 659.833 234.219C660.613 235.066 661.992 235.415 662.374 236.512C662.856 237.874 661.46 239.103 660.364 240.05C658.52 241.611 658.188 246.295 660.613 247.574C661.643 248.106 663.138 248.272 663.387 249.402C663.636 250.531 662.59 251.195 661.909 251.976C661.481 252.527 661.178 253.165 661.02 253.844C660.862 254.524 660.853 255.229 660.993 255.913C661.134 256.596 661.42 257.241 661.834 257.803C662.247 258.365 662.777 258.831 663.387 259.169C663.969 259.451 664.7 259.684 664.915 260.298C665.007 260.751 664.954 261.222 664.766 261.644C664.532 262.492 664.453 263.375 664.533 264.252C664.539 264.557 664.651 264.85 664.849 265.082C665.082 265.231 665.354 265.306 665.63 265.298C669.135 265.448 670.829 264.202 672.972 267.258C673.162 267.564 673.41 267.829 673.703 268.039C674.009 268.188 674.342 268.272 674.683 268.288C677.091 268.487 678.669 266.976 680.879 266.627C683.935 266.228 684.583 267.806 687.29 269.085C691.36 271.228 693.42 269.999 694.217 267.109Z" fill="#5C9040"/>
<path d="M667.571 279.932C667.78 279.111 667.903 278.271 667.936 277.424C668.252 272.225 673.219 273.055 677.454 272.341C680.777 271.793 672.006 263.454 678.667 260.714C679.962 260.358 681.094 259.566 681.873 258.471C682.215 257.655 682.258 256.743 681.994 255.898C681.729 255.053 681.175 254.329 680.428 253.853C678.925 252.956 677.193 252.518 675.444 252.591C674.348 251.262 675.229 249.269 676.292 247.923C677.355 246.578 678.634 245.05 678.235 243.389C677.621 240.864 674.116 240.781 671.591 241.262C670.887 239.628 670.428 237.898 670.229 236.13C669.764 234.469 668.402 232.592 666.624 232.807C664.847 233.023 663.95 234.9 662.305 235.282C660.661 235.665 658.767 234.053 657.322 232.791C655.877 231.528 653.236 230.748 652.206 232.409C651.591 233.405 651.957 234.784 651.326 235.731C650.213 237.392 647.588 236.379 645.96 235.166C644.332 233.954 641.741 232.874 640.595 234.552C640.313 235.075 640.101 235.634 639.964 236.213C639.2 238.422 636.791 239.535 634.981 240.963C633.17 242.392 631.658 245.232 633.22 246.96C634.001 247.824 635.363 248.172 635.761 249.269C636.243 250.631 634.848 251.86 633.735 252.79C631.908 254.368 631.559 259.053 634.001 260.332C635.014 260.863 636.525 261.029 636.774 262.159C637.024 263.288 635.977 263.953 635.296 264.717C634.866 265.268 634.56 265.907 634.4 266.588C634.24 267.269 634.23 267.977 634.371 268.663C634.511 269.348 634.799 269.995 635.214 270.558C635.629 271.122 636.162 271.588 636.774 271.926C637.356 272.208 638.07 272.424 638.286 273.039C638.373 273.496 638.327 273.969 638.153 274.401C637.91 275.248 637.831 276.133 637.921 277.009C637.903 277.153 637.919 277.299 637.968 277.435C638.017 277.572 638.097 277.695 638.202 277.795C638.307 277.895 638.434 277.969 638.572 278.011C638.711 278.054 638.857 278.063 639 278.039C642.522 278.205 644.216 276.959 646.359 280.015C646.539 280.329 646.789 280.596 647.09 280.796C647.388 280.949 647.718 281.029 648.053 281.029C650.478 281.228 652.056 279.716 654.249 279.368C657.322 278.986 657.97 280.564 660.661 281.826C664.714 284.068 666.774 282.839 667.571 279.932Z" fill="#5C9040"/>
<path d="M640.629 273.952C640.834 273.13 640.962 272.29 641.011 271.444C641.31 266.228 646.293 267.059 650.513 266.345C653.835 265.796 645.064 257.458 651.725 254.717C653.027 254.366 654.166 253.573 654.948 252.475C655.282 251.655 655.319 250.745 655.052 249.901C654.785 249.058 654.231 248.335 653.486 247.857C651.984 246.958 650.251 246.519 648.503 246.594C647.423 245.266 648.303 243.272 649.35 241.927C650.396 240.581 651.692 239.053 651.293 237.392C650.695 234.884 647.174 234.784 644.649 235.282C643.942 233.642 643.478 231.907 643.27 230.133C642.822 228.472 641.443 226.595 639.682 226.811C637.922 227.027 636.991 228.904 635.364 229.286C633.453 229.734 631.809 228.057 630.38 226.794C628.952 225.532 626.277 224.751 625.247 226.412C624.633 227.409 625.015 228.788 624.367 229.734C623.271 231.395 620.646 230.382 619.018 229.17C617.391 227.957 614.783 226.877 613.637 228.555C613.355 229.108 613.143 229.694 613.005 230.299C612.241 232.525 609.833 233.621 608.022 235.05C606.211 236.478 604.7 239.319 606.245 241.046C607.025 241.91 608.404 242.259 608.786 243.355C609.268 244.717 607.873 245.947 606.776 246.893C604.932 248.455 604.6 253.139 607.025 254.418C608.055 254.95 609.55 255.116 609.799 256.245C610.049 257.375 609.002 258.039 608.321 258.82C607.893 259.371 607.59 260.008 607.432 260.688C607.274 261.367 607.265 262.073 607.405 262.756C607.546 263.44 607.832 264.085 608.246 264.647C608.659 265.209 609.189 265.675 609.799 266.012C610.381 266.295 611.112 266.527 611.328 267.125C611.419 267.584 611.367 268.06 611.178 268.487C610.944 269.336 610.865 270.219 610.946 271.095C610.927 271.241 610.944 271.389 610.993 271.527C611.043 271.665 611.125 271.789 611.232 271.889C611.339 271.99 611.468 272.063 611.608 272.104C611.749 272.145 611.898 272.153 612.042 272.125C615.547 272.291 617.241 271.046 619.384 274.102C619.574 274.408 619.822 274.673 620.115 274.883C620.419 275.036 620.754 275.115 621.095 275.115C623.503 275.314 625.081 273.82 627.291 273.537C630.347 273.138 630.995 274.716 633.702 275.996C637.772 278.138 639.832 276.909 640.629 273.952Z" fill="#5C9040"/>
<path d="M640.279 302.822C640.438 302.174 640.538 301.512 640.578 300.845C640.81 296.759 644.731 297.407 648.053 296.842C650.661 296.41 643.767 289.832 649.016 287.723C650.033 287.439 650.924 286.819 651.541 285.962C651.808 285.319 651.842 284.603 651.635 283.939C651.429 283.274 650.996 282.703 650.411 282.324C649.211 281.603 647.823 281.256 646.425 281.328C645.561 280.281 646.259 278.72 647.089 277.657C647.92 276.594 648.933 275.381 648.617 274.085C648.152 272.109 645.378 272.026 643.385 272.424C642.834 271.137 642.47 269.778 642.305 268.388C641.957 267.026 640.877 265.597 639.482 265.78C638.086 265.963 637.355 267.441 636.159 267.723C634.963 268.006 633.369 266.743 632.189 265.763C631.01 264.783 628.967 264.102 628.17 265.448C627.671 266.228 627.97 267.325 627.472 268.089C626.592 269.434 624.532 268.604 623.253 267.657C621.974 266.71 619.931 265.846 619.017 267.159C618.792 267.595 618.625 268.058 618.519 268.537C617.921 270.281 616.027 271.162 614.549 272.275C613.07 273.388 611.908 275.597 613.153 277.009C613.768 277.69 614.814 277.956 615.163 278.819C615.512 279.683 614.432 280.863 613.502 281.593C612.057 282.839 611.841 286.577 613.702 287.523C614.515 287.955 615.695 288.088 615.894 288.969C616.094 289.849 615.263 290.381 614.731 290.995C614.394 291.429 614.155 291.931 614.03 292.466C613.905 293.001 613.898 293.557 614.008 294.095C614.119 294.633 614.344 295.141 614.67 295.584C614.996 296.027 615.413 296.394 615.894 296.659C616.343 296.875 616.907 297.058 617.09 297.54C617.159 297.903 617.118 298.279 616.974 298.62C616.789 299.284 616.727 299.976 616.791 300.663C616.788 300.782 616.808 300.9 616.851 301.012C616.893 301.123 616.958 301.224 617.04 301.31C617.221 301.433 617.437 301.491 617.655 301.477C620.412 301.609 621.741 300.629 623.435 303.038C623.585 303.276 623.783 303.48 624.017 303.636C624.252 303.763 624.514 303.831 624.781 303.835C626.675 303.985 627.92 302.805 629.665 302.573C632.073 302.274 632.571 303.52 634.648 304.516C638.036 306.078 639.648 305.098 640.279 302.822Z" fill="#5C9040"/>
<path d="M625.115 292.872C625.33 292.052 625.458 291.211 625.497 290.364C625.813 285.165 630.78 285.979 634.999 285.281C638.321 284.716 629.567 276.378 636.228 273.654C637.523 273.298 638.655 272.505 639.434 271.411C639.766 270.593 639.804 269.685 639.54 268.843C639.276 268 638.728 267.276 637.989 266.793C636.462 265.881 634.699 265.442 632.922 265.531C631.843 264.219 632.723 262.209 633.77 260.88C634.816 259.551 636.112 257.99 635.713 256.328C635.115 253.82 631.61 253.737 629.069 254.219C628.369 252.581 627.905 250.853 627.69 249.086C627.241 247.425 625.879 245.548 624.102 245.764C622.325 245.98 621.411 247.84 619.783 248.239C617.89 248.687 616.245 246.993 614.8 245.747C613.355 244.502 610.697 243.688 609.684 245.349C609.069 246.345 609.435 247.741 608.787 248.671C607.691 250.332 605.066 249.319 603.438 248.123C601.81 246.927 599.219 245.83 598.073 247.491C597.787 248.013 597.574 248.572 597.442 249.153C596.661 251.378 594.252 252.475 592.458 253.903C590.664 255.332 589.136 258.172 590.681 259.916C591.462 260.78 592.84 261.112 593.222 262.209C593.721 263.587 592.309 264.8 591.213 265.747C589.369 267.308 589.037 271.992 591.478 273.271C592.492 273.82 593.987 273.986 594.236 275.099C594.485 276.212 593.438 276.893 592.757 277.673C592.33 278.225 592.026 278.862 591.868 279.541C591.71 280.221 591.701 280.926 591.842 281.61C591.982 282.293 592.269 282.938 592.682 283.5C593.095 284.062 593.625 284.528 594.236 284.866C594.834 285.148 595.548 285.381 595.764 285.995C595.854 286.454 595.802 286.929 595.614 287.357C595.38 288.2 595.301 289.078 595.382 289.949C595.387 290.254 595.499 290.548 595.698 290.779C595.93 290.928 596.202 291.003 596.478 290.995C599.983 291.145 601.677 289.899 603.82 292.955C604.01 293.261 604.259 293.526 604.551 293.736C604.857 293.885 605.191 293.97 605.531 293.985C607.94 294.185 609.518 292.673 611.727 292.324C614.783 291.942 615.448 293.52 618.139 294.782C622.325 296.992 624.384 295.763 625.115 292.872Z" fill="#5C9040"/>
<path d="M667.571 248.239C667.78 247.418 667.903 246.577 667.936 245.731C668.252 240.532 673.219 241.362 677.454 240.648C680.777 240.1 672.006 231.761 678.667 229.02C679.962 228.664 681.094 227.872 681.873 226.778C682.215 225.961 682.258 225.05 681.994 224.205C681.729 223.36 681.175 222.636 680.428 222.16C678.925 221.263 677.193 220.824 675.444 220.898C674.348 219.569 675.229 217.575 676.292 216.23C677.355 214.884 678.634 213.356 678.235 211.695C677.621 209.17 674.116 209.087 671.591 209.569C670.887 207.934 670.428 206.205 670.229 204.436C669.764 202.775 668.402 200.898 666.624 201.114C664.847 201.33 663.95 203.207 662.305 203.589C660.661 203.971 658.767 202.36 657.322 201.097C655.877 199.835 653.236 199.054 652.206 200.715C651.591 201.712 651.957 203.091 651.326 204.038C650.213 205.699 647.588 204.685 645.96 203.473C644.332 202.26 641.741 201.181 640.595 202.858C640.306 203.408 640.094 203.995 639.964 204.602C639.2 206.812 636.791 207.925 634.981 209.353C633.17 210.782 631.658 213.622 633.22 215.35C634.001 216.213 635.363 216.562 635.761 217.658C636.243 219.021 634.848 220.25 633.735 221.18C631.908 222.758 631.559 227.442 634.001 228.721C635.014 229.253 636.525 229.419 636.774 230.548C637.024 231.678 635.977 232.342 635.296 233.107C634.866 233.658 634.56 234.297 634.4 234.978C634.24 235.659 634.23 236.367 634.371 237.052C634.511 237.738 634.799 238.385 635.214 238.948C635.629 239.512 636.162 239.978 636.774 240.316C637.356 240.598 638.07 240.814 638.286 241.429C638.373 241.886 638.327 242.359 638.153 242.791C637.91 243.637 637.831 244.522 637.921 245.399C637.903 245.542 637.919 245.688 637.968 245.825C638.017 245.961 638.097 246.085 638.202 246.185C638.307 246.285 638.434 246.359 638.572 246.401C638.711 246.443 638.857 246.453 639 246.428C642.522 246.595 644.216 245.349 646.359 248.405C646.539 248.718 646.789 248.985 647.09 249.186C647.388 249.339 647.718 249.418 648.053 249.418C650.478 249.618 652.056 248.106 654.249 247.757C657.322 247.375 657.97 248.953 660.661 250.216C664.714 252.359 666.774 251.146 667.571 248.239Z" fill="#5C9040"/>
<path d="M702.172 250.016C702.379 249.194 702.507 248.354 702.554 247.508C702.853 242.309 707.82 243.123 712.056 242.425C715.378 241.86 706.607 233.522 713.268 230.798C714.568 230.443 715.706 229.651 716.491 228.555C716.821 227.735 716.857 226.826 716.59 225.983C716.323 225.141 715.771 224.417 715.029 223.937C713.526 223.04 711.794 222.601 710.046 222.675C708.949 221.363 709.846 219.353 710.893 218.024C711.939 216.695 713.235 215.134 712.836 213.472C712.222 210.964 708.717 210.881 706.192 211.363C705.477 209.731 705.013 208.001 704.813 206.23C704.365 204.569 702.986 202.692 701.225 202.908C699.465 203.124 698.534 204.984 696.89 205.383C694.996 205.832 693.352 204.137 691.907 202.891C690.461 201.646 687.82 200.832 686.791 202.493C686.176 203.489 686.541 204.885 685.91 205.815C684.797 207.476 682.173 206.463 680.545 205.267C678.917 204.071 676.326 202.974 675.18 204.636C674.893 205.187 674.681 205.773 674.548 206.38C673.784 208.606 671.376 209.702 669.565 211.147C667.755 212.592 666.243 215.399 667.804 217.143C668.585 218.007 669.964 218.339 670.346 219.436C670.828 220.814 669.432 222.027 668.319 222.974C666.492 224.535 666.16 229.22 668.585 230.499C669.615 231.047 671.11 231.213 671.359 232.326C671.608 233.439 670.562 234.12 669.881 234.9C669.453 235.452 669.15 236.089 668.992 236.768C668.834 237.448 668.824 238.154 668.965 238.837C669.105 239.52 669.392 240.165 669.805 240.727C670.219 241.289 670.749 241.755 671.359 242.093C671.94 242.375 672.655 242.608 672.871 243.222C672.966 243.679 672.92 244.155 672.738 244.585C672.503 245.427 672.424 246.305 672.505 247.176C672.503 247.482 672.616 247.779 672.821 248.006C673.048 248.155 673.314 248.23 673.585 248.222C677.106 248.372 678.801 247.126 680.943 250.182C681.096 250.492 681.333 250.753 681.626 250.936C681.92 251.118 682.259 251.214 682.605 251.212C685.03 251.412 686.608 249.9 688.817 249.551C691.873 249.169 692.521 250.747 695.212 252.01C699.315 254.136 701.375 252.907 702.172 250.016Z" fill="#5C9040"/>
<path d="M723.118 264.185C723.332 263.359 723.46 262.513 723.5 261.66C723.799 256.461 728.783 257.292 733.002 256.578C736.324 256.029 727.57 247.691 734.214 244.95C735.516 244.599 736.655 243.806 737.437 242.708C737.769 241.89 737.807 240.982 737.543 240.139C737.28 239.297 736.731 238.572 735.992 238.09C734.464 237.18 732.702 236.74 730.926 236.827C729.846 235.498 730.726 233.505 731.773 232.16C732.819 230.814 734.115 229.286 733.716 227.625C733.118 225.1 729.613 225.017 727.072 225.499C726.37 223.862 725.906 222.134 725.693 220.366C725.245 218.705 723.866 216.828 722.105 217.044C720.344 217.26 719.414 219.137 717.786 219.519C715.876 219.967 714.232 218.29 712.803 217.027C711.375 215.765 708.7 214.984 707.687 216.645C707.072 217.642 707.438 219.02 706.79 219.967C705.694 221.628 703.069 220.615 701.441 219.403C699.813 218.19 697.206 217.11 696.059 218.788C695.784 219.315 695.572 219.872 695.428 220.449C694.664 222.658 692.255 223.771 690.445 225.2C688.634 226.628 687.123 229.469 688.668 231.196C689.448 232.06 690.827 232.409 691.209 233.505C691.691 234.867 690.295 236.096 689.199 237.027C687.355 238.605 687.023 243.289 689.448 244.568C690.478 245.099 691.973 245.266 692.222 246.395C692.471 247.525 691.425 248.189 690.744 248.953C690.316 249.506 690.013 250.144 689.854 250.825C689.696 251.506 689.687 252.213 689.827 252.897C689.968 253.582 690.254 254.228 690.668 254.792C691.081 255.355 691.611 255.823 692.222 256.162C692.804 256.445 693.535 256.661 693.75 257.275C693.842 257.734 693.79 258.209 693.601 258.637C693.366 259.485 693.287 260.369 693.368 261.245C693.373 261.545 693.485 261.834 693.684 262.059C693.91 262.222 694.187 262.299 694.465 262.275C697.97 262.441 699.664 261.195 701.807 264.252C701.997 264.557 702.245 264.823 702.538 265.032C702.842 265.183 703.178 265.263 703.518 265.265C705.926 265.464 707.504 263.953 709.713 263.604C712.77 263.205 713.418 264.783 716.125 266.046C720.328 268.305 722.388 267.076 723.118 264.185Z" fill="#5C9040"/>
<path d="M717.484 280.592C717.484 280.592 708.66 292.53 705.624 296.312C702.589 300.095 687.36 323.7 685.292 339.293C685.058 340.969 684.841 342.389 684.641 343.65C691.18 384.987 690.162 551.977 689.929 564.921H660.639C663.842 437.017 667.228 325.519 666.577 321.417C665.927 317.316 657.22 300.669 643.843 293.934C630.466 287.199 618.823 264.871 618.823 264.871H623.093C623.093 264.871 630.999 278.549 642.258 286.13C643.857 287.193 645.529 288.153 647.262 289.002C647.264 280.738 648.824 272.542 651.866 264.807L654.168 266.834C651.048 279.027 651.465 286.832 652.399 291.317C656.668 293.22 660.606 295.739 664.075 298.786C675.751 284.246 682.323 251.001 682.323 251.001L685.325 252.597C684.466 259.465 683.174 266.276 681.456 272.995C679.27 281.597 672.832 297.797 669.78 305.138C673.365 310.069 676.327 315.389 678.603 320.987C678.926 320.514 679.307 320.08 679.738 319.694C687.343 313.118 701.655 282.012 701.655 282.012C705.107 274.782 699.82 255.805 699.82 255.805H703.806L705.608 272.404L715.615 261.918L717.434 263.371L706.792 276.49L701.304 293.088L715.615 277.942L717.484 280.592Z" fill="#5C9040"/>
<path d="M147.007 440.295H742.236V460.341H147.007V440.295Z" fill="#894435" stroke="#814336" stroke-width="0.136309"/>
<path d="M132.986 565.487V388.586L146.938 378.668L160.889 388.586V565.487H132.986Z" fill="#814336" stroke="#814336" stroke-width="0.136309"/>
<path d="M182.603 565.487V388.586L196.555 378.668L210.506 388.586V565.487H182.603Z" fill="#814336" stroke="#814336" stroke-width="0.136309"/>
<path d="M232.22 565.487V388.586L246.172 378.668L260.123 388.586V565.487H232.22Z" fill="#814336" stroke="#814336" stroke-width="0.136309"/>
<path d="M309.74 565.487H281.838V388.586L295.789 378.668L309.74 388.586V565.487Z" fill="#814336" stroke="#814336" stroke-width="0.136309"/>
<path d="M359.341 565.487H331.455V388.586L345.39 378.668L359.341 388.586V565.487Z" fill="#814336" stroke="#814336" stroke-width="0.136309"/>
<path d="M381.054 565.487V388.586L395.006 378.668L408.957 388.586V565.487H381.054Z" fill="#814336" stroke="#814336" stroke-width="0.136309"/>
<path d="M430.671 565.487V388.586L444.622 378.668L458.573 388.586V565.487H430.671Z" fill="#814336" stroke="#814336" stroke-width="0.136309"/>
<path d="M480.289 565.487V388.586L494.24 378.668L508.192 388.586V565.487H480.289Z" fill="#814336" stroke="#814336" stroke-width="0.136309"/>
<path d="M557.806 565.487H529.903V388.586L543.854 378.668L557.806 388.586V565.487Z" fill="#814336" stroke="#814336" stroke-width="0.136309"/>
<path d="M579.52 565.487V388.586L593.472 378.668L607.423 388.586V565.487H579.52Z" fill="#814336" stroke="#814336" stroke-width="0.136309"/>
<path d="M657.023 565.487H629.137V388.586L643.071 378.668L657.023 388.586V565.487Z" fill="#814336" stroke="#814336" stroke-width="0.136309"/>
<path d="M678.736 565.487V388.586L692.688 378.668L706.639 388.586V565.487H678.736Z" fill="#814336" stroke="#814336" stroke-width="0.136309"/>
<path d="M728.351 565.487V388.586L742.303 378.668L756.254 388.586V565.487H728.351Z" fill="#814336" stroke="#814336" stroke-width="0.136309"/>
<path d="M159.031 235.482C158.77 234.482 158.614 233.458 158.566 232.425C158.201 226.063 152.138 227.077 146.939 226.213C142.919 225.548 153.583 215.366 145.46 212.077C143.88 211.645 142.496 210.684 141.54 209.353C141.137 208.346 141.102 207.228 141.442 206.198C141.783 205.167 142.476 204.29 143.401 203.722C145.261 202.603 147.411 202.059 149.58 202.16C150.892 200.499 149.829 198.141 148.533 196.479C147.238 194.818 145.693 192.975 146.175 190.948C146.906 187.875 151.158 187.775 154.281 188.357C155.427 186.513 155.394 184.204 155.942 182.095C156.49 179.985 158.168 177.792 160.327 178.041C162.487 178.291 163.649 180.6 165.593 181.065C167.918 181.613 169.912 179.553 171.739 178.025C173.566 176.497 176.722 175.533 177.984 177.56C178.732 178.756 178.283 180.45 179.064 181.646C180.41 183.722 183.615 182.427 185.592 180.965C187.569 179.503 190.758 178.174 192.153 180.201C192.501 180.873 192.758 181.588 192.918 182.327C193.864 185.035 196.788 186.397 199.08 188.141C201.372 189.885 203.166 193.34 201.24 195.45C200.276 196.496 198.598 196.928 198.133 198.257C197.535 199.918 199.246 201.43 200.592 202.576C202.834 204.486 203.249 210.2 200.276 211.761C199.03 212.409 197.203 212.609 196.954 213.987C196.705 215.366 197.917 216.18 198.748 217.127C199.271 217.798 199.643 218.576 199.836 219.405C200.03 220.235 200.041 221.096 199.869 221.93C199.697 222.764 199.345 223.551 198.839 224.236C198.333 224.921 197.684 225.488 196.937 225.897C196.24 226.246 195.276 226.528 195.094 227.276C194.98 227.834 195.038 228.413 195.26 228.937C195.552 229.973 195.648 231.055 195.542 232.126C195.55 232.496 195.413 232.854 195.16 233.123C194.882 233.312 194.549 233.406 194.213 233.389C189.928 233.571 187.868 232.06 185.243 235.797C185.018 236.17 184.718 236.492 184.363 236.744C183.994 236.92 183.592 237.016 183.184 237.027C180.227 237.276 178.3 235.365 175.609 235.1C171.872 234.618 171.091 236.545 167.802 238.09C162.52 240.515 160.011 239.07 159.031 235.482Z" fill="#5C9040"/>
<path d="M208.399 230.15C208.137 229.15 207.981 228.126 207.934 227.093C207.552 220.731 201.489 221.745 196.306 220.881C192.27 220.217 202.95 210.034 194.811 206.745C193.235 206.305 191.853 205.345 190.891 204.021C190.483 203.023 190.437 201.913 190.762 200.884C191.087 199.856 191.761 198.973 192.668 198.39C194.524 197.273 196.668 196.73 198.831 196.828C200.16 195.167 199.08 192.792 197.801 191.148C196.522 189.503 194.944 187.643 195.426 185.616C196.173 182.543 200.409 182.443 203.532 183.025C204.678 181.181 204.661 178.872 205.193 176.763C205.724 174.653 207.419 172.46 209.578 172.71C211.738 172.959 212.9 175.268 214.86 175.733C217.169 176.281 219.179 174.221 220.99 172.693C222.8 171.165 225.973 170.201 227.235 172.211C227.983 173.424 227.534 175.118 228.315 176.314C229.677 178.374 232.867 177.095 234.86 175.633C236.853 174.171 240.009 172.842 241.405 174.869C241.757 175.54 242.02 176.255 242.185 176.995C243.115 179.703 246.056 181.065 248.331 182.792C250.607 184.52 252.434 187.991 250.491 190.118C249.544 191.164 247.866 191.596 247.384 192.925C246.803 194.586 248.497 196.098 249.859 197.244C252.102 199.154 252.501 204.868 249.544 206.43C248.298 207.077 246.471 207.277 246.222 208.655C245.972 210.034 247.202 210.848 248.032 211.795C248.556 212.467 248.927 213.244 249.121 214.073C249.314 214.903 249.325 215.764 249.153 216.598C248.981 217.432 248.63 218.219 248.123 218.904C247.617 219.589 246.968 220.156 246.222 220.565C245.507 220.914 244.561 221.197 244.361 221.944C244.244 222.503 244.308 223.085 244.544 223.605C244.828 224.643 244.924 225.723 244.826 226.794C244.828 227.163 244.691 227.518 244.444 227.791C244.163 227.973 243.833 228.066 243.497 228.057C239.212 228.24 237.136 226.728 234.528 230.465C234.294 230.837 233.989 231.159 233.631 231.412C233.263 231.591 232.86 231.688 232.451 231.695C229.511 231.944 227.584 230.033 224.893 229.768C221.156 229.286 220.359 231.213 217.07 232.758C211.87 235.183 209.362 233.671 208.399 230.15Z" fill="#5C9040"/>
<path d="M213.167 198.722C212.904 197.717 212.748 196.687 212.702 195.649C212.336 189.304 206.274 190.317 201.074 189.453C197.055 188.772 207.719 178.59 199.596 175.317C198.024 174.896 196.645 173.946 195.692 172.626C195.28 171.63 195.23 170.521 195.551 169.491C195.873 168.462 196.546 167.579 197.453 166.995C199.312 165.874 201.465 165.336 203.632 165.45C204.945 163.789 203.865 161.414 202.586 159.77C201.307 158.125 199.729 156.248 200.227 154.222C200.958 151.165 205.21 151.049 208.333 151.647C209.479 149.803 209.446 147.478 209.994 145.385C210.543 143.292 212.22 141.066 214.38 141.332C216.539 141.597 217.702 143.873 219.645 144.338C221.971 144.886 223.964 142.843 225.791 141.298C227.618 139.753 230.774 138.807 232.037 140.833C232.784 142.046 232.336 143.74 233.117 144.936C234.462 146.996 237.668 145.717 239.645 144.255C241.621 142.793 244.794 141.448 246.289 143.491C246.632 144.165 246.889 144.879 247.053 145.617C248 148.325 250.923 149.67 253.216 151.414C255.508 153.158 257.302 156.613 255.375 158.74C254.412 159.786 252.734 160.218 252.269 161.547C251.671 163.208 253.382 164.703 254.727 165.849C256.97 167.759 257.385 173.473 254.412 175.035C253.166 175.699 251.339 175.899 251.09 177.277C250.84 178.656 252.07 179.453 252.9 180.4C253.424 181.073 253.795 181.852 253.989 182.683C254.183 183.513 254.194 184.376 254.022 185.211C253.849 186.047 253.498 186.835 252.992 187.521C252.486 188.208 251.837 188.776 251.09 189.187C250.375 189.52 249.512 189.802 249.246 190.549C249.128 191.107 249.186 191.687 249.412 192.21C249.696 193.242 249.792 194.317 249.694 195.383C249.7 195.757 249.563 196.119 249.312 196.396C249.036 196.588 248.7 196.677 248.365 196.646C244.08 196.845 242.02 195.333 239.396 199.054C239.174 199.43 238.874 199.753 238.515 200.001C238.145 200.191 237.736 200.294 237.319 200.3C234.379 200.549 232.452 198.639 229.761 198.357C226.024 197.891 225.226 199.818 221.938 201.363C216.639 203.738 214.13 202.243 213.167 198.722Z" fill="#5C9040"/>
<path d="M245.673 214.369C245.412 213.37 245.256 212.345 245.208 211.313C244.826 204.968 238.763 205.964 233.581 205.101C229.544 204.436 240.225 194.254 232.086 190.965C230.504 190.536 229.119 189.573 228.165 188.241C227.757 187.242 227.712 186.132 228.036 185.104C228.361 184.075 229.036 183.193 229.943 182.61C231.795 181.487 233.943 180.949 236.105 181.065C237.434 179.404 236.355 177.028 235.076 175.384C233.796 173.739 232.218 171.862 232.7 169.836C233.431 166.763 237.683 166.663 240.806 167.261C241.952 165.401 241.936 163.092 242.467 160.982C242.999 158.873 244.693 156.68 246.853 156.946C249.012 157.212 250.175 159.487 252.135 159.952C254.444 160.501 256.454 158.457 258.264 156.913C260.075 155.368 263.247 154.421 264.51 156.447C265.257 157.66 264.809 159.338 265.59 160.534C266.935 162.61 270.141 161.314 272.134 159.853C274.128 158.391 277.284 157.062 278.679 159.089C279.034 159.757 279.291 160.473 279.443 161.215C280.39 163.939 283.33 165.284 285.606 167.029C287.881 168.773 289.692 172.228 287.765 174.337C286.818 175.4 285.141 175.816 284.659 177.145C284.077 178.806 285.772 180.317 287.117 181.463C289.36 183.374 289.775 189.088 286.802 190.649C285.556 191.297 283.729 191.496 283.479 192.875C283.23 194.254 284.459 195.068 285.273 196.014C285.795 196.686 286.165 197.463 286.358 198.291C286.551 199.119 286.563 199.979 286.393 200.812C286.222 201.645 285.874 202.432 285.371 203.117C284.868 203.803 284.223 204.372 283.479 204.785C282.765 205.134 281.818 205.416 281.619 206.164C281.51 206.722 281.568 207.299 281.785 207.825C282.083 208.854 282.184 209.93 282.084 210.997C282.086 211.369 281.943 211.726 281.685 211.994C281.413 212.183 281.086 212.277 280.755 212.26C276.47 212.459 274.393 210.931 271.785 214.668C271.558 215.045 271.252 215.368 270.888 215.615C270.518 215.79 270.118 215.892 269.709 215.914C266.752 216.147 264.842 214.253 262.135 213.971C258.414 213.489 257.616 215.416 254.327 216.961C249.145 219.403 246.637 217.891 245.673 214.369Z" fill="#5C9040"/>
<path d="M278.53 207.144C278.268 206.144 278.112 205.12 278.065 204.087C277.683 197.725 271.62 198.739 266.437 197.875C262.401 197.194 273.081 187.028 264.942 183.739C263.361 183.299 261.978 182.332 261.022 180.998C260.614 180 260.568 178.89 260.893 177.862C261.218 176.833 261.892 175.951 262.799 175.367C264.659 174.264 266.801 173.727 268.962 173.822C270.291 172.161 269.211 169.786 267.932 168.142C266.653 166.497 265.075 164.637 265.557 162.594C266.304 159.537 270.54 159.421 273.679 160.019C274.809 158.175 274.792 155.85 275.34 153.757C275.889 151.664 277.566 149.438 279.726 149.704C281.885 149.969 283.048 152.245 285.008 152.727C287.317 153.275 289.327 151.215 291.137 149.687C292.948 148.159 296.121 147.179 297.383 149.205C298.147 150.418 297.699 152.112 298.463 153.308C299.825 155.368 303.014 154.089 305.007 152.627C307.001 151.165 310.157 149.82 311.552 151.863C311.905 152.534 312.167 153.249 312.333 153.989C313.263 156.697 316.203 158.059 318.479 159.786C320.754 161.514 322.582 164.985 320.638 167.112C319.691 168.158 318.014 168.59 317.548 169.919C316.95 171.58 318.645 173.075 320.007 174.238C322.249 176.131 322.648 181.845 319.691 183.407C318.445 184.071 316.618 184.271 316.369 185.649C316.12 187.028 317.349 187.825 318.18 188.772C318.703 189.445 319.075 190.224 319.269 191.055C319.462 191.885 319.473 192.748 319.301 193.583C319.129 194.419 318.778 195.207 318.272 195.893C317.765 196.58 317.116 197.148 316.369 197.559C315.655 197.908 314.708 198.191 314.525 198.921C314.408 199.479 314.466 200.059 314.691 200.582C314.976 201.62 315.072 202.7 314.974 203.772C314.972 204.139 314.836 204.494 314.592 204.768C314.314 204.958 313.981 205.051 313.645 205.034C309.359 205.217 307.3 203.705 304.675 207.426C304.452 207.806 304.145 208.13 303.778 208.373C303.414 208.565 303.01 208.667 302.599 208.672C299.659 208.921 297.732 207.011 295.041 206.728C291.303 206.263 290.506 208.19 287.217 209.735C282.001 212.16 279.493 210.665 278.53 207.144Z" fill="#5C9040"/>
<path d="M278.963 242.292C278.754 241.504 278.632 240.697 278.597 239.883C278.298 234.9 273.514 235.681 269.461 234.999C266.289 234.468 274.694 226.445 268.298 223.87C267.049 223.53 265.957 222.767 265.209 221.711C264.88 220.926 264.84 220.05 265.096 219.238C265.351 218.427 265.885 217.731 266.604 217.276C268.064 216.398 269.753 215.975 271.454 216.063C272.501 214.784 271.654 212.89 270.641 211.595C269.627 210.299 268.398 208.821 268.78 207.226C269.362 204.801 272.717 204.718 275.159 205.183C275.843 203.597 276.285 201.917 276.471 200.2C276.919 198.539 278.232 196.878 279.926 197.01C281.62 197.143 282.517 199.02 284.079 199.386C285.906 199.818 287.484 198.206 288.912 196.994C290.341 195.781 292.849 195.034 293.896 196.628C294.494 197.575 294.145 198.904 294.759 199.851C295.823 201.512 298.331 200.466 299.892 199.319C301.454 198.173 303.962 197.11 305.058 198.721C305.336 199.244 305.537 199.803 305.656 200.383C306.404 202.525 308.713 203.588 310.507 204.95C312.301 206.313 313.729 209.053 312.168 210.731C311.42 211.545 310.091 211.877 309.726 212.94C309.36 214.003 310.59 215.432 311.653 216.262C313.43 217.757 313.746 222.259 311.404 223.488C310.423 224.003 308.995 224.169 308.746 225.249C308.497 226.329 309.51 226.91 310.174 227.724C310.584 228.254 310.874 228.867 311.024 229.52C311.175 230.173 311.183 230.851 311.047 231.507C310.911 232.163 310.635 232.782 310.238 233.322C309.841 233.862 309.332 234.309 308.746 234.634C308.181 234.9 307.5 235.116 307.284 235.714C307.196 236.149 307.242 236.601 307.417 237.009C307.651 237.823 307.73 238.674 307.649 239.518C307.651 239.809 307.537 240.089 307.334 240.298C307.123 240.454 306.864 240.531 306.603 240.514C303.281 240.664 301.62 239.468 299.543 242.408C299.359 242.703 299.116 242.957 298.829 243.155C298.541 243.302 298.223 243.382 297.899 243.388C295.59 243.571 294.062 242.125 291.952 241.86C289.012 241.478 288.381 243.006 285.79 244.218C281.703 246.245 279.727 245.066 278.963 242.292Z" fill="#5C9040"/>
<path d="M297.367 230.15C297.106 229.15 296.95 228.126 296.902 227.093C296.537 220.731 290.474 221.745 285.275 220.881C281.255 220.217 291.919 210.034 283.796 206.745C282.216 206.314 280.832 205.352 279.876 204.021C279.46 203.025 279.408 201.915 279.73 200.885C280.052 199.855 280.728 198.971 281.637 198.39C283.497 197.271 285.647 196.728 287.816 196.828C289.128 195.167 288.049 192.792 286.77 191.148C285.491 189.503 283.929 187.643 284.411 185.616C285.142 182.543 289.394 182.443 292.517 183.025C293.663 181.181 293.63 178.872 294.178 176.763C294.726 174.653 296.404 172.46 298.563 172.71C300.723 172.959 301.886 175.268 303.829 175.733C306.155 176.281 308.148 174.221 309.975 172.693C311.802 171.165 314.958 170.201 316.221 172.211C316.968 173.424 316.52 175.118 317.3 176.314C318.646 178.374 321.852 177.095 323.828 175.633C325.805 174.171 328.994 172.842 330.39 174.869C330.73 175.544 330.987 176.258 331.154 176.995C332.101 179.703 335.024 181.065 337.316 182.792C339.609 184.52 341.403 187.991 339.476 190.118C338.512 191.164 336.835 191.596 336.37 192.925C335.772 194.586 337.483 196.098 338.828 197.244C341.07 199.154 341.486 204.868 338.512 206.43C337.267 207.077 335.439 207.277 335.19 208.655C334.941 210.034 336.154 210.848 336.984 211.795C337.508 212.467 337.879 213.244 338.073 214.073C338.266 214.903 338.277 215.764 338.105 216.598C337.933 217.432 337.581 218.219 337.075 218.904C336.569 219.589 335.92 220.156 335.174 220.565C334.459 220.914 333.596 221.197 333.33 221.944C333.208 222.501 333.266 223.083 333.496 223.605C333.788 224.641 333.884 225.723 333.778 226.794C333.786 227.164 333.649 227.522 333.396 227.791C333.118 227.98 332.786 228.074 332.449 228.057C328.164 228.24 326.104 226.728 323.48 230.465C323.249 230.834 322.95 231.155 322.599 231.412C322.225 231.59 321.817 231.686 321.403 231.695C318.463 231.944 316.536 230.033 313.845 229.768C310.108 229.286 309.327 231.213 306.022 232.758C300.856 235.183 298.347 233.671 297.367 230.15Z" fill="#5C9040"/>
<path d="M245.673 175.7C245.412 174.7 245.256 173.675 245.208 172.643C244.826 166.298 238.763 167.294 233.581 166.447C229.544 165.766 240.225 155.584 232.086 152.311C230.506 151.869 229.123 150.903 228.165 149.571C227.757 148.572 227.712 147.462 228.036 146.434C228.361 145.405 229.036 144.523 229.943 143.94C231.795 142.817 233.943 142.279 236.105 142.395C237.434 140.734 236.355 138.358 235.076 136.714C233.796 135.069 232.218 133.192 232.7 131.166C233.431 128.109 237.683 127.993 240.806 128.591C241.952 126.731 241.936 124.422 242.467 122.329C242.999 120.236 244.693 118.01 246.853 118.276C249.012 118.542 250.175 120.817 252.135 121.282C254.444 121.831 256.454 119.787 258.264 118.243C260.075 116.698 263.247 115.751 264.51 117.778C265.257 118.99 264.809 120.684 265.59 121.864C266.935 123.94 270.141 122.661 272.134 121.183C274.128 119.704 277.284 118.392 278.679 120.435C279.036 121.103 279.294 121.819 279.443 122.561C280.39 125.269 283.33 126.614 285.606 128.359C287.881 130.103 289.692 133.558 287.765 135.684C286.818 136.73 285.141 137.146 284.659 138.491C284.077 140.152 285.772 141.647 287.117 142.793C289.36 144.704 289.775 150.418 286.802 151.979C285.556 152.644 283.729 152.843 283.479 154.205C283.23 155.567 284.459 156.398 285.273 157.345C285.795 158.018 286.165 158.795 286.358 159.625C286.552 160.454 286.564 161.315 286.393 162.15C286.223 162.984 285.874 163.772 285.372 164.459C284.869 165.146 284.223 165.717 283.479 166.132C282.765 166.464 281.818 166.746 281.619 167.494C281.51 168.052 281.568 168.63 281.785 169.155C282.083 170.184 282.184 171.261 282.084 172.328C282.086 172.699 281.943 173.056 281.685 173.324C281.413 173.513 281.086 173.607 280.755 173.59C276.47 173.789 274.393 172.261 271.785 175.998C271.593 176.382 271.296 176.702 270.928 176.923C270.561 177.144 270.138 177.255 269.709 177.244C266.752 177.477 264.842 175.583 262.135 175.301C258.414 174.819 257.616 176.746 254.327 178.307C249.145 180.733 246.637 179.271 245.673 175.7Z" fill="#5C9040"/>
<path d="M203.449 177.859C203.188 176.859 203.032 175.835 202.984 174.802C202.618 168.457 196.555 169.454 191.356 168.606C187.336 167.925 198.001 157.743 189.878 154.471C188.296 154.034 186.912 153.066 185.958 151.73C185.535 150.724 185.483 149.6 185.811 148.56C186.14 147.519 186.828 146.629 187.752 146.049C189.611 144.928 191.763 144.39 193.931 144.504C195.243 142.843 194.164 140.468 192.884 138.823C191.605 137.179 190.027 135.302 190.526 133.275C191.257 130.219 195.509 130.103 198.632 130.701C199.778 128.84 199.745 126.531 200.293 124.422C200.841 122.312 202.519 120.119 204.678 120.385C206.838 120.651 208 122.927 209.944 123.392C212.269 123.94 214.263 121.897 216.09 120.352C217.917 118.807 221.073 117.86 222.335 119.887C223.083 121.1 222.634 122.794 223.415 123.973C224.761 126.05 227.967 124.771 229.943 123.292C231.92 121.814 235.093 120.502 236.588 122.545C236.933 123.217 237.19 123.932 237.352 124.671C238.298 127.378 241.222 128.724 243.514 130.468C245.807 132.212 247.601 135.667 245.674 137.793C244.71 138.84 243.033 139.255 242.567 140.601C241.969 142.262 243.68 143.757 245.026 144.903C247.268 146.813 247.684 152.527 244.71 154.089C243.464 154.753 241.637 154.952 241.388 156.314C241.139 157.677 242.368 158.507 243.199 159.454C243.722 160.127 244.094 160.906 244.288 161.736C244.481 162.567 244.492 163.43 244.32 164.265C244.148 165.1 243.797 165.888 243.291 166.575C242.784 167.261 242.135 167.83 241.388 168.241C240.674 168.573 239.727 168.856 239.544 169.603C239.427 170.161 239.485 170.741 239.71 171.264C239.995 172.296 240.09 173.371 239.993 174.437C240.001 174.806 239.864 175.164 239.611 175.434C239.333 175.623 239 175.716 238.664 175.699C234.378 175.899 232.319 174.37 229.694 178.108C229.473 178.484 229.172 178.807 228.814 179.055C228.44 179.237 228.033 179.339 227.618 179.354C224.678 179.586 222.751 177.693 220.06 177.41C216.322 176.929 215.525 178.855 212.236 180.4C206.937 182.892 204.429 181.397 203.449 177.859Z" fill="#5C9040"/>
<path d="M177.803 195.134C177.548 194.134 177.397 193.109 177.355 192.078C176.973 185.732 170.91 186.729 165.727 185.882C161.707 185.201 172.371 175.018 164.249 171.746C162.666 171.309 161.282 170.341 160.328 169.005C159.92 168.007 159.875 166.897 160.2 165.868C160.524 164.84 161.199 163.957 162.106 163.374C163.972 162.242 166.139 161.703 168.318 161.829C169.647 160.168 168.567 157.793 167.288 156.148C166.009 154.504 164.431 152.627 164.913 150.6C165.644 147.544 169.896 147.428 173.019 148.026C174.165 146.165 174.149 143.856 174.68 141.763C175.212 139.671 176.906 137.445 179.065 137.71C181.225 137.976 182.388 140.252 184.331 140.717C186.657 141.265 188.667 139.222 190.477 137.677C192.288 136.132 195.46 135.186 196.723 137.212C197.47 138.425 197.022 140.119 197.803 141.298C199.148 143.375 202.354 142.096 204.347 140.617C206.34 139.139 209.497 137.827 210.892 139.87C211.242 140.54 211.499 141.256 211.656 141.996C212.603 144.704 215.526 146.049 217.819 147.793C220.111 149.537 221.905 152.992 219.978 155.119C219.031 156.165 217.353 156.58 216.872 157.926C216.274 159.587 217.985 161.082 219.33 162.228C221.573 164.138 221.988 169.852 219.015 171.414C217.769 172.078 215.942 172.278 215.692 173.64C215.443 175.002 216.656 175.832 217.486 176.779C218.008 177.452 218.378 178.23 218.571 179.059C218.765 179.889 218.777 180.75 218.606 181.584C218.436 182.419 218.087 183.207 217.584 183.894C217.082 184.581 216.436 185.151 215.692 185.566C214.978 185.898 214.031 186.181 213.832 186.928C213.723 187.486 213.781 188.064 213.998 188.589C214.296 189.619 214.397 190.695 214.297 191.762C214.314 191.938 214.291 192.115 214.229 192.281C214.167 192.446 214.069 192.596 213.941 192.717C213.812 192.839 213.658 192.93 213.49 192.983C213.321 193.036 213.143 193.051 212.968 193.024C208.683 193.224 206.606 191.696 203.998 195.433C203.775 195.813 203.469 196.137 203.101 196.38C202.737 196.57 202.333 196.672 201.922 196.679C198.965 196.911 197.038 195.018 194.347 194.735C190.61 194.254 189.829 196.181 186.54 197.742C181.291 200.167 178.783 198.672 177.803 195.134Z" fill="#5C9040"/>
<path d="M187.536 215.75C187.536 215.75 197.916 230.42 201.498 235.031C205.081 239.642 222.948 268.659 225.39 287.811C225.647 289.868 225.904 291.619 226.145 293.162C218.465 343.934 219.719 549.015 219.944 564.921H254.391C250.616 407.817 246.631 270.893 247.402 265.864C248.206 260.562 258.392 240.397 274.138 232.123C289.884 223.848 303.477 196.422 303.477 196.422H298.464C298.464 196.422 289.161 213.228 275.97 222.531C274.065 223.843 272.074 225.024 270.009 226.065C270.048 215.949 268.268 205.908 264.755 196.422L262.039 198.928C265.703 213.903 265.253 223.479 264.112 228.99C259.115 231.338 254.501 234.426 250.423 238.148C236.702 220.297 228.989 179.471 228.989 179.471L225.471 181.399C226.469 189.828 227.983 198.187 230.002 206.431C232.572 217.004 240.14 236.959 243.675 245.924C239.458 251.983 235.974 258.52 233.295 265.398C232.928 264.807 232.485 264.267 231.978 263.791C223.028 255.757 206.27 217.502 206.27 217.502C202.205 208.633 208.423 185.367 208.423 185.367H203.732L201.627 205.757L189.818 192.903L187.665 194.702L200.197 210.769L206.624 231.175L189.689 212.537L187.536 215.75Z" fill="#5C9040"/>
<path d="M921.979 565.306H91.4375V565.721H921.979V565.306Z" fill="#2B2B2B"/>
<g clip-path="url(#clip1_142_12427)">
<rect width="7.69747" height="9.23696" transform="translate(257.155 695.288)" fill="#AB7373"/>
<path d="M259.562 697.378C259.562 697.378 259.43 697.218 259.31 697.342L259.278 697.201C259.278 697.201 259.524 697.082 259.595 697.293L259.562 697.378Z" fill="#F9C034"/>
<path d="M257.647 702.963C257.647 702.963 257.604 702.745 257.447 702.776L257.48 702.635C257.48 702.635 257.741 702.686 257.711 702.912L257.647 702.963Z" fill="#F9C034"/>
<path d="M263.795 703.827C263.795 703.827 263.624 703.737 263.55 703.906L263.477 703.789C263.477 703.789 263.667 703.569 263.799 703.733L263.795 703.827Z" fill="#F9C034"/>
<path d="M261.555 695.788C261.555 695.788 261.323 695.845 261.35 696.084L261.203 696.028C261.203 696.028 261.267 695.633 261.502 695.687L261.555 695.788Z" fill="#F9C034"/>
<path d="M257.953 698.434C257.953 698.434 257.767 698.459 257.774 698.65L257.661 698.593C257.661 698.593 257.735 698.288 257.917 698.351L257.953 698.434Z" fill="#1388B6"/>
<path d="M259.477 700.081C259.477 700.081 259.446 700.302 259.601 700.347L259.524 700.46C259.524 700.46 259.3 700.291 259.401 700.099L259.477 700.081Z" fill="#1388B6"/>
<path d="M263.356 701.094C263.356 701.094 263.349 700.87 263.189 700.865L263.245 700.734C263.245 700.734 263.493 700.845 263.428 701.058L263.356 701.094Z" fill="#1388B6"/>
<path d="M259.551 696.064C259.551 696.064 259.544 695.84 259.385 695.835L259.44 695.704C259.44 695.704 259.688 695.814 259.623 696.028L259.551 696.064Z" fill="#1388B6"/>
<path d="M262.184 698.227C262.184 698.227 262.358 698.306 262.425 698.133L262.503 698.245C262.503 698.245 262.322 698.476 262.184 698.32V698.227Z" fill="#1388B6"/>
<path d="M258.346 696.87C258.346 696.882 258.343 696.893 258.337 696.903C258.332 696.913 258.324 696.921 258.315 696.925C258.306 696.929 258.296 696.931 258.287 696.928C258.277 696.926 258.268 696.92 258.262 696.912C258.255 696.904 258.25 696.893 258.248 696.882C258.246 696.87 258.247 696.858 258.251 696.848C258.255 696.837 258.261 696.828 258.269 696.821C258.277 696.815 258.287 696.811 258.296 696.811C258.31 696.811 258.322 696.817 258.331 696.828C258.341 696.839 258.346 696.855 258.346 696.87Z" fill="#2B2B2B"/>
<path d="M258.025 700.103C258.025 700.114 258.023 700.126 258.017 700.136C258.012 700.145 258.004 700.153 257.995 700.157C257.986 700.162 257.976 700.163 257.966 700.161C257.957 700.158 257.948 700.153 257.941 700.145C257.934 700.136 257.93 700.126 257.928 700.114C257.926 700.103 257.927 700.091 257.931 700.08C257.934 700.069 257.941 700.06 257.949 700.053C257.957 700.047 257.966 700.043 257.976 700.043C257.989 700.043 258.002 700.05 258.011 700.061C258.02 700.072 258.025 700.087 258.025 700.103Z" fill="#2B2B2B"/>
<path d="M264.505 700.783C264.505 700.795 264.502 700.807 264.497 700.816C264.491 700.826 264.484 700.834 264.474 700.838C264.465 700.843 264.456 700.844 264.446 700.841C264.436 700.839 264.428 700.834 264.421 700.825C264.414 700.817 264.409 700.806 264.407 700.795C264.405 700.783 264.406 700.772 264.41 700.761C264.414 700.75 264.42 700.741 264.428 700.734C264.436 700.728 264.446 700.724 264.456 700.724C264.469 700.724 264.481 700.73 264.491 700.741C264.5 700.753 264.505 700.768 264.505 700.783Z" fill="#2B2B2B"/>
<path d="M259.233 703.157C259.233 703.169 259.23 703.181 259.224 703.19C259.219 703.2 259.211 703.208 259.202 703.212C259.193 703.217 259.183 703.218 259.174 703.215C259.164 703.213 259.155 703.208 259.148 703.199C259.141 703.191 259.137 703.18 259.135 703.169C259.133 703.157 259.134 703.146 259.138 703.135C259.141 703.124 259.148 703.115 259.156 703.108C259.164 703.102 259.173 703.098 259.183 703.098C259.196 703.098 259.209 703.104 259.218 703.115C259.227 703.127 259.233 703.142 259.233 703.157Z" fill="#2B2B2B"/>
</g>
<path opacity="0.2" d="M204.237 622.063L287.239 635.58L422.863 616.774L523.978 643.78L625.974 620.896L720.538 802.786L568.138 838.952L421.893 823.794L250.968 840L143.228 796.788L204.237 622.063Z" fill="#2B2B2B"/>
<path d="M179.952 585.627L271.797 600.445L421.9 579.826L533.787 609.432L646.663 584.335L751.329 783.809L582.672 823.46L420.824 806.836L231.667 824.606L112.439 777.23L179.952 585.627Z" fill="white"/>
<path d="M197.825 598.575L269.444 611.455L421.098 592.143L535.957 619.195L635.339 596.651L720.538 776.602L576.784 812.29L421.893 797.457L233.311 810.513L143.228 770.64L197.825 598.575Z" fill="#57ACCD"/>
<g opacity="0.64">
<path d="M605.117 678.017L549.656 692.536H532.785C532.785 692.536 554.491 713.433 596.27 717.445C638.05 721.457 647.705 713.433 647.705 713.433L605.117 678.017Z" fill="white"/>
<path d="M364.018 604.891L327.044 612.93L322.224 625.788L345.531 620.968L339.903 649.889L367.236 646.686L372.057 613.723L364.018 604.891Z" fill="white"/>
<path d="M340.712 654.709L338.302 669.184L354.379 665.965V653.915L340.712 654.709Z" fill="white"/>
<path d="M331.071 654.71L327.853 670.787L296.507 674.814L297.315 663.557L331.071 654.71Z" fill="white"/>
<path d="M516.281 726.248C500.968 726.248 488.55 734.154 488.55 743.882C488.55 753.611 500.968 761.517 516.281 761.517C531.593 761.517 544.011 753.596 544.011 743.882C544.011 734.169 531.623 726.248 516.281 726.248ZM516.281 751.95C509.315 751.95 503.672 748.365 503.672 743.926C503.672 739.488 509.315 735.888 516.281 735.888C523.246 735.888 528.919 739.562 528.919 743.971C528.919 748.379 523.276 751.95 516.281 751.95Z" fill="white"/>
<path d="M296.508 789.733L318.213 736.682L269.997 739.106L262.752 757.579H285.251L268.38 796.155L296.508 789.733Z" fill="white"/>
<path d="M389.738 674.005L421.878 666.774L463.672 679.633L431.518 685.247L422.686 678.017L389.738 684.453V674.005Z" fill="white"/>
<path d="M391.339 643.467L392.147 664.365L406.608 661.146L404.198 642.659L391.339 643.467Z" fill="white"/>
<path d="M191.228 654.71L178.369 691.684L230.612 705.351L238.651 676.415L216.152 655.518L191.228 654.71Z" fill="white"/>
</g>
<path d="M708.544 752.198L687.713 731.607C691.305 731.151 694.779 730.651 698.106 730.136L695.5 724.606C691.334 725.224 686.962 725.812 682.398 726.342L620.303 664.936C636.805 662.48 652.484 660.362 664.467 659.127L661.803 653.508C648.848 654.891 632.36 657.171 615.371 659.73L615.547 658.656L613.56 658.347L591.669 636.697L640.824 608.944L638.307 603.619L587.37 632.388L565.582 610.856L558.781 612.326L603.726 656.744L460.779 634.403C460.087 632.829 459.396 631.255 458.762 629.638C454.675 619.271 451.503 608.567 449.282 597.648L442.951 596.177C445.277 608.287 448.727 620.153 453.257 631.623L453.963 633.344L420.472 628.093L385.905 631.108L384.669 595.221L378.78 595.971L382.004 694.146C380.002 694.146 378 694.146 376.115 694.058C321.719 692.484 262.965 676.629 254.265 671.893C248.376 668.643 235.127 653.332 228.075 644.64C242.488 643.889 256.429 641.948 264.673 637.668C275.979 631.785 302.728 616.268 325.709 602.737L310.869 604.634C291.245 616.121 271.298 627.623 261.979 632.447C245.299 641.095 200.634 639.301 183.483 638.242L181.643 644.037C188.032 644.463 199.191 645.051 211.557 645.051C214.502 645.051 217.667 645.051 220.773 644.934C222.981 647.728 242.34 672.084 251.453 677.056C260.566 682.027 319.717 698.309 375.954 699.926C378.024 699.985 380.13 700.015 382.269 700.015L382.711 713.443L337.707 714.752L337.03 714.517L336.941 714.767L247.552 717.37L165.023 696.485L163.241 702.103L214.075 714.943L166.966 780.584L172.472 783.011L220.258 716.502L246.963 723.253L334.895 720.694L309.294 792.895L279.218 806.132L296.56 804.94L420.692 750.345L509.272 702.941C519.354 709.657 530.233 715.092 541.66 719.12C552.027 722.751 562.613 725.723 573.355 728.018L560.371 753.978L506.858 804.661L514.631 805.396L564.802 757.89L565.17 757.537L579.332 729.239C594.241 732.063 609.337 733.793 624.498 734.416L612.574 802.072L618.83 800.528L630.519 734.578C633.596 734.652 636.643 734.71 639.661 734.71C653.221 734.696 666.769 733.955 680.249 732.49L715.919 767.788L708.544 752.198ZM316.684 789.674L341.152 720.547L382.902 719.355L384.242 759.993L316.684 789.674ZM599.869 662.186C565.715 667.569 533.107 673.393 526.011 674.805L520.122 675.997C513.821 677.306 504.002 679.35 492.077 681.586C480.325 669.724 470.7 655.933 463.621 640.816L599.869 662.186ZM386.141 636.991L420.221 634.05L456.643 639.757C463.755 655.624 473.462 670.197 485.364 682.88C465.343 686.513 440.611 690.425 416.512 692.558L416.261 692.19L415.584 692.646C406.162 693.455 396.858 693.999 387.966 694.117L386.141 636.991ZM388.202 699.941C393.914 699.853 399.803 699.588 405.765 699.206L388.57 710.795L388.202 699.941ZM418.263 744.977L390.086 757.361L388.791 717.752L417.645 698.294C443.437 695.97 469.833 691.675 490.473 687.851C494.709 691.892 499.199 695.66 503.914 699.132L418.263 744.977ZM543.662 713.472C526.633 707.609 510.925 698.453 497.436 686.528C507.52 684.601 515.809 682.88 521.373 681.718L527.159 680.527C537.67 678.424 576.329 671.702 613.03 666.039L674.861 727.121C637.689 730.695 589.991 729.827 543.662 713.472Z" fill="white"/>
<path d="M212.487 599.84C207.634 599.84 202.829 600.797 198.346 602.657C193.863 604.516 189.79 607.241 186.361 610.676C182.931 614.111 180.212 618.188 178.358 622.676C176.505 627.163 175.553 631.971 175.559 636.827C175.559 657.229 212.487 695.289 212.487 695.289C212.487 695.289 249.454 657.229 249.454 636.827C249.454 627.017 245.559 617.61 238.627 610.673C231.694 603.737 222.291 599.84 212.487 599.84ZM212.487 651.542C210.008 651.542 207.586 650.806 205.526 649.428C203.466 648.049 201.861 646.09 200.915 643.799C199.968 641.507 199.722 638.987 200.209 636.555C200.695 634.124 201.892 631.892 203.647 630.142C205.402 628.391 207.637 627.201 210.068 626.722C212.5 626.243 215.019 626.497 217.306 627.451C219.593 628.406 221.546 630.018 222.917 632.083C224.288 634.148 225.016 636.574 225.008 639.054C224.987 642.363 223.658 645.529 221.312 647.861C218.967 650.193 215.794 651.502 212.487 651.502V651.542Z" fill="#1388B6"/>
<path d="M487.844 704.965L486.727 700.017L480.852 699.482L482.658 706.081C484.436 707.559 487.285 706.561 487.844 704.965Z" fill="white" stroke="black" stroke-width="0.207142"/>
<path d="M487.501 703.821C486.845 705.535 482.999 705.683 481.339 702.982C481.246 702.83 481.054 702.766 480.893 702.842C479.907 703.311 478.879 703.734 477.844 704.116C477.163 704.368 476.479 704.601 475.802 704.818C475.173 705.019 474.55 705.206 473.94 705.38C473.183 705.595 472.447 705.789 471.747 705.964C469.152 706.613 467.055 706.995 466.229 707.195C465.13 707.46 463.479 709.257 463.761 710.843C463.926 711.772 463.06 712.825 466.75 713.062C470.215 713.286 484.603 713.774 488.657 713.505C489.055 713.478 489.378 713.191 489.463 712.801C489.568 712.314 489.666 711.768 489.742 711.192C490.126 708.279 489.961 704.601 487.501 703.821Z" fill="#2B2B2B"/>
<path d="M463.761 710.843C463.479 709.257 465.13 707.46 466.229 707.195C467.055 706.995 469.152 706.613 471.747 705.964M463.761 710.843C463.926 711.772 463.06 712.825 466.75 713.062C470.215 713.286 484.603 713.774 488.657 713.505C489.055 713.478 489.378 713.191 489.463 712.801C489.568 712.314 489.666 711.768 489.742 711.192M463.761 710.843C469.193 711.979 484.73 712.13 489.742 711.192M489.742 711.192C490.126 708.279 489.961 704.601 487.501 703.821C486.845 705.535 482.999 705.683 481.339 702.982C481.246 702.83 481.054 702.766 480.893 702.842C479.907 703.311 478.879 703.734 477.844 704.116M477.844 704.116L478.375 707.131C478.394 707.235 478.362 707.342 478.284 707.414C477.777 707.883 476.816 708.499 476.229 707.903C475.59 707.256 475.678 705.577 475.802 704.818M477.844 704.116C477.163 704.368 476.479 704.601 475.802 704.818M475.802 704.818C475.173 705.019 474.55 705.206 473.94 705.38M473.94 705.38L474.443 707.726C474.482 707.91 474.444 708.104 474.317 708.243C473.891 708.709 473.152 709.227 472.55 708.687C471.846 708.055 471.721 706.609 471.747 705.964M473.94 705.38C473.183 705.595 472.447 705.789 471.747 705.964" stroke="black" stroke-width="0.207142"/>
<path fill-rule="evenodd" clip-rule="evenodd" d="M481.704 703.489C483.503 705.655 486.889 705.418 487.501 703.82C489.961 704.6 490.126 708.278 489.742 711.191C484.73 712.129 469.193 711.978 463.761 710.842C463.479 709.256 465.13 707.459 466.229 707.194C466.505 707.127 466.923 707.04 467.455 706.929C468.513 706.709 470.019 706.395 471.747 705.963C471.721 706.608 471.846 708.054 472.55 708.686C473.152 709.226 473.891 708.708 474.317 708.242C474.444 708.103 474.482 707.909 474.443 707.725L473.94 705.379C474.55 705.205 475.173 705.018 475.802 704.817C475.678 705.576 475.59 707.255 476.229 707.902C476.816 708.498 477.777 707.882 478.284 707.413C478.362 707.341 478.394 707.234 478.375 707.13L477.844 704.115C478.682 703.806 479.515 703.47 480.325 703.104C480.805 702.888 481.367 703.085 481.704 703.489Z" fill="#F9C034"/>
<path d="M463.761 710.842C463.479 709.256 465.13 707.459 466.229 707.194C466.505 707.127 466.923 707.04 467.455 706.929C468.513 706.709 470.019 706.395 471.747 705.963M463.761 710.842C469.193 711.978 484.73 712.129 489.742 711.191M463.761 710.842C463.791 711.013 463.787 711.189 463.782 711.364C463.762 712.132 463.742 712.867 466.75 713.061C469.913 713.265 482.179 713.69 487.376 713.557M489.742 711.191C490.126 708.278 489.961 704.6 487.501 703.82C486.889 705.418 483.503 705.655 481.704 703.489M489.742 711.191C489.726 711.306 489.71 711.421 489.693 711.534M477.844 704.115L478.375 707.13C478.394 707.234 478.362 707.341 478.284 707.413C477.777 707.882 476.816 708.498 476.229 707.902C475.59 707.255 475.678 705.576 475.802 704.817M477.844 704.115C477.163 704.367 476.479 704.6 475.802 704.817M477.844 704.115C478.682 703.806 479.515 703.47 480.325 703.104M475.802 704.817C475.173 705.018 474.55 705.205 473.94 705.379M473.94 705.379L474.443 707.725C474.482 707.909 474.444 708.103 474.317 708.242C473.891 708.708 473.152 709.226 472.55 708.686C471.846 708.054 471.721 706.608 471.747 705.963M473.94 705.379C473.183 705.594 472.447 705.788 471.747 705.963M481.704 703.489C481.367 703.085 480.805 702.888 480.325 703.104M481.704 703.489C481.573 703.333 481.451 703.163 481.339 702.981C481.246 702.829 481.054 702.765 480.893 702.841C480.705 702.93 480.515 703.018 480.325 703.104M487.376 713.557C488.554 713.528 489.519 712.699 489.693 711.534M487.376 713.557C487.871 713.545 488.303 713.527 488.656 713.504C489.053 713.477 489.378 713.19 489.463 712.8C489.547 712.411 489.626 711.984 489.693 711.534" stroke="black" stroke-width="0.207142"/>
<path d="M554.315 670.962L551.727 666.599L545.973 667.902L549.726 673.622C551.873 674.48 554.276 672.652 554.315 670.962Z" fill="white" stroke="black" stroke-width="0.207142"/>
<path d="M553.637 669.978C553.541 671.811 549.928 673.138 547.516 671.08C547.381 670.964 547.178 670.962 547.048 671.085C546.255 671.834 545.408 672.554 544.541 673.237C543.971 673.686 543.393 674.119 542.816 674.534C542.279 674.92 541.744 675.29 541.218 675.643C540.564 676.081 539.923 676.493 539.311 676.875C537.043 678.293 535.166 679.303 534.442 679.748C533.478 680.339 532.462 682.558 533.219 683.979C533.663 684.812 533.164 686.08 536.748 685.168C540.112 684.312 553.95 680.339 557.723 678.833C558.093 678.685 558.312 678.312 558.272 677.916C558.222 677.419 558.147 676.87 558.041 676.298C557.509 673.409 556.217 669.962 553.637 669.978Z" fill="#2B2B2B"/>
<path d="M533.219 683.979C532.462 682.558 533.478 680.339 534.442 679.748C535.166 679.303 537.043 678.293 539.311 676.875M533.219 683.979C533.663 684.812 533.164 686.08 536.748 685.168C540.112 684.312 553.95 680.339 557.723 678.833C558.093 678.685 558.312 678.312 558.272 677.916C558.222 677.419 558.147 676.87 558.041 676.298M533.219 683.979C538.737 683.384 553.564 678.736 558.041 676.298M558.041 676.298C557.509 673.409 556.217 669.962 553.637 669.978C553.541 671.811 549.928 673.138 547.516 671.08C547.381 670.964 547.178 670.962 547.048 671.085C546.255 671.834 545.408 672.554 544.541 673.237M544.541 673.237L545.977 675.941C546.026 676.034 546.029 676.146 545.977 676.238C545.64 676.841 544.916 677.723 544.173 677.338C543.366 676.919 542.932 675.294 542.816 674.534M544.541 673.237C543.971 673.686 543.393 674.119 542.816 674.534M542.816 674.534C542.279 674.92 541.744 675.29 541.218 675.643M541.218 675.643L542.42 677.72C542.514 677.883 542.537 678.08 542.459 678.251C542.198 678.825 541.654 679.546 540.915 679.218C540.05 678.834 539.486 677.496 539.311 676.875M541.218 675.643C540.564 676.081 539.923 676.493 539.311 676.875" stroke="black" stroke-width="0.207142"/>
<path fill-rule="evenodd" clip-rule="evenodd" d="M548.02 671.45C550.4 672.955 553.547 671.686 553.637 669.977C556.217 669.961 557.509 673.408 558.041 676.297C553.564 678.735 538.737 683.383 533.219 683.978C532.462 682.557 533.478 680.338 534.442 679.747C534.684 679.598 535.055 679.386 535.527 679.117C536.465 678.581 537.801 677.818 539.311 676.874C539.486 677.495 540.05 678.833 540.915 679.217C541.654 679.545 542.198 678.824 542.459 678.25C542.537 678.079 542.514 677.882 542.42 677.719L541.218 675.642C541.744 675.289 542.279 674.919 542.816 674.533C542.932 675.294 543.366 676.918 544.173 677.337C544.916 677.722 545.64 676.84 545.977 676.237C546.029 676.145 546.026 676.033 545.977 675.94L544.541 673.236C545.243 672.684 545.932 672.107 546.589 671.509C546.979 671.155 547.575 671.169 548.02 671.45Z" fill="#F9C034"/>
<path d="M533.219 683.978C532.462 682.557 533.478 680.338 534.442 679.747C534.684 679.598 535.055 679.386 535.527 679.117C536.465 678.581 537.801 677.818 539.311 676.874M533.219 683.978C538.737 683.383 553.564 678.735 558.041 676.297M533.219 683.978C533.301 684.132 533.351 684.301 533.4 684.468C533.618 685.205 533.826 685.911 536.748 685.167C539.819 684.386 551.618 681.007 556.521 679.278M558.041 676.297C557.509 673.408 556.217 669.961 553.637 669.977C553.547 671.686 550.4 672.955 548.02 671.45M558.041 676.297C558.062 676.412 558.082 676.526 558.101 676.639M544.541 673.236L545.977 675.94C546.026 676.033 546.029 676.145 545.977 676.237C545.64 676.84 544.916 677.722 544.173 677.337C543.366 676.918 542.932 675.294 542.816 674.533M544.541 673.236C543.971 673.685 543.393 674.118 542.816 674.533M544.541 673.236C545.243 672.684 545.932 672.107 546.589 671.509M542.816 674.533C542.279 674.919 541.744 675.289 541.218 675.642M541.218 675.642L542.42 677.719C542.514 677.882 542.537 678.079 542.459 678.25C542.198 678.824 541.654 679.545 540.915 679.217C540.05 678.833 539.486 677.495 539.311 676.874M541.218 675.642C540.564 676.08 539.923 676.492 539.311 676.874M548.02 671.45C547.575 671.169 546.979 671.155 546.589 671.509M548.02 671.45C547.847 671.341 547.679 671.218 547.516 671.079C547.381 670.963 547.178 670.961 547.048 671.084C546.897 671.227 546.744 671.368 546.589 671.509M556.521 679.278C557.632 678.886 558.295 677.801 558.101 676.639M556.521 679.278C556.988 679.113 557.393 678.964 557.722 678.833C558.092 678.685 558.312 678.311 558.272 677.915C558.232 677.518 558.176 677.087 558.101 676.639" stroke="black" stroke-width="0.207142"/>
<path d="M364.218 401.066C369.381 441.163 373.044 458.556 381.16 457.374C382.777 457.139 383.773 455.593 384.061 453.986L385.628 445.226L392.76 405.375L427.764 439.302C427.598 448.999 423.933 459.11 420.763 466.229C412.321 485.187 392.706 492.762 378.219 488.847C358.294 483.462 356.598 455.394 355.062 401.066H364.218Z" fill="#044057"/>
<path d="M385.628 445.226C388.066 431.606 389.916 421.267 392.76 405.375L427.764 439.302C427.598 448.999 423.933 459.11 420.763 466.229M385.628 445.226C385.134 447.987 384.616 450.882 384.061 453.986C383.773 455.593 382.777 457.139 381.16 457.374C373.044 458.556 369.381 441.163 364.218 401.066H355.062C356.598 455.394 358.294 483.462 378.219 488.847C392.706 492.762 412.321 485.187 420.763 466.229M385.628 445.226C399.154 446.309 408.914 451.932 420.763 466.229" stroke="#044057" stroke-width="0.328797"/>
<path fill-rule="evenodd" clip-rule="evenodd" d="M376.071 455.042C371.228 449.062 368.16 431.682 364.218 401.066H355.062C356.598 455.394 358.294 483.462 378.219 488.847C392.706 492.762 412.321 485.187 420.763 466.229C408.914 451.932 399.154 446.309 385.628 445.226L385.099 448.183C384.157 453.449 379.438 459.2 376.071 455.042Z" fill="white"/>
<path d="M385.628 445.226C399.154 446.309 408.914 451.932 420.763 466.229C412.321 485.187 392.706 492.762 378.219 488.847C358.294 483.462 356.598 455.394 355.062 401.066H364.218C368.16 431.682 371.228 449.062 376.071 455.042M385.628 445.226L385.099 448.183M385.628 445.226C385.455 446.194 385.279 447.179 385.099 448.183M376.071 455.042C379.438 459.2 384.157 453.449 385.099 448.183M376.071 455.042C377.574 456.898 378.881 456.703 380.595 455.875C382.065 455.164 382.989 453.695 383.619 452.188C384.164 450.886 384.791 449.907 385.099 448.183" stroke="black" stroke-width="0.328797"/>
<path d="M552.702 668.177C509.081 588.475 537.218 539.638 565.089 467.305L510.697 492.616C484.847 547.008 506.388 617.017 545.162 668.177H552.702Z" fill="#0877A2" stroke="#0877A2" stroke-width="0.328797"/>
<path d="M487.541 700.49C437.598 544.752 636.196 491.165 562.626 379.524L503.018 441.485C446.632 512.376 440.801 626.827 480.54 699.951L487.541 700.49Z" fill="#0877A2" stroke="#0877A2" stroke-width="0.328797"/>
<path d="M501.167 572.858C517.008 544.011 538.46 518.813 554.858 493.983" stroke="black" stroke-width="0.328797"/>
<path d="M392.222 411.838L406.224 384.373C434.461 345.546 516.522 346.85 557.803 374.14C560.309 375.797 562.665 377.55 564.85 379.395C565.278 379.757 565.309 380.403 564.924 380.81L490.774 459.229C487.995 460.469 485.115 461.536 482.157 462.431C453.016 471.246 416.278 463.359 393.299 440.38C387.375 433.918 387.886 424.647 392.222 411.838Z" fill="#044057"/>
<path d="M482.157 462.431C453.016 471.246 416.278 463.359 393.299 440.38C387.375 433.918 387.886 424.647 392.222 411.838L406.224 384.373C434.461 345.546 516.522 346.85 557.803 374.14M482.157 462.431C485.115 461.536 487.995 460.469 490.774 459.229L564.924 380.81C565.309 380.403 565.278 379.757 564.85 379.395C562.665 377.55 560.309 375.797 557.803 374.14M482.157 462.431L557.803 374.14" stroke="#044057" stroke-width="0.328797"/>
<path d="M406.545 395.421L378.032 378.391L365.88 399.701L394.393 416.73C407.681 416.657 413.246 406.898 406.545 395.421Z" fill="white" stroke="black" stroke-width="0.373132"/>
<path d="M341.52 396.224C351.687 410.939 366.345 417.837 378.475 411.465C379.371 410.994 380.175 410.362 380.863 409.621C388.088 401.836 389.812 391.462 384.641 380.717C376.375 364.899 370.986 359.226 359.222 358.227L341.52 396.224Z" fill="white" stroke="black" stroke-width="0.373132"/>
<path d="M321.347 382.719C323.591 407.895 351.639 415.599 363.021 375.322C364.799 379.428 366.92 382.799 371.811 384.184L373.636 380.267C371.036 379.056 369.512 377.236 368.939 374.504C368.038 370.212 370.052 368.437 372.114 368.255C374.397 368.052 379.178 370.635 377.957 377.216C380.897 377.608 383.016 379.327 384.999 381.776C397.212 368.153 372.219 351.339 356.983 352.292C355.995 352.353 355.055 352.735 354.296 353.37C342.553 363.198 337.835 388.959 321.347 382.719Z" fill="#2B2B2B" stroke="black" stroke-width="0.376117"/>
<path d="M375.932 377.875C373.831 377.364 372.364 376.349 371.568 374.929M371.146 369.864C370.66 371.862 370.811 373.578 371.568 374.929M371.568 374.929C371.347 372.696 373.378 370.296 375.563 373.443" stroke="black" stroke-width="0.376117" stroke-linecap="round"/>
<path d="M359.413 390.933C360.38 387.523 362.626 385.448 366.829 384.766" stroke="black" stroke-width="0.59701" stroke-linecap="round"/>
<circle cx="366.933" cy="392.583" r="2.50345" transform="rotate(-38.5887 366.933 392.583)" fill="black"/>
<path d="M351.899 405.662C351.114 402.457 351.977 399.745 355.066 397.261" stroke="black" stroke-width="0.59701" stroke-linecap="round"/>
<circle cx="358.609" cy="405.347" r="2.50345" transform="rotate(-45.1155 358.609 405.347)" fill="black"/>
<path d="M361.383 398.483L366.328 404.974C366.621 405.358 367.133 405.522 367.571 405.318C369.052 404.625 369.71 403.557 370.155 400.837" stroke="black" stroke-width="0.373132" stroke-linecap="round"/>
<path d="M376.295 407.145C374.801 407.541 373.207 407.197 372.103 406.747C371.769 406.611 371.673 406.198 371.882 405.905C374.434 402.32 375.709 400.369 376.926 396.299C377.028 395.96 377.399 395.773 377.704 395.953C378.592 396.474 379.313 397.318 379.768 398.353M376.295 407.145C377.304 406.877 378.267 406.273 379.004 405.137C380.544 402.761 380.598 400.238 379.768 398.353M376.295 407.145C375.898 405.177 376.036 400.664 379.768 398.353" stroke="black" stroke-width="0.376117"/>
<path fill-rule="evenodd" clip-rule="evenodd" d="M376.759 396.844C375.645 400.375 374.438 402.296 372.222 405.426C371.834 405.974 372.015 406.742 372.655 406.948C373.704 407.287 375.035 407.479 376.295 407.145C375.898 405.177 376.036 400.664 379.768 398.353C379.397 397.508 378.848 396.791 378.177 396.272C377.655 395.869 376.957 396.215 376.759 396.844Z" fill="#2B2B2B"/>
<path d="M376.295 407.145C377.304 406.877 378.267 406.273 379.004 405.137C380.544 402.761 380.598 400.238 379.768 398.353M376.295 407.145C375.898 405.177 376.036 400.664 379.768 398.353M376.295 407.145C375.035 407.479 373.704 407.287 372.655 406.948M379.768 398.353C379.397 397.508 378.848 396.791 378.177 396.272M372.222 405.426C374.438 402.296 375.645 400.375 376.759 396.844M372.222 405.426C371.834 405.974 372.015 406.742 372.655 406.948M372.222 405.426C372.111 405.583 371.998 405.743 371.881 405.906C371.672 406.2 371.769 406.611 372.103 406.747C372.276 406.818 372.461 406.886 372.655 406.948M376.759 396.844C376.957 396.215 377.655 395.869 378.177 396.272M376.759 396.844C376.815 396.666 376.871 396.484 376.927 396.297C377.028 395.958 377.399 395.773 377.704 395.953C377.868 396.049 378.025 396.155 378.177 396.272" stroke="black" stroke-width="0.376117"/>
<path d="M482.157 462.431C453.016 471.246 416.278 463.359 393.299 440.38C388.422 435.059 387.906 427.835 390.296 418.3C390.809 416.254 396.303 422.179 397.069 419.915L399.762 397.049L406.224 384.373C434.461 345.546 516.522 346.85 557.803 374.14L482.157 462.431Z" fill="#0877A2" stroke="#0877A2" stroke-width="0.328797"/>
<mask id="mask0_142_12427" style="mask-type:alpha" maskUnits="userSpaceOnUse" x="388" y="354" width="178" height="113">
<path d="M392.221 411.838L406.223 384.373C434.46 345.546 516.521 346.85 557.802 374.14C560.308 375.797 562.664 377.55 564.849 379.395C565.277 379.757 565.308 380.403 564.923 380.81L490.773 459.229C487.994 460.469 485.114 461.536 482.156 462.431C453.015 471.246 416.277 463.359 393.298 440.38C387.374 433.918 387.885 424.647 392.221 411.838Z" fill="#FF7A57"/>
<path d="M482.156 462.431C453.015 471.246 416.277 463.359 393.298 440.38C387.374 433.918 387.885 424.647 392.221 411.838L406.223 384.373C434.46 345.546 516.521 346.85 557.802 374.14M482.156 462.431C485.114 461.536 487.994 460.469 490.773 459.229L564.923 380.81C565.308 380.403 565.277 379.757 564.849 379.395C562.664 377.55 560.308 375.797 557.802 374.14M482.156 462.431L557.802 374.14" stroke="black" stroke-width="0.328797"/>
</mask>
<g mask="url(#mask0_142_12427)">
<path fill-rule="evenodd" clip-rule="evenodd" d="M551.973 358.774L474.424 474.02L467.275 469.209L544.824 353.963L551.973 358.774Z" fill="#08445B"/>
<path fill-rule="evenodd" clip-rule="evenodd" d="M414.574 407.568C417.115 393.56 414.483 378.293 404.1 360.122L411.581 355.847C422.739 375.374 426.031 392.688 423.052 409.106C420.099 425.384 411.081 440.206 398.764 454.986L392.145 449.47C404.062 435.169 412.007 421.718 414.574 407.568Z" fill="#08445B"/>
<path fill-rule="evenodd" clip-rule="evenodd" d="M430.709 405.948C433.167 389.561 429.84 372.794 420.07 351.14L427.924 347.596C438.078 370.101 442.022 388.608 439.23 407.226C436.454 425.728 427.105 443.76 411.909 465.469L404.85 460.527C419.811 439.153 428.233 422.45 430.709 405.948Z" fill="#08445B"/>
<path fill-rule="evenodd" clip-rule="evenodd" d="M448.305 402.336C451.897 380.386 448.621 359.697 438.938 338.792L446.756 335.17C457.096 357.493 460.704 379.922 456.808 403.728C452.927 427.448 441.644 452.247 422.687 479.462L415.616 474.537C434.122 447.97 444.699 424.373 448.305 402.336Z" fill="#08445B"/>
<path fill-rule="evenodd" clip-rule="evenodd" d="M457.796 475.705L517.034 349.688L524.832 353.354L465.594 479.37L457.796 475.705Z" fill="#08445B"/>
<path fill-rule="evenodd" clip-rule="evenodd" d="M449.001 474.532L494.776 340.437L502.931 343.221L457.155 477.315L449.001 474.532Z" fill="#08445B"/>
<path fill-rule="evenodd" clip-rule="evenodd" d="M461.634 400.903C466.64 377.408 467.603 357.182 465.004 343.721L473.464 342.087C476.374 357.154 475.182 378.665 470.061 402.699C464.92 426.824 455.744 453.842 442.375 480.035L434.7 476.117C447.719 450.611 456.646 424.307 461.634 400.903Z" fill="#08445B"/>
</g>
<path d="M382.527 565.317L354.523 529.774C352.654 531.672 347.144 536.254 346.445 537.313L376.065 570.702C378.219 571.782 383.066 568.55 382.527 565.317Z" fill="#666666"/>
<path fill-rule="evenodd" clip-rule="evenodd" d="M352.02 533.455C366.278 521.844 359.69 485.815 337.304 452.982C314.919 420.149 286.13 402.683 270.513 413.992C267.955 415.696 265.062 418.414 263.166 420.542C250.231 432.753 257.222 467.963 279.234 500.249C301.128 532.361 329.808 549.738 344.291 540.033C344.678 539.773 345.056 539.494 345.422 539.196C346.141 538.611 346.805 537.961 347.416 537.252L352.02 533.455ZM285.669 495.023C266.004 466.181 258.254 434.371 266.373 419.281C266.922 418.261 267.82 417.518 268.862 417.194C304.038 406.257 367.159 496.325 349.295 533.523C348.566 535.04 347.279 536.166 345.748 536.54C330.186 540.34 305.154 523.602 285.669 495.023Z" fill="#57ACCD"/>
<path d="M482.695 437.689C474.617 490.463 443.626 530.961 379.297 560.473L376.604 564.242C373.911 568.012 369.409 567.814 366.146 565.169C364.239 565.021 362.646 564.157 362.064 562.267C360.961 561.779 360.3 560.87 360.448 559.395C357.755 557.241 359.371 554.549 360.987 554.01L362.951 555.974C363.414 556.438 364.055 556.688 364.707 556.626C367.697 556.339 369.515 555.556 371.967 553.771C372.533 553.359 373.018 552.724 372.849 552.045C372.58 550.969 371.386 550.736 370.68 550.779L368.815 547.981C368.681 547.78 368.804 547.508 369.044 547.479C372.906 547.01 374.779 547.835 377.122 550.281C377.451 550.625 377.978 550.703 378.382 550.449C417.05 526.144 431.854 475.142 420.764 435.533C420.417 433.698 420.109 431.903 419.84 430.148C416.186 406.362 419.668 389.909 432.779 380.436C434.743 379.017 437.015 378.075 439.393 377.605C460.586 373.415 483.817 384.346 483.025 430.148C482.983 432.563 482.874 435.076 482.695 437.689Z" fill="#044057"/>
<path d="M372.296 557.241C370.501 558.318 365.941 560.365 362.064 559.934C361.643 559.887 360.748 559.52 360.448 559.395M360.448 559.395C357.755 557.241 359.371 554.549 360.987 554.01L362.951 555.974C363.414 556.438 364.055 556.688 364.707 556.626C367.697 556.339 369.515 555.556 371.967 553.771C372.533 553.359 373.018 552.724 372.849 552.045C372.58 550.969 371.386 550.736 370.68 550.779L368.815 547.981C368.681 547.78 368.804 547.508 369.044 547.479C372.906 547.01 374.779 547.835 377.122 550.281C377.451 550.625 377.978 550.703 378.382 550.449C417.05 526.144 431.854 475.142 420.764 435.533C420.417 433.698 420.109 431.903 419.84 430.148M360.448 559.395C360.3 560.87 360.961 561.779 362.064 562.267M373.373 559.934C371.026 561.889 364.988 563.561 362.064 562.267M362.064 562.267C362.646 564.157 364.239 565.021 366.146 565.169M374.45 562.088C372.517 564.021 368.984 565.388 366.146 565.169M366.146 565.169C369.409 567.814 373.911 568.012 376.604 564.242L379.297 560.473C443.626 530.961 474.617 490.463 482.695 437.689C482.874 435.076 482.983 432.563 483.025 430.148M419.84 430.148C416.186 406.362 419.668 389.909 432.779 380.436C434.743 379.017 437.015 378.075 439.393 377.605C460.586 373.415 483.817 384.346 483.025 430.148M419.84 430.148C434.227 417.223 473.54 417.223 483.025 430.148" stroke="#044057" stroke-width="0.328797" stroke-linecap="round" stroke-linejoin="round"/>
<path fill-rule="evenodd" clip-rule="evenodd" d="M419.84 430.147C420.109 431.902 420.418 433.697 420.764 435.532C431.702 474.598 417.45 524.748 379.957 549.435C378.654 550.293 376.97 549.983 375.754 549.005C374.194 547.751 372.623 547.243 370.225 547.372C369.434 547.415 369.034 548.308 369.473 548.967L370.68 550.778C370.761 550.773 370.849 550.772 370.941 550.775C373.233 550.855 371.905 554.004 369.897 555.112C368.965 555.626 368.049 555.992 367.019 556.247C364.934 556.763 362.811 555.834 361.293 554.316L360.987 554.009C359.371 554.548 357.755 557.24 360.448 559.395C360.3 560.869 360.961 561.779 362.064 562.266C362.646 564.157 364.239 565.02 366.146 565.168C369.409 567.813 373.911 568.011 376.604 564.241L379.297 560.472C443.626 530.96 474.617 490.462 482.695 437.688C482.874 435.075 482.983 432.563 483.025 430.147C473.54 417.222 434.227 417.222 419.84 430.147Z" fill="white"/>
<path d="M372.296 557.24C370.501 558.317 365.941 560.364 362.064 559.933C361.643 559.886 360.748 559.519 360.448 559.395M360.448 559.395C357.755 557.24 359.371 554.548 360.987 554.009L361.293 554.316M360.448 559.395C360.3 560.869 360.961 561.779 362.064 562.266M373.373 559.933C371.026 561.888 364.988 563.56 362.064 562.266M362.064 562.266C362.646 564.157 364.239 565.02 366.146 565.168M374.45 562.087C372.517 564.02 368.984 565.387 366.146 565.168M366.146 565.168C369.409 567.813 373.911 568.011 376.604 564.241L379.297 560.472C443.626 530.96 474.617 490.462 482.695 437.688C482.874 435.075 482.983 432.563 483.025 430.147C473.54 417.222 434.227 417.222 419.84 430.147C420.109 431.902 420.418 433.697 420.764 435.532C431.702 474.598 417.45 524.748 379.957 549.435M361.293 554.316C362.811 555.834 364.934 556.763 367.019 556.247M361.293 554.316L362.951 555.973C363.414 556.437 364.054 556.687 364.706 556.625C365.558 556.543 366.315 556.421 367.019 556.247M367.019 556.247C368.049 555.992 368.965 555.626 369.897 555.112M369.897 555.112C371.905 554.004 373.233 550.855 370.941 550.775M369.897 555.112C370.563 554.744 371.237 554.302 371.967 553.77C372.533 553.358 373.018 552.723 372.849 552.044C372.611 551.092 371.648 550.8 370.941 550.775M370.941 550.775C370.849 550.772 370.761 550.773 370.68 550.778L369.473 548.967M369.473 548.967C369.034 548.308 369.434 547.415 370.225 547.372M369.473 548.967L368.815 547.98C368.681 547.779 368.803 547.507 369.043 547.478C369.459 547.428 369.852 547.392 370.225 547.372M370.225 547.372C372.623 547.243 374.194 547.751 375.754 549.005M375.754 549.005C376.97 549.983 378.654 550.293 379.957 549.435M375.754 549.005C376.204 549.367 376.654 549.792 377.122 550.281C377.452 550.625 377.976 550.703 378.379 550.45C378.91 550.116 379.436 549.778 379.957 549.435" stroke="black" stroke-width="0.328797" stroke-linecap="round" stroke-linejoin="round"/>
<path d="M396.529 389.757C399.769 388.606 401.914 389.757 403.53 390.834L409.453 415.068C404.917 414.498 405.335 414.297 402.452 414.786C404.131 420.197 403.3 422.664 401.375 426.917C397.498 425.67 394.733 420.857 393.836 418.606C396.143 407.201 399.106 402.361 396.529 389.757Z" fill="#044057"/>
<path d="M393.836 418.606C396.143 407.201 399.106 402.361 396.529 389.757C399.769 388.606 401.914 389.757 403.53 390.834L409.453 415.068C404.917 414.498 405.335 414.297 402.452 414.786M393.836 418.606C394.733 420.857 397.498 425.67 401.375 426.917C403.3 422.664 404.131 420.197 402.452 414.786M393.836 418.606C396.766 416.535 399.336 415.314 402.452 414.786" stroke="#044057" stroke-width="0.328797"/>
<path d="M401.376 426.916C400.838 429.07 395.765 427.353 394.553 426.778L391.861 433.377C389.892 429.369 389.153 427.01 389.707 426.053L389.528 413.991L395.991 418.3L401.376 426.916Z" fill="#044057"/>
<path d="M394.553 426.778C395.765 427.353 400.838 429.07 401.376 426.916L395.991 418.3L389.528 413.991L389.707 426.053M394.553 426.778L391.861 433.377C389.892 429.369 389.153 427.01 389.707 426.053M394.553 426.778C391.815 425.48 390.215 425.174 389.707 426.053" stroke="#044057" stroke-width="0.328797"/>
<path d="M409.994 415.607C404.608 413.99 397.069 415.606 393.838 417.219C393.299 419.733 394.053 425.406 401.377 427.991" stroke="black" stroke-width="0.207142" stroke-linecap="round" stroke-linejoin="round"/>
<path d="M389.528 425.839C394.421 427.597 397.21 428.738 401.376 427.993" stroke="black" stroke-width="0.207142" stroke-linecap="round" stroke-linejoin="round"/>
<path d="M388.988 413.453L393.879 416.334C393.839 416.755 393.751 417.635 393.727 417.793" stroke="black" stroke-width="0.207142" stroke-linecap="round" stroke-linejoin="round"/>
<path d="M383.606 558.317C382.845 554.7 381.99 551.855 379.836 549.7C381.411 548.625 382.23 548.037 383.606 547.008C386.675 549.456 387.375 551.855 387.914 556.163L383.606 558.317Z" fill="#1E1E1E" stroke="black" stroke-width="0.328797" stroke-linecap="square"/>
<circle cx="384.681" cy="552.393" r="3.60533" fill="#EC9393" stroke="black" stroke-width="0.328797"/>
<ellipse opacity="0.3" cx="300.833" cy="472.852" rx="21.7869" ry="57.0554" transform="rotate(-29.5916 300.833 472.852)" fill="white"/>
<ellipse opacity="0.4" cx="285.357" cy="457.02" rx="12.2732" ry="30.9255" transform="rotate(-26.7003 285.357 457.02)" fill="white"/>
<path d="M456.965 245.293C458.573 244.352 460.394 243.852 462.249 243.843C464.104 243.834 465.93 244.316 467.547 245.241C469.164 246.167 470.516 247.505 471.472 249.123C472.427 250.741 472.953 252.584 472.997 254.471C473.041 256.358 472.602 258.225 471.724 259.887C470.845 261.55 469.556 262.951 467.985 263.954C466.413 264.957 464.612 265.527 462.758 265.608C460.905 265.688 459.063 265.277 457.412 264.415C453.23 276.005 439.515 276.005 436.315 270.987C430.916 274.728 423.348 276.847 416.919 275.679C410.489 274.511 406.92 272.789 402.173 268.226C400.48 266.486 399.045 264.506 397.912 262.347C394.343 263.881 386.882 264.039 383.614 261.931C382.683 261.244 381.895 260.377 381.293 259.38C380.692 258.383 380.289 257.275 380.109 256.12C379.928 254.965 379.973 253.785 380.24 252.647C380.508 251.509 380.993 250.436 381.668 249.489C384.956 245.006 391.074 245.758 394.187 247.322C393.545 243.511 394.489 239.582 397.737 237.602C399.249 236.598 401.031 236.098 402.835 236.171C404.639 236.243 406.376 236.885 407.805 238.008C410.402 231.367 417.824 225.379 424.817 226.052C428.336 226.444 431.643 227.953 434.271 230.365C436.899 232.778 438.713 235.972 439.456 239.493C442.112 236.464 445.711 234.455 449.475 235.801C453.24 237.147 456.77 241.235 456.965 245.293Z" fill="#3AAEDB"/>
<path d="M147.137 294.907C148.728 293.985 150.53 293.495 152.365 293.486C154.2 293.477 156.006 293.949 157.605 294.857C159.205 295.764 160.543 297.074 161.488 298.66C162.433 300.246 162.953 302.052 162.997 303.902C163.041 305.751 162.607 307.58 161.737 309.209C160.868 310.839 159.593 312.212 158.039 313.195C156.484 314.178 154.702 314.736 152.869 314.815C151.035 314.895 149.213 314.492 147.58 313.647C143.442 325.005 129.875 325.005 126.709 320.087C121.369 323.754 113.882 325.83 107.522 324.685C101.162 323.541 97.6302 321.853 92.9345 317.381C91.2601 315.677 89.8403 313.736 88.7198 311.62C85.1884 313.123 77.808 313.278 74.5749 311.212C73.6543 310.539 72.8743 309.69 72.2794 308.713C71.6845 307.736 71.2863 306.65 71.1076 305.518C70.9289 304.386 70.9732 303.229 71.2379 302.114C71.5026 300.999 71.9826 299.948 72.6504 299.02C75.9028 294.626 81.9553 295.363 85.0344 296.895C84.3994 293.161 85.3327 289.31 88.5466 287.37C90.0422 286.386 91.8046 285.896 93.5892 285.967C95.3738 286.038 97.0921 286.668 98.5058 287.768C101.075 281.26 108.417 275.391 115.335 276.051C118.816 276.435 122.088 277.914 124.688 280.278C127.287 282.643 129.082 285.772 129.817 289.223C132.444 286.255 136.004 284.286 139.728 285.605C143.452 286.924 146.945 290.93 147.137 294.907Z" fill="#3AAEDB"/>
</g>
<defs>
<clipPath id="clip0_142_12427">
<rect width="783" height="763" fill="white" transform="translate(71 77)"/>
</clipPath>
<clipPath id="clip1_142_12427">
<rect width="7.69747" height="9.23696" fill="white" transform="translate(257.155 695.288)"/>
</clipPath>
</defs>
</svg>
